<?xml version="1.0" encoding="UTF-8"?>
<svg xmlns="http://www.w3.org/2000/svg" width="791" height="414" viewBox="0 0 791 414" fill="none">
  <g clip-path="url(#clip0_651_46673)">
    <g clip-path="url(#clip1_651_46673)">
      <path fill="#D8D8D8" stroke="#979797" d="M-16.5-28.5h823v470.315h-823z"></path>
      <mask id="a" style="mask-type:alpha" maskUnits="userSpaceOnUse" x="-17" y="-29" width="824" height="472">
        <path fill="#fff" stroke="#fff" d="M-16.5-28.5h823v470.315h-823z"></path>
      </mask>
      <g mask="url(#a)">
        <path fill-rule="evenodd" clip-rule="evenodd" d="M-33.816 448.055h857.631V-35.733H-33.816v483.788z" fill="url(#paint0_linear_651_46673)"></path>
        <path fill-rule="evenodd" clip-rule="evenodd" d="M721.988 352.053L209.722 13.327l-86.573 364.465 598.839-25.739z" fill="#0163E5"></path>
        <path fill-rule="evenodd" clip-rule="evenodd" d="M593.025 213.828h3.085v-5.662h-3.085v5.662zm0 25.513h3.363v-12.757h-3.363v12.757zm0 25.512h3.363v-12.757h-3.363v12.757zm0 25.512h3.363v-12.757h-3.363v12.757zm3.085 19.961h-7.198v-3.088h4.113v-4.117h3.085v7.205zm-76.229.279h11.505v-3.366h-11.505v3.366zm23.01 0h11.505v-3.366h-11.505v3.366zm23.01 0h11.505v-3.366h-11.505v3.366zm-63.182-.278h5.656v-3.088h-5.656v3.088z" fill="#67A1EF"></path>
        <path fill-rule="evenodd" clip-rule="evenodd" d="M346.705 373.622h103.256v-39.991H346.705v39.991z" fill="#1377FD"></path>
        <path fill-rule="evenodd" clip-rule="evenodd" d="M398.334 396.362c-91.579 0-165.817-3.248-165.817-7.254 0-4.006 74.238-7.253 165.817-7.253 91.578 0 165.817 3.247 165.817 7.253s-74.239 7.254-165.817 7.254z" fill="#451C56" fill-opacity=".202"></path>
        <path fill-rule="evenodd" clip-rule="evenodd" d="M485.883 386.56H310.784c0-9.095 7.366-16.467 16.451-16.467h142.198c9.085 0 16.45 7.372 16.45 16.467z" fill="#67A1EF"></path>
        <mask id="b" style="mask-type:alpha" maskUnits="userSpaceOnUse" x="-34" y="-36" width="858" height="485">
          <path fill-rule="evenodd" clip-rule="evenodd" d="M-33.816 448.055h857.632V-35.733H-33.816v483.788z" fill="#fff"></path>
        </mask>
        <g mask="url(#b)" fill-rule="evenodd" clip-rule="evenodd">
          <path d="M346.705 353.626h103.256v-19.995H346.705v19.995z" fill="#B62AD8"></path>
          <path d="M571.622 136.171v190.262c0 10.361-7.497 18.76-16.745 18.76H244.076c-9.248 0-16.745-8.399-16.745-18.76V136.171c0-10.362 7.497-18.76 16.745-18.76h310.801c9.248 0 16.745 8.398 16.745 18.76z" fill="#99C1F5"></path>
          <path d="M571.622 135.801v186.498c0 10.157-7.497 18.389-16.745 18.389H244.076c-9.248 0-16.745-8.232-16.745-18.389V135.801c0-10.158 7.497-18.39 16.745-18.39h310.801c9.248 0 16.745 8.232 16.745 18.39z" fill="#67A1EF"></path>
          <path d="M244.076 324.221c-.933 0-2.644-1.703-2.644-4.485V136.012c0-2.783 1.711-4.486 2.644-4.486h310.801c.932 0 2.644 1.703 2.644 4.486v183.724c0 2.782-1.712 4.485-2.644 4.485H244.076z" fill="#013273"></path>
          <path d="M263.203 153.7h47.581v-5.147h-47.581v5.147zm141.139 38.027h50.488v-5.147h-50.488v5.147zM263.203 210.74h47.581v-5.147h-47.581v5.147zm154 38.026h50.843v-5.146h-50.843v5.146zm-154 19.013h47.581v-5.146h-47.581v5.146zm147.691 38.027h48.926v-5.147h-48.926v5.147z" fill="#1377FD"></path>
          <path d="M263.203 172.714h195.536v-5.147H263.203v5.147zm0 19.013h129.532v-5.147H263.203v5.147zm60.34 19.013h196.996v-5.147H323.543v5.147zm-60.34 19.012h257.336v-5.146H263.203v5.146zm0 19.014h143.136v-5.146H263.203v5.146zm59.421 19.013h184.012v-5.146H322.624v5.146zm-59.422 19.013h243.434v-5.147H263.202v5.147zm0 19.014h133.527v-5.147H263.202v5.147zM328.905 153.7h88.394v-5.147h-88.394v5.147z" fill="#67A1EF"></path>
          <path opacity=".271" d="M593.998 193.007H474.523c-6.832 0-12.37-5.543-12.37-12.382v-83.34c0-6.838 5.538-12.382 12.37-12.382h119.475c6.832 0 12.369 5.544 12.369 12.382v83.34c0 6.839-5.537 12.382-12.369 12.382z" fill="#451C56"></path>
          <path d="M604.41 187.154H484.935c-6.832 0-12.37-5.544-12.37-12.382v-83.34c0-6.84 5.538-12.382 12.37-12.382H604.41c6.832 0 12.369 5.543 12.369 12.382v83.34c0 6.838-5.537 12.382-12.369 12.382z" fill="#1377FD"></path>
          <path d="M512.135 130.723l-1.674.524v.104l1.674.524 16.322 8.377v6.703l-23.611-13.091v-5.306l23.611-13.055v6.702l-16.322 8.518zm26.505 27.298h-5.44l15.902-55.19h5.441l-15.903 55.19zm21.448-35.99v-6.562l24.237 13.09v5.271l-24.237 13.09v-6.597l16.984-8.623 1.674-.524v-.104l-1.674-.559-16.984-8.482z" fill="#fff"></path>
          <path d="M423.883 71.777c-4.381 0-7.931-3.555-7.931-7.939 0-4.385 3.55-7.938 7.931-7.938 4.379 0 7.93 3.553 7.93 7.938 0 4.384-3.551 7.939-7.93 7.939zm0-28.09c-11.119 0-20.131 9.022-20.131 20.151 0 11.13 9.012 20.15 20.131 20.15 11.118 0 20.13-9.02 20.13-20.15 0-11.129-9.012-20.151-20.13-20.151z" fill="#939598"></path>
          <path opacity=".357" d="M448.153 63.838c0 13.418-10.866 24.295-24.271 24.295-13.404 0-24.27-10.877-24.27-24.295 0-13.417 10.866-24.294 24.27-24.294 13.405 0 24.271 10.877 24.271 24.294zm17.05 6.163V57.675h-8.728a33.027 33.027 0 00-5.191-12.55l6.17-6.176-8.707-8.715-6.17 6.176a32.973 32.973 0 00-12.537-5.196v-8.736h-12.315v8.735a32.966 32.966 0 00-12.537 5.197l-6.17-6.176-8.708 8.715 6.17 6.176a33.057 33.057 0 00-5.19 12.55h-8.729V70h8.729a33.05 33.05 0 005.19 12.55l-6.17 6.176 8.708 8.715 6.17-6.175a32.965 32.965 0 0012.537 5.195v8.737h12.315v-8.737a32.971 32.971 0 0012.537-5.195l6.17 6.175 8.707-8.715-6.17-6.176A33.02 33.02 0 00456.475 70h8.728z" fill="#451C56"></path>
          <path d="M427.407 65.896c-4.379 0-7.93-3.555-7.93-7.939s3.551-7.938 7.93-7.938c4.381 0 7.931 3.554 7.931 7.938s-3.55 7.939-7.931 7.939zm0-28.09c-11.118 0-20.13 9.022-20.13 20.151 0 11.13 9.012 20.15 20.13 20.15 11.119 0 20.131-9.02 20.131-20.15 0-11.129-9.012-20.151-20.131-20.151z" fill="#1377FD"></path>
          <path d="M451.678 57.957c0 13.418-10.866 24.295-24.271 24.295-13.404 0-24.27-10.877-24.27-24.295 0-13.417 10.866-24.294 24.27-24.294 13.405 0 24.271 10.877 24.271 24.294zm17.051 6.163V51.794h-8.728a33.043 33.043 0 00-5.191-12.55l6.169-6.176-8.707-8.715-6.17 6.176a32.966 32.966 0 00-12.537-5.196v-8.736H421.25v8.736a32.966 32.966 0 00-12.537 5.196l-6.169-6.176-8.708 8.715 6.17 6.176a33.043 33.043 0 00-5.191 12.55h-8.728V64.12h8.728a33.036 33.036 0 005.191 12.55l-6.17 6.176 8.708 8.715 6.169-6.175a32.963 32.963 0 0012.537 5.195v8.737h12.315v-8.737a32.96 32.96 0 0012.537-5.195l6.17 6.175 8.707-8.715-6.169-6.176a33.036 33.036 0 005.191-12.55h8.728z" fill="#1377FD"></path>
          <path d="M439.276 58.987a1.029 1.029 0 01-1.028-1.03c0-5.982-4.863-10.85-10.841-10.85a1.029 1.029 0 010-2.059c7.112 0 12.898 5.79 12.898 12.91 0 .568-.46 1.029-1.029 1.029zm-10.732 27.88a1.029 1.029 0 110-2.06c14.791 0 26.825-12.044 26.825-26.85 0-14.806-12.034-26.85-26.825-26.85a1.03 1.03 0 010-2.058c15.926 0 28.882 12.968 28.882 28.908 0 15.94-12.956 28.91-28.882 28.91z" fill="#99C1F5"></path>
          <path d="M496.613 46.183a6.11 6.11 0 01-6.106-6.112 6.11 6.11 0 016.106-6.112 6.109 6.109 0 016.105 6.112 6.109 6.109 0 01-6.105 6.112zm0-21.628c-8.56 0-15.5 6.946-15.5 15.516 0 8.569 6.94 15.515 15.5 15.515 8.56 0 15.5-6.946 15.5-15.515 0-8.57-6.94-15.515-15.5-15.515z" fill="#939598"></path>
          <path opacity=".357" d="M515.3 40.07c0 10.331-8.367 18.706-18.687 18.706S477.925 50.4 477.925 40.07c0-10.332 8.368-18.705 18.688-18.705 10.32 0 18.687 8.373 18.687 18.705zm13.129 4.746v-9.49h-6.721a25.442 25.442 0 00-3.996-9.664l4.75-4.755-6.704-6.71-4.751 4.755a25.375 25.375 0 00-9.653-4.001V8.225h-9.482v6.726a25.38 25.38 0 00-9.654 4l-4.749-4.755-6.705 6.711 4.751 4.755a25.41 25.41 0 00-3.996 9.663h-6.721v9.49h6.721a25.41 25.41 0 003.996 9.664l-4.751 4.755 6.705 6.711 4.749-4.755a25.381 25.381 0 009.654 4v6.726h9.482v-6.725a25.377 25.377 0 009.653-4.001l4.751 4.755 6.704-6.711-4.75-4.755a25.442 25.442 0 003.996-9.663h6.721z" fill="#451C56"></path>
          <path d="M499.328 41.655a6.11 6.11 0 01-6.107-6.112 6.11 6.11 0 016.107-6.113 6.108 6.108 0 016.105 6.113 6.109 6.109 0 01-6.105 6.112zm0-21.628c-8.561 0-15.5 6.947-15.5 15.516 0 8.568 6.939 15.515 15.5 15.515 8.56 0 15.5-6.947 15.5-15.515 0-8.57-6.94-15.515-15.5-15.515z" fill="#1377FD"></path>
          <path d="M518.015 35.543c0 10.33-8.367 18.705-18.687 18.705-10.322 0-18.688-8.375-18.688-18.705 0-10.332 8.366-18.705 18.688-18.705 10.32 0 18.687 8.373 18.687 18.705zm13.128 4.745v-9.49h-6.721a25.403 25.403 0 00-3.996-9.664l4.751-4.755-6.705-6.71-4.751 4.755a25.373 25.373 0 00-9.654-4.001V3.696h-9.48v6.727a25.38 25.38 0 00-9.654 4l-4.75-4.755-6.705 6.712 4.751 4.754a25.42 25.42 0 00-3.997 9.663h-6.72v9.49h6.72a25.415 25.415 0 003.997 9.663l-4.751 4.756 6.705 6.711 4.75-4.755a25.378 25.378 0 009.654 4v6.726h9.48v-6.726a25.371 25.371 0 009.654-4l4.751 4.755 6.705-6.711-4.751-4.756a25.398 25.398 0 003.996-9.662h6.721z" fill="#1377FD"></path>
          <path d="M508.466 36.572a1.029 1.029 0 01-1.028-1.03c0-4.476-3.638-8.118-8.111-8.118a1.029 1.029 0 010-2.058c5.606 0 10.168 4.565 10.168 10.177 0 .568-.46 1.03-1.029 1.03zm-8.263 21.466a1.028 1.028 0 110-2.059c11.258 0 20.417-9.167 20.417-20.436 0-11.27-9.159-20.438-20.417-20.438a1.029 1.029 0 110-2.058c12.392 0 22.474 10.091 22.474 22.496 0 12.404-10.082 22.495-22.474 22.495z" fill="#99C1F5"></path>
          <path d="M212.111 220.692h5.656v-3.088h-5.656v3.088zm-12.972.001h-7.199v-7.206h3.085v4.118h4.114v3.088zm-7.198-129.042h3.363V80.576h-3.363v11.076zm0 22.153h3.363v-11.076h-3.363v11.076zm0 22.151h3.363v-11.076h-3.363v11.076zm0 22.153h3.363v-11.076h-3.363v11.076zm0 22.151h3.363v-11.076h-3.363v11.076zm0 22.152h3.363v-11.075h-3.363v11.075zM195.025 69.5h-3.085v-7.206h7.199v3.088h-4.114V69.5zm15.113-3.839h10.999v-3.366h-10.999v3.366zm21.997 0h10.999v-3.366h-10.999v3.366zm21.997 0h10.999v-3.366h-10.999v3.366zm21.997 0h11v-3.366h-11v3.366zm21.998 0h10.999v-3.366h-10.999v3.366zm21.997 0h10.999v-3.366h-10.999v3.366zm21.997 0h10.999v-3.366h-10.999v3.366zm21.997-.278h5.656v-3.088h-5.656v3.088z" fill="#67A1EF"></path>
          <path opacity=".305" d="M268.109 358.859H155.683c-6.133 0-11.106-4.978-11.106-11.118V200.665c0-6.139 4.973-11.117 11.106-11.117h112.426c6.134 0 11.106 4.978 11.106 11.117v147.076c0 6.14-4.972 11.118-11.106 11.118z" fill="#451C56"></path>
          <path d="M277.829 349.569H165.403c-6.133 0-11.106-4.977-11.106-11.117V191.376c0-6.14 4.973-11.117 11.106-11.117h112.426c6.134 0 11.106 4.977 11.106 11.117v147.076c0 6.14-4.972 11.117-11.106 11.117z" fill="#1377FD"></path>
          <path d="M227.595 207.047c1.877 2.139 2.497 5.198 1.957 7.956-.579 3.099-2.298 5.838-4.314 8.197-1.618 1.899-3.475 3.579-5.412 5.139-2.257 1.819-4.475 3.777-5.893 6.336-1.198 2.08-1.477 4.64-.659 6.898 1.338 3.878 4.454 6.757 6.152 10.416-1.878-1.659-3.716-3.378-5.433-5.198-1.797-1.919-3.494-3.958-4.613-6.358-.759-1.678-1.098-3.638-.519-5.417.579-1.82 1.876-3.279 3.175-4.639 3.615-3.618 8.069-6.277 11.604-9.956 1.958-2.019 3.575-4.437 4.134-7.218.459-2.038.24-4.137-.179-6.156z" fill="#F5F5F5"></path>
          <path d="M224.639 229.818c3.875-2.858 8.408-4.678 13.002-5.998-3.635 2.319-7.431 4.438-10.566 7.417-1.138 1.1-2.217 2.36-2.716 3.899-.379 1.139-.22 2.398.24 3.479.839 1.918 2.257 3.478 3.336 5.237.918 1.5 1.077 3.418.379 5.038-1.059 2.379-3.136 4.118-5.293 5.497-.279.16-.519.46-.859.501 1.438-1.3 2.557-3.139 2.517-5.118-.04-1.481-.859-2.779-1.818-3.839-1.978-2.359-3.635-5.357-3.296-8.537.34-3.179 2.617-5.738 5.074-7.576zm13.741 23.11c.839-1.019 2.177-1.279 3.395-1.438 2.117-.281 4.374.258 5.972 1.718 1.318 1.179 2.057 3.019 1.777 4.799-.299 2.059-1.677 3.777-3.235 5.077-2.816 2.26-6.292 3.579-9.766 4.458.199-.22.419-.42.678-.579 2.636-1.42 5.253-3.079 7.19-5.398 1.179-1.44 2.097-3.319 1.719-5.219-.4-2.197-2.537-3.797-4.714-3.917-1.039-.1-2.018.3-3.016.499z" fill="#F5F5F5"></path>
          <path d="M198.235 254.747c3.675-1.579 7.669-2.598 11.684-2.538-2.337.679-4.733 1.259-6.93 2.299-.519.279-1.119.54-1.418 1.079-.16.42.279.7.598.84 1.359.56 2.857.639 4.314.78 5.113.34 10.247.139 15.339-.18 5.034-.321 10.026-1 14.999-1.799-1.097.52-2.216 1.039-3.235 1.698-.519.361-1.158.46-1.738.6-6.111 1.36-12.382 1.78-18.614 1.879-2.416.02-4.813-.02-7.209-.179-2.677-.18-5.373-.381-7.989-1.08-.759-.219-1.558-.46-2.158-.999-.299-.24-.299-.72-.04-1 .659-.68 1.578-.999 2.397-1.4zm4.713 8.537c1.039-.82 2.277-1.279 3.515-1.72-.399.481-.958.94-.998 1.6-.02.42.32.74.659.94.659.34 1.398.459 2.138.56 3.834.4 7.709.618 11.583.359 3.535-.179 7.051-.76 10.547-1.378.957.899 2.096 1.518 3.294 2.058-4.215 1.24-8.548 1.959-12.902 2.299-4.114.28-8.289.26-12.383-.4-1.618-.3-3.276-.64-4.753-1.399-.6-.32-1.279-.74-1.458-1.439-.12-.6.319-1.14.758-1.48zm2.317 8.717c.919-.74 2.057-1.12 3.176-1.439-.359.339-.999.759-.719 1.338.54.701 1.538.78 2.337.96 3.375.42 6.79.7 10.165.441 2.557-.161 5.074-.621 7.571-1.061 1.438.84 2.936 1.56 4.473 2.2-2.357 1.058-4.894 1.74-7.429 2.218-4.275.761-8.689.86-12.982.181-1.899-.34-3.836-.781-5.553-1.72-.659-.379-1.359-.82-1.638-1.559-.219-.58.139-1.199.599-1.559z" fill="#F5F5F5"></path>
          <path d="M194.18 277.658c1.838-.62 3.735-1.119 5.673-1.18.778-.019 1.577.021 2.257.421-2.317.139-4.634.719-6.711 1.779-.46.259-.979.56-1.158 1.1 0 .619.698.819 1.158 1.019 2.896 1.08 5.992 1.42 9.028 1.739 9.047.761 18.154.56 27.201-.259 3.416-.38 6.852-.76 10.167-1.7 1.059-.36 2.257-.719 2.956-1.659.419-.559.14-1.26-.28-1.74.679.38 1.638.86 1.498 1.78-.26.959-1.238 1.46-2.037 1.919-2.556 1.3-5.373 1.96-8.169 2.539-8.129 1.599-16.457 1.959-24.725 1.72-6.232-.22-12.464-.82-18.615-1.881-1.098-.259-2.336-.478-3.135-1.339-.52-.599-.06-1.439.439-1.878 1.258-1.159 2.876-1.801 4.453-2.38z" fill="#F5F5F5"></path>
          <path d="M243.952 284.495c2.017-.7 4.175-1.439 5.672-3.038-.259 1.738-1.757 2.939-3.235 3.718-2.836 1.48-6.012 2.159-9.168 2.719-6.671 1.059-13.441 1.32-20.212 1.199-4.614-.14-9.267-.32-13.801-1.279-1.079-.3-2.237-.5-3.175-1.139 4.034.679 8.129.96 12.222 1.119 6.732.2 13.482-.06 20.173-.899 3.875-.54 7.769-1.2 11.524-2.4zm-52.628 29.649c.021-6.558-.019-13.115.021-19.692 1.357.039 2.716 0 4.073.039-.019 7.337 0 14.695-.019 22.051-.04 2.059-.081 4.22-1.078 6.058-1.099 1.959-3.056 3.339-5.134 4.138-.659-.719-1.258-1.479-1.916-2.198 1.677-.981 3.354-2.379 3.753-4.399.381-1.979.26-3.999.3-5.997zm12.823-2.519c-.878.279-1.698.92-1.937 1.839-.28 1.02-.2 2.219.459 3.078.639.84 1.798 1.04 2.796.921 1.398-.16 2.616-.961 3.695-1.82 0-1.499-.021-2.978 0-4.478-1.677 0-3.395-.1-5.013.46zm-4.954-9.277c2.697-1.159 5.693-1.759 8.629-1.439 1.518.18 3.095.74 4.074 1.96.819 1.039 1.119 2.378 1.099 3.677v13.416h-3.016c-.1-.66-.2-1.339-.28-2.02-1.138.9-2.357 1.759-3.774 2.119-1.619.421-3.396.379-4.973-.239a4.366 4.366 0 01-2.517-2.879c-.5-1.86-.24-4.039 1.078-5.538 1.179-1.379 2.957-2.06 4.714-2.379 1.618-.32 3.275-.32 4.933-.32-.04-1.26.2-2.638-.519-3.758-.579-.86-1.638-1.199-2.616-1.26-2.137-.18-4.256.36-6.272 1.059a101.5 101.5 0 01-.56-2.399zm40.006 9.297c-.839.279-1.618.919-1.878 1.8-.28 1.019-.2 2.218.44 3.098.659.859 1.837 1.04 2.856.919 1.378-.2 2.635-.959 3.675-1.879-.04-1.459-.021-2.938-.021-4.418-1.697 0-3.435-.099-5.072.48zm-4.893-9.297c2.716-1.159 5.711-1.779 8.668-1.44 1.477.18 2.995.722 3.974 1.881.919 1.099 1.198 2.559 1.179 3.958-.021 4.418.019 8.817-.04 13.235-.999-.04-1.997.019-2.997-.04-.1-.681-.179-1.34-.299-2-1.398 1.2-3.076 2.179-4.973 2.339-1.737.16-3.695-.059-5.053-1.3-1.419-1.318-1.658-3.457-1.298-5.277.339-1.679 1.597-3.059 3.116-3.798 2.376-1.159 5.092-1.22 7.688-1.199-.04-1.22.18-2.52-.439-3.62-.479-.88-1.498-1.279-2.456-1.379-2.217-.24-4.435.32-6.512 1.04-.179-.8-.378-1.6-.558-2.4zm-19.035-1.199h4.195c.819 2.638 1.618 5.258 2.437 7.897.479 1.619 1.078 3.219 1.418 4.878.179.74.339 1.5.559 2.218 1.718-4.857 3.035-9.874 3.715-14.993h4.074c-1.178 6.477-3.035 12.854-5.833 18.812h-4.793c-1.916-6.277-3.854-12.534-5.772-18.812z" fill="#F5F5F5"></path>
        </g>
        <path fill-rule="evenodd" clip-rule="evenodd" d="M-33.816 448.055h857.631V-35.733H-33.816v483.788z" fill="url(#paint1_linear_651_46673)"></path>
        <path fill-rule="evenodd" clip-rule="evenodd" d="M746.516 195.559L254.515 13.327 89.308 402.56l657.208-207.001z" fill="#0163E5"></path>
        <path fill-rule="evenodd" clip-rule="evenodd" d="M202.642 124.69a29.78 29.78 0 01-.046-1.669v-4.938h2.18v4.938c0 .519.014 1.035.043 1.547l-2.177.122zm3.808 12.928a29.321 29.321 0 01-2.655-6.243l2.09-.618a27.226 27.226 0 002.459 5.779l-1.894 1.082zm9.154 9.878a29.755 29.755 0 01-5.145-4.411l1.599-1.485a27.472 27.472 0 004.766 4.087l-1.22 1.809zm12.585 4.778a29.29 29.29 0 01-6.571-1.657l.773-2.04a27.184 27.184 0 006.084 1.534l-.286 2.163zm6.673.254h6.541v-2.183h-6.541v2.183zm13.082 0h6.542v-2.183h-6.542v2.183zm13.084 0h6.541v-2.183h-6.541v2.183zm13.082 0h6.542v-2.183h-6.542v2.183zm13.084 0h6.541v-2.183h-6.541v2.183zm13.083 0h6.542v-2.183h-6.542v2.183zm13.083 0h6.541v-2.183h-6.541v2.183z" fill="#67A1EF"></path>
        <mask id="c" style="mask-type:alpha" maskUnits="userSpaceOnUse" x="-34" y="-36" width="858" height="485">
          <path fill-rule="evenodd" clip-rule="evenodd" d="M-33.816 448.055h857.632V-35.733H-33.816v483.788z" fill="#fff"></path>
        </mask>
        <g mask="url(#c)" fill-rule="evenodd" clip-rule="evenodd">
          <path d="M285.121 195.072h6.541v-3.367h-6.541v3.367zm13.084 0h6.541v-3.367h-6.541v3.367zm13.083 0h6.541v-3.367h-6.541v3.367zm13.083 0h6.541v-3.367h-6.541v3.367zm13.083 0h6.542v-3.367h-6.542v3.367zM552.556 53.47h2.181v-1.322h-2.181v1.322zm0 13.097h2.181v-6.548h-2.181v6.548zm0 13.095h2.181v-6.548h-2.181v6.548zm2.158 13.137l-2.178-.084c.013-.345.02-.69.02-1.037V86.21h2.181v5.47c0 .375-.008.749-.023 1.12zm-3.562 12.994l-1.914-1.045a27.366 27.366 0 002.349-5.824l2.101.578a29.561 29.561 0 01-2.536 6.291zm-8.962 10.051l-1.255-1.785a27.442 27.442 0 004.686-4.178l1.627 1.453a29.614 29.614 0 01-5.058 4.51zm-12.496 5.024l-.325-2.157a27.222 27.222 0 006.052-1.652l.815 2.024a29.402 29.402 0 01-6.542 1.785zm-91.727.335h6.541v-2.182h-6.541v2.182zm13.084 0h6.541v-2.182h-6.541v2.182zm13.083 0h6.541v-2.182h-6.541v2.182zm13.083 0h6.541v-2.182h-6.541v2.182zm13.083 0h6.54v-2.182h-6.54v2.182zm13.083 0h6.541v-2.182h-6.541v2.182zm13.082 0h6.541v-2.182h-6.541v2.182zM452.32 290.411h6.542v-3.367h-6.542v3.367zm13.084 0h6.541v-3.367h-6.541v3.367zm13.084 0h6.54v-3.367h-6.54v3.367zm13.081 0h6.541v-3.367h-6.541v3.367zm13.084 0h6.541v-3.367h-6.541v3.367zm109.257-92.32h2.18v-6.548h-2.18v6.548zm-.765 13.142l-1.962-.954a27.228 27.228 0 002.069-5.93l2.127.476a29.408 29.408 0 01-2.234 6.408zm-8.483 10.461l-1.336-1.725a27.491 27.491 0 004.486-4.392l1.693 1.376a29.716 29.716 0 01-4.843 4.741zm-12.241 5.607l-.428-2.139a27.11 27.11 0 005.966-1.938l.909 1.985a29.214 29.214 0 01-6.447 2.092zm-131.006.575h6.541v-2.182h-6.541v2.182zm13.084 0h6.541v-2.182h-6.541v2.182zm13.082 0h6.541v-2.182h-6.541v2.182zm13.084 0h6.541v-2.182h-6.541v2.182zm13.083 0h6.541v-2.182h-6.541v2.182zm13.082 0h6.541v-2.182h-6.541v2.182zm13.083 0h6.541v-2.182h-6.541v2.182zm13.084 0h6.541v-2.182h-6.541v2.182zm13.082 0h6.541v-2.182h-6.541v2.182zm13.084 0h6.541v-2.182h-6.541v2.182zm-403.59 10.298h6.541v-2.183h-6.541v2.183zm13.083 0h6.541v-2.183h-6.541v2.183zm13.083 0h6.541v-2.183h-6.541v2.183zm13.083 0h6.541v-2.183h-6.541v2.183zm13.083 0h6.541v-2.183h-6.541v2.183zm13.083 0h6.541v-2.183h-6.541v2.183zm19.605.111l-6.541-.109.037-2.182 6.54.108-.036 2.183zm13.082.218l-6.541-.108.037-2.182 6.54.108-.036 2.182zm13.08.219l-6.54-.11.036-2.182 6.54.109-.036 2.183zm13.082.218l-6.541-.109.036-2.183 6.541.11-.036 2.182zm13.081.217l-6.54-.109.036-2.182 6.541.109-.037 2.182zm13.082.22l-6.542-.109.036-2.184 6.542.109-.036 2.184zm13.081.218l-6.541-.109.036-2.182 6.541.109-.036 2.182zm13.081.218l-6.541-.11.036-2.182 6.541.11-.036 2.182zm-172.188-72.818c-4.42 0-8.016 3.599-8.016 8.023 0 4.425 3.596 8.024 8.016 8.024 4.419 0 8.015-3.599 8.015-8.024 0-4.424-3.596-8.023-8.015-8.023zm0 18.879c-5.98 0-10.845-4.87-10.845-10.856s4.865-10.855 10.845-10.855c5.979 0 10.844 4.869 10.844 10.855 0 5.986-4.865 10.856-10.844 10.856zm37.485 135.339a3.423 3.423 0 00-3.418 3.421 3.424 3.424 0 003.418 3.422 3.424 3.424 0 003.418-3.422 3.423 3.423 0 00-3.418-3.421zm0 6.195a2.775 2.775 0 010-5.547 2.774 2.774 0 010 5.547zM91.485 199.462a3.956 3.956 0 00-3.95 3.954 3.956 3.956 0 003.95 3.953 3.956 3.956 0 003.95-3.953 3.957 3.957 0 00-3.95-3.954zm0 9.303a5.352 5.352 0 01-5.344-5.349c0-2.95 2.397-5.35 5.344-5.35 2.947 0 5.345 2.4 5.345 5.35a5.353 5.353 0 01-5.345 5.349zM592.394 94.297a4.422 4.422 0 00-4.414 4.419 4.421 4.421 0 004.414 4.418 4.422 4.422 0 004.415-4.418 4.422 4.422 0 00-4.415-4.42zm0 10.397a5.982 5.982 0 01-5.973-5.978 5.982 5.982 0 015.973-5.979c3.293 0 5.973 2.682 5.973 5.979a5.982 5.982 0 01-5.973 5.978zm96.504 46.555a4.421 4.421 0 00-4.414 4.419 4.421 4.421 0 004.414 4.418 4.421 4.421 0 004.414-4.418 4.421 4.421 0 00-4.414-4.419zm0 10.397a5.982 5.982 0 01-5.973-5.978c0-3.297 2.679-5.979 5.973-5.979 3.293 0 5.973 2.682 5.973 5.979a5.982 5.982 0 01-5.973 5.978zM415.104 29.137a5.237 5.237 0 00-5.229 5.233 5.236 5.236 0 005.229 5.232 5.235 5.235 0 005.227-5.232 5.236 5.236 0 00-5.227-5.233zm0 12.313c-3.901 0-7.073-3.177-7.073-7.08s3.172-7.08 7.073-7.08c3.899 0 7.072 3.177 7.072 7.08s-3.173 7.08-7.072 7.08zm237.801 221.356c-4.419 0-8.016 3.599-8.016 8.024 0 4.424 3.597 8.023 8.016 8.023 4.42 0 8.016-3.599 8.016-8.023 0-4.425-3.596-8.024-8.016-8.024zm0 18.879c-5.979 0-10.844-4.87-10.844-10.855 0-5.987 4.865-10.856 10.844-10.856 5.98 0 10.845 4.869 10.845 10.856 0 5.985-4.865 10.855-10.845 10.855zm-147.742 80.523c-3.395 0-6.156 2.765-6.156 6.163 0 3.399 2.761 6.164 6.156 6.164 3.396 0 6.157-2.765 6.157-6.164 0-3.398-2.761-6.163-6.157-6.163zm0 14.502c-4.593 0-8.33-3.741-8.33-8.339 0-4.597 3.737-8.338 8.33-8.338 4.594 0 8.331 3.741 8.331 8.338 0 4.598-3.737 8.339-8.331 8.339zM296.264 39.09l1.484 3.338c1.482 3.331 3.708 6.071 6.416 7.893l2.714 1.826-2.714 1.826c-2.708 1.822-4.934 4.561-6.416 7.893l-1.484 3.34-1.484-3.34c-1.481-3.332-3.708-6.07-6.415-7.893l-2.715-1.826 2.715-1.826c2.707-1.822 4.934-4.562 6.415-7.893l1.484-3.339zm199.362 92.186l.807 1.816c.806 1.812 2.017 3.301 3.491 4.293l1.475.993-1.475.993c-1.474.992-2.685 2.481-3.491 4.294l-.807 1.815-.807-1.815c-.805-1.813-2.017-3.302-3.49-4.294l-1.476-.993 1.476-.993c1.473-.992 2.685-2.481 3.49-4.293l.807-1.816zm101.46 106.508l1.078 2.423c1.075 2.419 2.691 4.408 4.657 5.731l1.97 1.325-1.97 1.326c-1.966 1.322-3.582 3.312-4.657 5.729l-1.078 2.425-1.078-2.425c-1.074-2.417-2.691-4.407-4.656-5.729l-1.97-1.326 1.97-1.325c1.965-1.323 3.582-3.312 4.656-5.731l1.078-2.423zM617.019 74.88l.599 1.35c.598 1.343 1.496 2.449 2.59 3.184l1.095.737-1.095.737c-1.094.736-1.992 1.841-2.59 3.186l-.599 1.348-.6-1.348c-.597-1.345-1.496-2.45-2.589-3.186l-1.095-.737 1.095-.737c1.093-.735 1.992-1.84 2.589-3.185l.6-1.348zm-464.326 88.262l.807 1.817c.805 1.812 2.017 3.302 3.49 4.292l1.476.994-1.476.993c-1.473.991-2.685 2.481-3.49 4.293l-.807 1.816-.807-1.816c-.805-1.812-2.017-3.302-3.49-4.293l-1.476-.993 1.476-.994c1.473-.99 2.685-2.48 3.49-4.292l.807-1.817zm-26.269-140.29l.807 1.817c.807 1.811 2.018 3.302 3.491 4.293l1.475.992-1.475.994c-1.473.99-2.684 2.481-3.491 4.293l-.807 1.817-.807-1.817c-.805-1.812-2.017-3.302-3.489-4.293l-1.477-.994 1.477-.992c1.472-.991 2.684-2.482 3.489-4.293l.807-1.817zm106.74 301.783l.808 1.816c.806 1.812 2.016 3.302 3.49 4.294l1.475.992-1.475.993c-1.474.992-2.684 2.481-3.49 4.294l-.808 1.816-.807-1.816c-.805-1.813-2.016-3.302-3.49-4.294l-1.476-.993 1.476-.992c1.474-.992 2.685-2.482 3.49-4.294l.807-1.816zm66.889 43.736l1.419 3.193c1.417 3.185 3.546 5.805 6.136 7.547l2.595 1.747-2.595 1.746c-2.59 1.743-4.719 4.361-6.136 7.547l-1.419 3.194-1.419-3.194c-1.417-3.186-3.545-5.804-6.135-7.547l-2.595-1.746 2.595-1.747c2.59-1.742 4.718-4.362 6.135-7.547l1.419-3.193zm181.051-54.592l.807 1.817c.805 1.812 2.017 3.302 3.49 4.293l1.476.993-1.476.993c-1.473.991-2.685 2.481-3.49 4.293l-.807 1.817-.807-1.817c-.806-1.812-2.017-3.302-3.491-4.293l-1.475-.993 1.475-.993c1.474-.991 2.685-2.481 3.491-4.293l.807-1.817zm-295.113 18.097v13.928a4.294 4.294 0 004.295 4.295h13.911a4.294 4.294 0 004.294-4.295v-13.928a4.294 4.294 0 00-4.294-4.295h-13.911a4.294 4.294 0 00-4.295 4.295zM443.734 22.173V36.1a4.295 4.295 0 004.295 4.295h13.911a4.294 4.294 0 004.294-4.295V22.173a4.294 4.294 0 00-4.294-4.296h-13.911a4.295 4.295 0 00-4.295 4.296z" fill="#67A1EF"></path>
          <path opacity=".256" d="M442.881 95.562h-85.245c-11.772 0-21.311 9.548-21.311 21.332v214.103c0 11.783 9.539 21.331 21.311 21.331h85.245c11.771 0 21.325-9.548 21.325-21.331V116.894c0-11.784-9.554-21.332-21.325-21.332z" fill="#013273"></path>
          <path d="M436.11 87.877h-85.245c-11.772 0-21.311 9.548-21.311 21.332v214.103c0 11.783 9.539 21.331 21.311 21.331h85.245c11.771 0 21.325-9.548 21.325-21.331V109.209c0-11.784-9.554-21.332-21.325-21.332z" fill="#000"></path>
          <path d="M436.11 87.877h-85.245c-11.772 0-21.311 9.548-21.311 21.332v214.103c0 11.783 9.539 21.331 21.311 21.331h85.245c11.771 0 21.325-9.548 21.325-21.331V109.209c0-11.784-9.554-21.332-21.325-21.332z" fill="#1377FD"></path>
          <path d="M451.767 108.243v216.025c0 8.305-6.725 15.038-15.022 15.038h-86.504c-8.296 0-15.022-6.733-15.022-15.038V108.254c0-8.31 6.73-15.048 15.034-15.048H365.1a3.187 3.187 0 013.173 2.908l.158 1.785a6.27 6.27 0 006.242 5.72h37.65c3.236 0 5.944-2.48 6.232-5.72l.157-1.785a3.187 3.187 0 013.174-2.908h14.859c8.297 0 15.022 6.732 15.022 15.037z" fill="#F5F5F5"></path>
          <path d="M407.893 97.511h-28.801a.768.768 0 010-1.538h28.801a.769.769 0 010 1.538z" fill="#013273"></path>
          <path d="M352.406 202.843h82.174v-10.445h-82.174v10.445zm7.732-75.179h3.272v-1.091h-3.272v1.091zm6.542 0h3.271v-1.091h-3.271v1.091zm-12.459.938l-.721-.819a4.838 4.838 0 013.2-1.21h.168v1.091h-.167a3.745 3.745 0 00-2.48.938zm20.064 2.061a3.735 3.735 0 00-1.533-2.328l.622-.896a4.824 4.824 0 011.98 3.007l-1.069.217zm-21.334 3.652h-1.09v-2.9c0-.142.005-.281.018-.42l1.086.094a3.93 3.93 0 00-.014.326v2.9zm21.41.373h1.09v-3.274h-1.09v3.274zm-22.5 6.176h1.09v-3.274h-1.09v3.274zm22.5.373h1.09v-3.275h-1.09v3.275zm-21.951 6.349a4.858 4.858 0 01-.549-2.244v-1.205h1.09v1.205a3.7 3.7 0 00.425 1.737l-.966.507zm22.281.362l-.919-.589a3.724 3.724 0 00.588-2.017v-.832h1.091v.832c0 .927-.263 1.828-.76 2.606zm-16.127 2.235h-1.863a4.835 4.835 0 01-1.559-.257l.351-1.033a3.74 3.74 0 001.208.199h1.863v1.091zm3.27 0h3.271v-1.091h-3.271v1.091zm8.784 0h-2.242v-1.091h2.236c.333.033.604-.035.896-.107l.258 1.06c-.375.092-.76.138-1.148.138zm34.141-18.769v13.928a4.295 4.295 0 01-4.294 4.296h-13.912a4.295 4.295 0 01-4.294-4.296v-13.928a4.295 4.295 0 014.294-4.295h13.912a4.295 4.295 0 014.294 4.295zm29.821 0v13.928a4.295 4.295 0 01-4.295 4.296h-13.911a4.295 4.295 0 01-4.294-4.296v-13.928a4.295 4.295 0 014.294-4.295h13.911a4.294 4.294 0 014.295 4.295zm-22.5 34.219v13.928a4.295 4.295 0 004.294 4.295h13.911a4.294 4.294 0 004.295-4.295v-13.928a4.295 4.295 0 00-4.295-4.296h-13.911a4.295 4.295 0 00-4.294 4.296zm-24.897-3.75h3.271v-1.091h-3.271v1.091zm6.541 0h3.271v-1.091h-3.271v1.091zm9.189.936a3.75 3.75 0 00-2.477-.936h-.17v-1.091h.17a4.83 4.83 0 013.196 1.208l-.719.819zm-20.066 2.063l-1.067-.219a4.816 4.816 0 011.979-3.005l.622.895a3.738 3.738 0 00-1.534 2.329zm22.425 3.653h-1.091v-2.902c0-.11-.003-.218-.012-.324l1.085-.096c.012.139.018.279.018.42v2.902zm-23.59.371h1.09v-3.274h-1.09v3.274zm22.499 6.176h1.091v-3.274h-1.091v3.274zm-22.499.372h1.09v-3.273h-1.09v3.273zm23.04 6.351l-.966-.508a3.745 3.745 0 00.425-1.737v-1.203h1.091v1.203c0 .782-.191 1.557-.55 2.245zm-22.28.361a4.831 4.831 0 01-.76-2.606v-.832h1.09v.832c0 .718.204 1.416.588 2.017l-.918.589zm6.314 2.236h-2.235c-.39 0-.779-.047-1.154-.139l.259-1.06c.291.071.592.108.895.108h2.235v1.091zm3.271 0h3.271v-1.091h-3.271v1.091zm8.406 0h-1.865v-1.091h1.865c.413 0 .819-.067 1.206-.199l.351 1.033a4.832 4.832 0 01-1.557.257zm-43.072-22.519h3.271v-1.091h-3.271v1.091zm6.542 0h3.271v-1.091h-3.271v1.091zm9.188.936a3.744 3.744 0 00-2.477-.936h-.17v-1.091h.17a4.83 4.83 0 013.198 1.208l-.721.819zm-20.065 2.062l-1.068-.218a4.818 4.818 0 011.979-3.006l.624.896a3.733 3.733 0 00-1.535 2.328zm22.425 3.655h-1.091v-2.903c0-.11-.004-.218-.013-.324l1.086-.096c.012.139.018.279.018.42v2.903zm-23.59.37h1.09v-3.274h-1.09v3.274zm22.5 6.176h1.09v-3.273h-1.09v3.273zm-22.5.372h1.09v-3.273h-1.09v3.273zm23.039 6.35l-.965-.507a3.775 3.775 0 00.425-1.737v-1.203h1.091v1.203a4.869 4.869 0 01-.551 2.244zm-22.28.362a4.84 4.84 0 01-.759-2.606v-.832h1.09v.832c0 .718.203 1.416.589 2.017l-.92.589zm6.315 2.236h-2.234c-.391 0-.781-.047-1.155-.139l.258-1.06c.291.071.593.108.897.108h2.234v1.091zm3.27 0h3.271v-1.091h-3.271v1.091zm8.407 0h-1.864v-1.091h1.864c.413 0 .82-.067 1.206-.199l.352 1.034a4.865 4.865 0 01-1.558.256z" fill="#99C1F5"></path>
        </g>
        <path fill-rule="evenodd" clip-rule="evenodd" d="M515.57 32.514c5.173 0 9.972 1.373 13.936 4.114 2.686-3.059 6.38-5.308 10.573-6.005a25.39 25.39 0 01-.266-3.66c0-13.577 10.999-24.613 24.564-24.613s24.565 10.993 24.565 24.573a24.69 24.69 0 01-.698 5.801c1.816-.431 3.71-.206 5.66-.206 13.566 0 24.562 9.914 24.562 25.042h-127.46c0-15.128 10.996-25.046 24.564-25.046zM247.446 95.358c-5.174 0-9.972 1.373-13.936 4.115-2.686-3.06-6.38-5.309-10.573-6.006a25.39 25.39 0 00.266-3.66c0-13.577-11-24.612-24.564-24.612-13.565 0-24.564 10.992-24.564 24.572 0 2.003.247 3.938.697 5.801-1.816-.431-3.711-.206-5.66-.206-13.566 0-24.562 9.914-24.562 25.042h127.459c0-15.128-10.995-25.046-24.563-25.046zm-.534 95.715c2.457 0 4.736.67 6.619 2.007 1.276-1.492 3.03-2.589 5.022-2.929a12.663 12.663 0 01-.126-1.786c0-6.623 5.224-12.006 11.667-12.006 6.442 0 11.667 5.362 11.667 11.987 0 .977-.118 1.921-.332 2.83.863-.211 1.763-.101 2.689-.101 6.443 0 11.666 4.836 11.666 12.216h-60.539c0-7.38 5.222-12.218 11.667-12.218zm-60.055 38.804c-4.046 0-7.799 1.075-10.899 3.219-2.102-2.393-4.991-4.152-8.27-4.698.136-.921.208-1.903.208-2.862 0-10.619-8.604-19.251-19.213-19.251-10.609 0-19.212 8.598-19.212 19.22 0 1.565.193 3.079.546 4.536-1.42-.337-2.903-.16-4.427-.16-10.611 0-19.211 7.753-19.211 19.585h99.69c0-11.832-8.6-19.589-19.212-19.589zm460.794-52.857c-4.046 0-7.799 1.074-10.899 3.217-2.102-2.392-4.99-4.151-8.27-4.696.137-.922.209-1.904.209-2.862 0-10.621-8.604-19.251-19.213-19.251-10.609 0-19.213 8.597-19.213 19.219 0 1.566.194 3.08.546 4.537-1.42-.337-2.903-.161-4.426-.161-10.611 0-19.211 7.755-19.211 19.586h99.691c0-11.831-8.601-19.589-19.214-19.589zm-76.083 103.835c-4.046 0-7.8 1.074-10.9 3.218-2.101-2.393-4.989-4.152-8.27-4.698.137-.921.209-1.903.209-2.862 0-10.62-8.603-19.251-19.212-19.251-10.61 0-19.214 8.598-19.214 19.22 0 1.566.194 3.08.546 4.536-1.419-.336-2.902-.159-4.426-.159-10.61 0-19.211 7.753-19.211 19.584h99.691c0-11.831-8.6-19.588-19.213-19.588z" fill="#D55FED"></path>
      </g>
      <path d="M375 269.333c0 1.834-1.5 3.334-3.333 3.334a3.343 3.343 0 01-3.334-3.334v-15c0-1.833 1.5-3.333 3.334-3.333 1.833 0 3.333 1.5 3.333 3.333v15zm46.667 0c0 1.834-1.5 3.334-3.334 3.334a3.343 3.343 0 01-3.333-3.334v-15c0-1.833 1.5-3.333 3.333-3.333 1.834 0 3.334 1.5 3.334 3.333v15zm-30 18.334c0 1.833-1.5 3.333-3.334 3.333a3.343 3.343 0 01-3.333-3.333v-15c0-1.834 1.5-3.334 3.333-3.334 1.834 0 3.334 1.5 3.334 3.334v15zm13.333 0c0 1.833-1.5 3.333-3.333 3.333a3.343 3.343 0 01-3.334-3.333v-15c0-1.834 1.5-3.334 3.334-3.334 1.833 0 3.333 1.5 3.333 3.334v15z" fill="#1377FD"></path>
      <path d="M378.333 251v25c0 1.833 1.5 3.333 3.334 3.333h26.666c1.834 0 3.334-1.5 3.334-3.333v-25h-33.334zM395 234.333c-10 0-16.167 6-16.667 13.334h33.334c-.5-7.334-6.667-13.334-16.667-13.334zm-6.667 9.334c-1 0-1.666-.667-1.666-1.667s.666-1.667 1.666-1.667c1 0 1.667.667 1.667 1.667 0 .833-.667 1.667-1.667 1.667zm13.334 0c-1 0-1.667-.667-1.667-1.667s.667-1.667 1.667-1.667 1.666.667 1.666 1.667c0 .833-.666 1.667-1.666 1.667z" fill="#1377FD"></path>
      <path d="M402.167 238.5c-.334 0-.667-.167-1-.333-.834-.5-1-1.5-.5-2.334l2.833-4.166c.5-.834 1.5-1 2.333-.5.834.5 1 1.5.5 2.333l-2.833 4.167c-.167.5-.667.833-1.333.833zm-15-.667c-.5 0-1.167-.333-1.334-.833l-2.166-3.5c-.5-.833-.334-1.833.5-2.333.833-.5 1.833-.334 2.333.5l2.167 3.5c.5.833.333 1.833-.5 2.333-.334.167-.667.333-1 .333z" fill="#1377FD"></path>
    </g>
    <path fill-rule="evenodd" clip-rule="evenodd" d="M735.55 384.292c.518.173.98.46 1.383.834l-.49.949c-.058.087-.115.173-.202.231-.086.028-.173.057-.259.057a.702.702 0 01-.346-.115 2.826 2.826 0 00-.432-.259 2.77 2.77 0 00-.606-.259 2.613 2.613 0 00-.807-.115c-.23-.029-.49.029-.72.086a1.85 1.85 0 00-.519.288.943.943 0 00-.317.432 1.156 1.156 0 00-.115.546c-.029.23.057.46.201.633.173.173.375.316.577.431.259.115.519.231.807.317.164.065.338.122.515.179.134.044.271.088.407.137.317.115.634.23.923.374.288.144.576.317.807.547.259.23.432.517.576.805.144.374.202.748.202 1.151 0 .489-.087.949-.26 1.38a2.884 2.884 0 01-.72 1.122c-.346.317-.75.576-1.182.748a4.811 4.811 0 01-1.585.259c-.329.027-.631-.023-.957-.078l-.052-.008c-.317-.058-.634-.173-.951-.288l-.174-.086a6.124 6.124 0 01-.691-.374 4.53 4.53 0 01-.72-.575l.605-.978c.058-.058.115-.116.202-.173a.835.835 0 01.259-.058c.144 0 .288.058.404.144.144.115.317.23.518.345.202.144.462.259.692.346.288.086.634.143.951.143.461.029.951-.115 1.326-.402.317-.317.49-.748.461-1.18.029-.23-.057-.489-.201-.69a1.775 1.775 0 00-.577-.46 3.948 3.948 0 00-.807-.317 8.866 8.866 0 01-.461-.143 7.998 7.998 0 00-.461-.144 5.21 5.21 0 01-.923-.345c-.288-.144-.576-.317-.807-.547a2.077 2.077 0 01-.576-.834c-.144-.374-.202-.806-.202-1.237 0-.834.346-1.582.922-2.157.318-.288.692-.547 1.096-.691a4.621 4.621 0 011.527-.259c.606-.028 1.182.087 1.759.288zm-60.327 3.049c-.259-.633-.634-1.237-1.124-1.697a5.27 5.27 0 00-1.729-1.122c-.721-.288-1.47-.403-2.248-.403H666v10.816h4.122c.778 0 1.527-.115 2.248-.403a4.994 4.994 0 002.853-2.819 6.333 6.333 0 000-4.372zm-1.902 3.797a3.386 3.386 0 01-.692 1.208 3.108 3.108 0 01-1.066.748 4.107 4.107 0 01-1.441.259h-2.104v-7.623h2.104c.49 0 .98.087 1.441.259.403.173.778.432 1.066.748.317.345.548.748.692 1.208a5.479 5.479 0 010 3.193zm4.266-2.876c.317-.346.72-.604 1.153-.806a3.515 3.515 0 011.498-.316c.462 0 .923.086 1.355.23.404.144.778.374 1.067.661.317.317.547.691.691 1.094.173.46.26.949.26 1.467a.97.97 0 01-.087.575c-.086.115-.201.172-.346.144h-4.669c0 .374.087.719.202 1.035.086.259.23.518.432.719.173.202.404.345.634.432a2.517 2.517 0 001.586.029c.201-.058.403-.144.576-.231.095-.047.182-.095.259-.137.064-.035.122-.067.173-.093.087-.086.231-.115.346-.115.144 0 .26.058.346.173l.519.661a3.42 3.42 0 01-.692.604 3.004 3.004 0 01-.807.403 3.96 3.96 0 01-.836.202l-.072.007c-.26.026-.5.05-.764.05a4.429 4.429 0 01-1.498-.259 3.35 3.35 0 01-1.211-.776 3.776 3.776 0 01-.807-1.295 5.367 5.367 0 01-.288-1.783c0-.489.086-1.007.259-1.467a3.21 3.21 0 01.721-1.208zm3.459.345c.201.086.374.201.518.374.144.172.231.345.317.546.058.23.116.461.116.691h-3.488c.058-.489.26-.95.577-1.295a1.735 1.735 0 011.268-.46c.202 0 .461.058.692.144zm7.638 6.328h-1.672l-3.055-7.68h1.527c.116-.029.231.029.346.086a.42.42 0 01.173.259l1.47 4.085c.086.23.144.46.202.69l.173.69c.019-.076.035-.153.051-.23.032-.153.064-.307.122-.46a6.64 6.64 0 00.115-.345c.036-.115.072-.23.115-.345l1.528-4.085a.42.42 0 01.173-.259.586.586 0 01.317-.086h1.47l-3.055 7.68zm2.075-10.816v1.64h3.257v9.176h2.017v-9.147h3.286v-1.669h-8.56zm8.445 4.114c.317-.345.721-.604 1.153-.806.49-.201 1.037-.287 1.585-.345.461 0 .922.087 1.355.23.403.173.778.403 1.066.691.317.316.548.69.692 1.093.173.46.259.949.259 1.467a.978.978 0 01-.086.575c-.087.115-.202.173-.346.144h-4.756c0 .374.087.719.202 1.035.086.259.231.518.432.72.173.201.404.345.634.431a2.518 2.518 0 001.586.029 3.53 3.53 0 00.576-.23c.095-.048.182-.095.26-.138.063-.035.121-.067.173-.092.086-.087.23-.116.345-.116a.41.41 0 01.346.173l.519.662c-.202.23-.432.431-.692.604a3.015 3.015 0 01-.807.402 3.899 3.899 0 01-.836.202l-.072.007c-.26.026-.499.05-.763.05a4.43 4.43 0 01-1.499-.259 3.359 3.359 0 01-1.211-.776 3.776 3.776 0 01-.807-1.295 5.367 5.367 0 01-.288-1.783c0-.489.086-1.007.259-1.467.144-.46.404-.863.721-1.208zm3.459.374c.201.086.374.201.518.374.145.172.231.345.318.546.057.23.115.461.086.691h-3.488c.058-.489.26-.95.577-1.295a1.736 1.736 0 011.268-.46c.26 0 .49.058.721.144zm9.828 1.496v4.832l-.836.058a.913.913 0 01-.403-.087c-.115-.086-.202-.172-.231-.316l-.173-.547a7.8 7.8 0 01-.576.461 2.405 2.405 0 01-.577.345c-.201.086-.403.172-.634.201a6.04 6.04 0 01-.749.058 3.24 3.24 0 01-.894-.144 2.207 2.207 0 01-.72-.403 2.102 2.102 0 01-.461-.661 2.33 2.33 0 01-.173-.892c0-.317.086-.604.23-.863.173-.317.433-.604.75-.777a5.02 5.02 0 011.412-.575 9.293 9.293 0 012.191-.259v-.46a1.48 1.48 0 00-.317-1.151 1.224 1.224 0 00-.952-.374 2.16 2.16 0 00-.749.115 4.2 4.2 0 00-.519.23 6.673 6.673 0 01-.403.231.668.668 0 01-.404.115c-.115.028-.23-.029-.317-.087a.853.853 0 01-.23-.23l-.318-.604a4.538 4.538 0 013.2-1.208c.403 0 .836.086 1.21.23.346.115.634.345.894.604.23.288.432.604.548.949.144.403.201.806.201 1.209zm-4.352 3.48a.913.913 0 01-.144-1.151c.115-.172.288-.287.461-.373.288-.116.577-.202.865-.259.461-.087.893-.115 1.354-.144v1.294c-.23.259-.518.46-.807.633a2.299 2.299 0 01-.98.201c-.259 0-.518-.057-.749-.201zm7.955-4.257v5.551h-1.816v-7.68h1.124c.202 0 .404.144.462.345l.115.576c.144-.144.288-.288.432-.403a2.59 2.59 0 01.461-.316c.173-.087.346-.144.548-.202.202-.057.432-.086.634-.086.432 0 .836.144 1.182.403.317.259.547.633.692 1.035.115-.259.288-.46.461-.661.173-.173.374-.317.605-.432.231-.115.461-.201.692-.259.23-.057.461-.086.72-.086.375 0 .75.058 1.124.201.317.115.606.317.836.576.231.259.404.575.519.92.115.403.173.806.173 1.237v4.89h-1.845v-4.89a1.673 1.673 0 00-.317-1.093c-.259-.259-.605-.403-.951-.374a1.65 1.65 0 00-.519.086 1.143 1.143 0 00-.432.288c-.115.144-.231.288-.288.46a1.632 1.632 0 00-.116.633v4.89h-1.844v-4.89a1.713 1.713 0 00-.317-1.122c-.26-.23-.577-.374-.923-.345-.259 0-.518.058-.749.201-.259.144-.49.346-.663.547zm10.52 5.034c.058.143.145.259.231.345.115.115.231.172.346.23.144.057.288.086.461.086.288 0 .605-.115.807-.316a1.128 1.128 0 000-1.582 1.183 1.183 0 00-.346-.23 1.149 1.149 0 00-.432-.087c-.288 0-.605.115-.807.317-.115.115-.173.23-.231.345a1.074 1.074 0 00-.029.892zm13.663 3.078v-3.136c.23.23.518.432.807.547.345.144.72.201 1.095.201.461 0 .951-.086 1.354-.316.404-.202.75-.489 1.038-.835a4.08 4.08 0 00.663-1.265 6.006 6.006 0 00.231-1.582 6.46 6.46 0 00-.202-1.669 4.007 4.007 0 00-.577-1.236 2.471 2.471 0 00-.893-.748 2.601 2.601 0 00-1.153-.259c-.49 0-.98.115-1.412.316-.404.23-.779.518-1.067.863l-.144-.719a.493.493 0 00-.461-.345h-1.124v10.183h1.845zm2.911-8.285a1.023 1.023 0 00-.49-.431 1.388 1.388 0 00-.663-.144 1.656 1.656 0 00-.98.23 2.873 2.873 0 00-.75.69v3.452c.173.23.433.432.692.547.259.086.519.144.807.144.26.028.519-.029.75-.144.23-.115.432-.288.576-.489a2.07 2.07 0 00.375-.806c.086-.374.115-.748.115-1.15 0-.403-.029-.777-.115-1.151a2.448 2.448 0 00-.317-.748zm9.626 5.782v-4.832a3.55 3.55 0 00-.201-1.209 3.149 3.149 0 00-.548-.949c-.259-.259-.548-.489-.893-.604a3.476 3.476 0 00-1.211-.23 4.534 4.534 0 00-3.199 1.208l.317.604a.853.853 0 00.23.23c.087.058.202.115.317.087a.666.666 0 00.404-.115 7.19 7.19 0 00.403-.23v-.001c.173-.086.346-.172.519-.23.231-.086.49-.115.75-.115.345-.028.691.115.951.374.259.317.374.719.317 1.151v.46c-.75 0-1.47.086-2.191.259a5.02 5.02 0 00-1.412.575c-.317.173-.577.46-.749.777a1.744 1.744 0 00-.231.863c0 .316.058.604.173.892.115.258.259.46.461.661.202.173.461.317.721.403.288.086.605.144.893.144.26 0 .519-.029.75-.058.23-.029.432-.115.634-.201.201-.087.403-.202.576-.345.202-.144.375-.288.577-.461l.172.547c.029.144.116.23.231.316a.914.914 0 00.404.087l.835-.058zm-4.496-2.503a.913.913 0 00.144 1.151c.231.144.49.201.75.201.345 0 .663-.057.98-.201.288-.173.576-.374.807-.633v-1.294c-.462.029-.894.057-1.355.144a4.818 4.818 0 00-.865.259 1.154 1.154 0 00-.461.373zm12.221-4.228a3.971 3.971 0 00-1.153-.805 3.848 3.848 0 00-1.499-.288c-.547 0-1.095.086-1.614.288-.432.172-.836.46-1.182.834-.317.374-.576.776-.72 1.237a4.146 4.146 0 00-.231 1.553c0 .575.087 1.151.26 1.668.173.461.403.892.749 1.237.317.345.692.604 1.095.777.433.172.894.259 1.355.259.259 0 .548-.029.807-.058s.548-.115.807-.201c.26-.086.519-.23.75-.403.259-.172.461-.374.662-.604l-.518-.661a.41.41 0 00-.346-.173.433.433 0 00-.317.115c-.054.054-.119.096-.189.142a2.263 2.263 0 00-.128.088c-.144.086-.289.173-.462.23-.23.087-.461.115-.72.115-.288 0-.548-.057-.807-.172a1.971 1.971 0 01-.605-.489 2.07 2.07 0 01-.375-.806 4.516 4.516 0 01-.144-1.093c0-.345.029-.719.115-1.064.058-.288.202-.547.375-.805.173-.231.374-.403.605-.518.259-.115.548-.173.865-.173.23 0 .432.029.634.086l.079.032c.125.048.259.099.353.17.073.054.145.097.21.135.039.023.075.045.107.066a.485.485 0 00.288.086c.087 0 .173 0 .231-.057l.173-.173.49-.575zm1.672.029c.317-.345.72-.604 1.153-.806.49-.201 1.037-.287 1.585-.345.461 0 .922.087 1.355.23.403.173.778.403 1.066.691.317.316.548.69.692 1.093.173.46.259.949.259 1.467a.978.978 0 01-.086.575c-.087.115-.202.173-.346.144h-4.756c0 .374.086.719.202 1.035.086.259.23.518.432.72.173.201.404.345.634.431a2.517 2.517 0 001.585.029c.202-.058.404-.144.577-.23.095-.048.181-.095.259-.138.064-.035.121-.067.173-.092.087-.087.231-.116.346-.116.144 0 .26.058.346.173l.519.662c-.202.23-.433.431-.692.604a3.03 3.03 0 01-.807.402 3.913 3.913 0 01-.836.202l-.072.007c-.26.026-.5.05-.764.05a4.429 4.429 0 01-1.498-.259 3.35 3.35 0 01-1.211-.776 3.776 3.776 0 01-.807-1.295 5.367 5.367 0 01-.288-1.783c0-.489.086-1.007.259-1.467.144-.46.404-.863.721-1.208zm3.458.374c.202.086.375.201.519.374.144.172.231.345.317.546.058.23.116.461.087.691h-3.488c.058-.489.26-.95.577-1.295a1.736 1.736 0 011.268-.46c.259 0 .49.058.72.144zm8.623-.695h.374v-2.933h-.574l-.855 2.133-.855-2.133h-.575v2.933h.374v-2.427l1.002 2.427h.107l1.002-2.427v2.427zm-3.794-2.587h.828v-.346h-2.031v.346h.829v2.587h.374v-2.587z" fill="#fff"></path>
  </g>
  <defs>
    <linearGradient id="paint0_linear_651_46673" x1="395" y1="-35.733" x2="395" y2="448.055" gradientUnits="userSpaceOnUse">
      <stop stop-color="#940BFF"></stop>
      <stop offset="1" stop-color="#5E99F1"></stop>
    </linearGradient>
    <linearGradient id="paint1_linear_651_46673" x1="395" y1="-35.733" x2="395" y2="448.055" gradientUnits="userSpaceOnUse">
      <stop stop-color="#940BFF"></stop>
      <stop offset="1" stop-color="#5E99F1"></stop>
    </linearGradient>
    <clipPath id="clip0_651_46673">
      <path fill="#fff" d="M0 0h791v414H0z"></path>
    </clipPath>
    <clipPath id="clip1_651_46673">
      <path fill="#fff" transform="translate(-22 -28)" d="M0 0h834v470H0z"></path>
    </clipPath>
  </defs>
</svg>
