<?xml version="1.0" encoding="UTF-8"?>
<svg xmlns="http://www.w3.org/2000/svg" width="2373" height="1242" viewBox="0 0 2373 1242" fill="none">
  <path fill="#1377FD" d="M0 0h2373v1242H0z"></path>
  <path fill-rule="evenodd" clip-rule="evenodd" d="M2206.65 1152.88c1.56.51 2.94 1.38 4.15 2.5l-1.47 2.85c-.17.26-.35.51-.61.69-.26.08-.51.17-.77.17-.35 0-.78-.17-1.04-.35-.35-.25-.78-.51-1.3-.77-.6-.35-1.21-.61-1.81-.78-.78-.26-1.65-.34-2.43-.34-.69-.09-1.47.08-2.16.25-.52.18-1.12.52-1.55.87-.44.34-.78.77-.96 1.29-.25.52-.34 1.04-.34 1.64-.09.69.17 1.38.6 1.9.52.52 1.13.95 1.73 1.29.78.35 1.56.69 2.42.95.5.2 1.02.37 1.55.54.4.13.81.26 1.22.41.95.35 1.9.69 2.77 1.12.86.44 1.73.95 2.42 1.64.78.69 1.3 1.56 1.73 2.42.43 1.12.6 2.24.6 3.45 0 1.47-.25 2.85-.77 4.14-.44 1.3-1.21 2.42-2.17 3.37a11.43 11.43 0 01-3.54 2.24c-1.47.52-3.11.78-4.76.78-.98.08-1.89-.07-2.87-.23l-.15-.03c-.95-.17-1.91-.52-2.86-.86-.17-.09-.34-.17-.52-.26-.71-.35-1.45-.71-2.07-1.12-.78-.52-1.47-1.04-2.16-1.73l1.81-2.93c.18-.17.35-.35.61-.52.26-.09.52-.17.78-.17.43 0 .86.17 1.21.43.43.34.95.69 1.55 1.03.61.44 1.39.78 2.08 1.04.86.26 1.9.43 2.85.43 1.39.09 2.86-.34 3.98-1.21.95-.95 1.47-2.24 1.38-3.53.09-.7-.17-1.47-.6-2.08-.52-.6-1.04-1.03-1.73-1.38-.78-.43-1.56-.69-2.42-.95-.48-.13-.93-.28-1.39-.43-.45-.15-.9-.3-1.38-.43-.95-.26-1.9-.6-2.77-1.03-.86-.44-1.73-.95-2.42-1.64a6.27 6.27 0 01-1.73-2.51c-.43-1.12-.6-2.41-.6-3.71 0-2.5 1.04-4.74 2.77-6.47.95-.86 2.07-1.64 3.28-2.07 1.47-.52 3.03-.78 4.58-.78 1.82-.08 3.55.26 5.28.87zm-180.98 9.14c-.78-1.9-1.9-3.71-3.37-5.09-1.47-1.47-3.29-2.59-5.19-3.36-2.16-.87-4.41-1.21-6.74-1.21H1998v32.44h12.37c2.33 0 4.58-.34 6.74-1.2 3.89-1.47 7-4.58 8.56-8.46 1.56-4.23 1.56-8.89 0-13.12zm-5.71 11.39c-.43 1.3-1.12 2.59-2.07 3.63-.87.95-1.99 1.72-3.2 2.24-1.39.52-2.86.78-4.32.78h-6.32v-22.87h6.32c1.46 0 2.93.26 4.32.78 1.21.52 2.33 1.29 3.2 2.24a9.428 9.428 0 012.07 3.63c.95 3.1.95 6.38 0 9.57zm12.8-8.63c.95-1.03 2.16-1.81 3.46-2.41 1.47-.69 3.03-.95 4.5-.95 1.38 0 2.76.26 4.06.69 1.21.43 2.33 1.12 3.2 1.98.95.95 1.64 2.08 2.07 3.28.52 1.38.78 2.85.78 4.4.09.61 0 1.21-.26 1.73-.26.35-.6.52-1.03.43h-14.01c0 1.12.26 2.16.6 3.11.26.78.69 1.55 1.3 2.16.52.6 1.21 1.03 1.9 1.29.78.26 1.56.43 2.42.43.78 0 1.56-.08 2.34-.34.6-.18 1.21-.43 1.73-.69l.78-.42c.19-.1.36-.2.51-.27.26-.26.7-.35 1.04-.35.43 0 .78.17 1.04.52l1.56 1.98c-.61.69-1.3 1.3-2.08 1.82-.78.51-1.56.94-2.42 1.2-.78.26-1.64.52-2.51.61l-.21.02c-.78.08-1.5.15-2.3.15-1.55 0-3.02-.26-4.49-.78a9.803 9.803 0 01-3.63-2.33c-1.04-1.12-1.91-2.41-2.42-3.88-.61-1.73-.87-3.54-.87-5.35 0-1.47.26-3.02.78-4.4.43-1.38 1.21-2.59 2.16-3.63zm10.38 1.04c.6.26 1.12.6 1.55 1.12.44.52.69 1.04.95 1.64.18.69.35 1.38.35 2.07h-10.46c.17-1.46.78-2.84 1.73-3.88 1.03-.95 2.42-1.47 3.8-1.38.61 0 1.38.17 2.08.43zm22.91 18.98h-5.01l-9.17-23.04h4.58c.35-.08.69.09 1.04.26.26.18.43.43.52.78l4.41 12.25c.26.69.43 1.38.6 2.07l.52 2.08c.06-.23.11-.46.16-.69.09-.46.19-.93.36-1.39.13-.34.24-.69.35-1.03.11-.35.21-.69.34-1.04l4.59-12.25c.08-.35.26-.6.52-.78.25-.17.6-.26.95-.26h4.41l-9.17 23.04zm6.23-32.44v4.92h9.77v27.52h6.05v-27.44h9.86v-5h-25.68zm25.33 12.34c.95-1.04 2.16-1.81 3.46-2.42 1.47-.6 3.11-.86 4.76-1.03 1.38 0 2.76.26 4.06.69 1.21.51 2.33 1.21 3.2 2.07.95.95 1.64 2.07 2.07 3.28.52 1.38.78 2.85.78 4.4.09.6 0 1.21-.26 1.72-.26.35-.6.52-1.03.44h-14.27c0 1.12.26 2.15.6 3.1.26.78.7 1.56 1.3 2.16.52.6 1.21 1.04 1.9 1.29.78.26 1.56.44 2.42.44.78 0 1.56-.09 2.34-.35.6-.17 1.21-.43 1.73-.69.28-.14.54-.29.78-.41.19-.11.36-.2.52-.28.25-.26.69-.35 1.03-.35.44 0 .78.18 1.04.52l1.56 1.99c-.61.69-1.3 1.29-2.08 1.81s-1.55.95-2.42 1.21c-.78.26-1.64.52-2.51.6l-.21.02c-.78.08-1.5.15-2.29.15-1.56 0-3.03-.25-4.5-.77-1.38-.52-2.59-1.3-3.63-2.33-1.04-1.12-1.9-2.42-2.42-3.89-.61-1.72-.87-3.53-.87-5.35 0-1.46.26-3.02.78-4.4.43-1.38 1.21-2.59 2.16-3.62zm10.38 1.12c.6.26 1.12.6 1.55 1.12.44.52.7 1.04.96 1.64.17.69.34 1.38.25 2.07h-10.46c.18-1.46.78-2.84 1.73-3.88 1.04-.95 2.42-1.47 3.81-1.38.77 0 1.47.17 2.16.43zm29.48 4.49v14.5l-2.5.17c-.44 0-.87-.09-1.21-.26-.35-.26-.61-.52-.7-.95l-.51-1.64c-.61.52-1.13.95-1.73 1.38a7.3 7.3 0 01-1.73 1.04c-.61.26-1.21.51-1.91.6-.69.09-1.47.17-2.24.17-.87 0-1.82-.17-2.68-.43-.78-.26-1.56-.69-2.17-1.21-.6-.6-1.03-1.2-1.38-1.98-.35-.86-.52-1.73-.52-2.68 0-.95.26-1.81.69-2.59.52-.94 1.3-1.81 2.25-2.33 1.3-.77 2.77-1.38 4.24-1.72 2.16-.52 4.32-.78 6.57-.78v-1.38c.17-1.29-.17-2.5-.95-3.45-.78-.78-1.82-1.21-2.85-1.12-.78 0-1.56.08-2.25.34-.52.18-1.04.43-1.56.69-.43.26-.86.52-1.21.69-.35.26-.78.35-1.21.35-.35.09-.69-.09-.95-.26s-.52-.43-.69-.69l-.95-1.81c2.59-2.42 6.05-3.71 9.59-3.63 1.21 0 2.51.26 3.64.69 1.03.35 1.9 1.04 2.68 1.82.69.86 1.29 1.81 1.64 2.84.43 1.21.6 2.42.6 3.63zm-13.05 10.44c-.95-.86-1.13-2.33-.44-3.45.35-.52.87-.87 1.39-1.12.86-.35 1.73-.61 2.59-.78 1.39-.26 2.68-.35 4.07-.43v3.88c-.7.78-1.56 1.38-2.42 1.9-.96.43-1.91.6-2.94.6-.78 0-1.56-.17-2.25-.6zm23.86-12.77v16.65h-5.45v-23.04h3.38c.6 0 1.21.43 1.38 1.04l.35 1.72c.43-.43.86-.86 1.29-1.2.44-.35.87-.7 1.39-.95.52-.26 1.03-.44 1.64-.61.61-.17 1.3-.26 1.9-.26 1.3 0 2.51.43 3.55 1.21.95.78 1.64 1.9 2.07 3.11.35-.78.87-1.38 1.39-1.99.51-.51 1.12-.95 1.81-1.29.69-.35 1.39-.61 2.08-.78.69-.17 1.38-.26 2.16-.26 1.12 0 2.25.18 3.37.61.95.34 1.82.95 2.51 1.72.69.78 1.21 1.73 1.56 2.76.34 1.21.51 2.42.51 3.72v14.67h-5.53v-14.67c.09-1.13-.26-2.33-.95-3.28-.78-.78-1.82-1.21-2.85-1.13-.52 0-1.04.09-1.56.26-.52.18-.95.52-1.3.87-.34.43-.69.86-.86 1.38-.26.6-.35 1.29-.35 1.9v14.67h-5.53v-14.67c.08-1.21-.26-2.42-.95-3.37-.78-.69-1.73-1.12-2.77-1.04-.78 0-1.56.18-2.25.61-.78.43-1.47 1.03-1.99 1.64zm31.56 15.1c.18.43.44.78.7 1.03.34.35.69.52 1.03.69.44.18.87.26 1.39.26.86 0 1.81-.34 2.42-.95 1.29-1.29 1.29-3.45 0-4.74-.35-.35-.69-.52-1.04-.69-.43-.17-.86-.26-1.3-.26-.86 0-1.81.34-2.42.95-.34.34-.52.69-.69 1.03-.43.87-.43 1.82-.09 2.68zm40.99 9.23v-9.4c.69.69 1.56 1.29 2.42 1.64 1.04.43 2.16.6 3.29.6 1.38 0 2.85-.26 4.06-.95 1.21-.6 2.25-1.47 3.11-2.5.87-1.12 1.56-2.42 1.99-3.8.43-1.55.69-3.19.69-4.74 0-1.73-.17-3.37-.6-5.01-.35-1.29-.95-2.59-1.73-3.71a7.34 7.34 0 00-2.68-2.24c-1.04-.52-2.25-.78-3.46-.78-1.47 0-2.94.34-4.24.95-1.21.69-2.33 1.55-3.2 2.59l-.43-2.16c-.17-.6-.78-1.04-1.38-1.04h-3.37v30.55h5.53zm8.73-24.85c-.34-.6-.86-1.04-1.47-1.29-.69-.35-1.29-.44-1.99-.44a5.09 5.09 0 00-2.94.69c-.86.52-1.64 1.3-2.24 2.08v10.35c.51.69 1.29 1.3 2.07 1.64.78.26 1.56.43 2.42.43.78.09 1.56-.08 2.25-.43.69-.34 1.3-.86 1.73-1.47.52-.69.95-1.55 1.12-2.41.26-1.12.35-2.25.35-3.45 0-1.21-.09-2.33-.35-3.46-.17-.77-.51-1.55-.95-2.24zm28.88 17.35v-14.5c0-1.21-.17-2.42-.6-3.63-.35-1.03-.95-1.98-1.64-2.84-.78-.78-1.65-1.47-2.69-1.82-1.12-.43-2.42-.69-3.63-.69-3.54-.08-7 1.21-9.6 3.63l.96 1.81c.17.26.43.52.69.69.26.17.6.35.95.26.43 0 .86-.09 1.21-.35.35-.17.78-.43 1.21-.69.52-.26 1.04-.51 1.56-.69.69-.26 1.47-.34 2.24-.34 1.04-.09 2.08.34 2.86 1.12.78.95 1.12 2.16.95 3.45v1.38c-2.25 0-4.41.26-6.57.78-1.47.34-2.94.95-4.24 1.72-.95.52-1.73 1.39-2.25 2.33-.43.78-.69 1.64-.69 2.59s.17 1.82.52 2.68c.35.78.78 1.38 1.38 1.98.61.52 1.39.95 2.16 1.21.87.26 1.82.43 2.69.43.77 0 1.55-.08 2.24-.17.7-.09 1.3-.34 1.91-.6a7.3 7.3 0 001.73-1.04c.6-.43 1.12-.86 1.72-1.38l.52 1.64c.09.43.35.69.7.95.34.17.77.26 1.21.26l2.5-.17zm-13.49-7.51c-.69 1.12-.51 2.59.44 3.45.69.43 1.47.6 2.24.6 1.04 0 1.99-.17 2.94-.6.87-.52 1.73-1.12 2.43-1.9v-3.88c-1.39.08-2.68.17-4.07.43-.86.17-1.73.43-2.59.78-.52.25-1.04.6-1.39 1.12zm36.67-12.69a11.913 11.913 0 00-3.46-2.41c-1.47-.61-2.94-.87-4.5-.87-1.64 0-3.28.26-4.84.87-1.3.51-2.51 1.38-3.55 2.5-.95 1.12-1.73 2.33-2.16 3.71-.52 1.55-.78 3.11-.69 4.66 0 1.72.26 3.45.78 5 .52 1.38 1.21 2.68 2.25 3.71a9.367 9.367 0 003.28 2.33c1.3.52 2.68.78 4.07.78.78 0 1.64-.08 2.42-.17.78-.09 1.64-.35 2.42-.61.78-.25 1.56-.69 2.25-1.2.78-.52 1.38-1.13 1.99-1.82l-1.56-1.98c-.26-.35-.61-.52-1.04-.52-.34 0-.69.09-.95.35-.16.16-.36.29-.56.42-.13.08-.26.17-.39.27-.43.26-.86.52-1.38.69-.7.26-1.39.34-2.17.34-.86 0-1.64-.17-2.42-.51-.69-.35-1.29-.87-1.81-1.47-.52-.69-.95-1.56-1.13-2.42-.26-1.03-.43-2.16-.43-3.28 0-1.03.09-2.15.35-3.19.17-.86.6-1.64 1.12-2.42.52-.69 1.13-1.2 1.82-1.55.78-.34 1.64-.52 2.59-.52.69 0 1.3.09 1.9.26l.24.09c.38.15.78.3 1.06.52.22.16.43.29.63.4.12.07.23.14.32.2.26.17.52.26.87.26.26 0 .52 0 .69-.17l.52-.52 1.47-1.73zm5.01.09c.95-1.04 2.16-1.81 3.46-2.42 1.47-.6 3.11-.86 4.76-1.03 1.38 0 2.76.26 4.06.69 1.21.51 2.34 1.21 3.2 2.07.95.95 1.64 2.07 2.08 3.28.51 1.38.77 2.85.77 4.4.09.6 0 1.21-.26 1.72-.26.35-.6.52-1.03.44h-14.27c0 1.12.26 2.15.6 3.1.26.78.7 1.56 1.3 2.16.52.6 1.21 1.04 1.9 1.29.78.26 1.56.44 2.42.44.78 0 1.56-.09 2.34-.35.6-.17 1.21-.43 1.73-.69.28-.14.54-.28.78-.41.19-.11.36-.2.52-.28.26-.26.69-.35 1.03-.35.44 0 .78.18 1.04.52l1.56 1.99c-.61.69-1.3 1.29-2.08 1.81s-1.55.95-2.42 1.21c-.78.26-1.64.52-2.51.6l-.21.02c-.78.08-1.5.15-2.29.15-1.56 0-3.03-.25-4.5-.77-1.38-.52-2.59-1.3-3.63-2.33-1.04-1.12-1.9-2.42-2.42-3.89-.61-1.72-.87-3.53-.87-5.35 0-1.46.26-3.02.78-4.4.43-1.38 1.21-2.59 2.16-3.62zm10.38 1.12c.6.26 1.12.6 1.55 1.12.44.52.7 1.04.96 1.64.17.69.34 1.38.26 2.07h-10.47c.18-1.46.78-2.84 1.73-3.88 1.04-.95 2.42-1.47 3.81-1.38.77 0 1.47.17 2.16.43zm25.87-2.08h1.12v-8.8h-1.72l-2.57 6.4-2.56-6.4h-1.73v8.8h1.12v-7.28l3.01 7.28h.32l3.01-7.28v7.28zm-11.39-7.76h2.49v-1.04h-6.09v1.04h2.48v7.76h1.12v-7.76z" fill="#fff"></path>
  <path opacity=".065" d="M779.584 108L2190 737.207 180 1068l599.584-960z" fill="#fff"></path>
  <g filter="url(#filter0_d_204_24177)">
    <circle cx="1188" cy="621" r="480" fill="#1377FD"></circle>
  </g>
  <g fill-rule="evenodd" clip-rule="evenodd" fill="#fff">
    <path d="M1188 174c-246.872 0-447 200.128-447 446.999C741 867.871 941.128 1068 1188 1068c246.87 0 447-200.129 447-447.001C1635 374.128 1434.87 174 1188 174zm0 26.82c56.74 0 111.76 11.106 163.54 33.009a419.939 419.939 0 0171.37 38.734 423.618 423.618 0 0162.2 51.324 423.787 423.787 0 0151.33 62.204 420.596 420.596 0 0138.73 71.364c21.91 51.784 33.01 106.809 33.01 163.544 0 56.737-11.1 111.76-33.01 163.544a420.558 420.558 0 01-38.73 71.364 423.683 423.683 0 01-51.33 62.204 423.491 423.491 0 01-62.2 51.324 419.804 419.804 0 01-71.37 38.735c-51.78 21.9-106.8 33.01-163.54 33.01-56.74 0-111.76-11.11-163.54-33.01a420.022 420.022 0 01-71.369-38.735 423.307 423.307 0 01-62.203-51.324 423.262 423.262 0 01-51.324-62.204 420.161 420.161 0 01-38.735-71.364c-21.903-51.784-33.009-106.807-33.009-163.544 0-56.735 11.106-111.76 33.009-163.544a420.2 420.2 0 0138.735-71.364 423.367 423.367 0 0151.324-62.204 423.433 423.433 0 0162.203-51.324 420.158 420.158 0 0171.369-38.734c51.78-21.903 106.8-33.009 163.54-33.009z"></path>
    <path d="M1514.44 442.528c1.6 11.846 2.5 24.557 2.5 38.249 0 37.734-7.07 80.17-28.29 133.237l-113.62 328.502C1485.62 878.039 1560 758.222 1560 620.986c0-64.676-16.53-125.478-45.56-178.458zm-319.9 210.996L1082.9 977.842c33.34 9.809 68.59 15.157 105.1 15.157 43.32 0 84.88-7.476 123.54-21.091-1-1.591-1.91-3.281-2.67-5.126l-114.33-313.258zm244.59-51.299c0-45.988-16.52-77.818-30.67-102.589-18.85-30.657-36.54-56.594-36.54-87.249 0-34.19 25.93-66.02 62.47-66.02 1.65 0 3.22.198 4.82.3C1373.02 286.025 1284.85 249 1188 249c-129.97 0-244.298 66.686-310.816 167.664 8.734.277 16.964.451 23.941.451 38.901 0 99.145-4.728 99.145-4.728 20.04-1.175 22.41 28.286 2.38 30.655 0 0-20.158 2.361-42.571 3.534l135.461 402.945 81.42-244.15L1119 446.576c-20.04-1.173-39.01-3.534-39.01-3.534-20.05-1.184-17.71-31.83 2.36-30.655 0 0 61.42 4.728 97.97 4.728 38.9 0 99.16-4.728 99.16-4.728 20.05-1.175 22.41 28.286 2.37 30.655 0 0-20.18 2.361-42.58 3.534l134.44 399.875 38.38-121.601c17.04-53.143 27.04-90.795 27.04-122.625zM816 620.987c0 147.238 85.561 274.493 209.66 334.785L848.212 469.597C827.571 515.857 816 567.054 816 620.987z"></path>
  </g>
  <defs>
    <filter id="filter0_d_204_24177" x="678" y="141" width="1020" height="1026" filterUnits="userSpaceOnUse" color-interpolation-filters="sRGB">
      <feFlood flood-opacity="0" result="BackgroundImageFix"></feFlood>
      <feColorMatrix in="SourceAlpha" values="0 0 0 0 0 0 0 0 0 0 0 0 0 0 0 0 0 0 127 0" result="hardAlpha"></feColorMatrix>
      <feOffset dy="12"></feOffset>
      <feGaussianBlur stdDeviation="5"></feGaussianBlur>
      <feColorMatrix values="0 0 0 0 0.484181 0 0 0 0 0.069873 0 0 0 0 0.538779 0 0 0 0.212686 0"></feColorMatrix>
      <feBlend in2="BackgroundImageFix" result="effect1_dropShadow_204_24177"></feBlend>
      <feBlend in="SourceGraphic" in2="effect1_dropShadow_204_24177" result="shape"></feBlend>
    </filter>
  </defs>
</svg>
