<?xml version="1.0" encoding="UTF-8"?>
<svg xmlns="http://www.w3.org/2000/svg" width="51" height="51" viewBox="0 0 51 51" fill="none">
  <circle cx="25.5" cy="25.5" r="24.5" fill="#fff" stroke="#1377FD" stroke-width="2"></circle>
  <g clip-path="url(#clip0_2902_74539)">
    <path fillRule="evenodd" clipRule="evenodd" d="M28.579 15.382a6.01 6.01 0 001.043-2.06A6.185 6.185 0 0029.825 11c-1.525.192-2.923.987-3.908 2.222a5.562 5.562 0 00-1.077 1.994 5.743 5.743 0 00-.207 2.28 4.875 4.875 0 002.206-.58 5.128 5.128 0 001.74-1.534zM36 30.812a19.89 19.89 0 01-1.665 3.252c-1.078 1.73-2.596 3.898-4.488 3.913-1.672 0-2.104-1.153-4.4-1.138-2.295.016-2.75 1.153-4.4 1.138-1.884 0-3.329-1.968-4.4-3.698-3.036-4.828-3.38-10.517-1.488-13.546a6.841 6.841 0 012.28-2.413c.937-.595 2-.939 3.095-1 1.995 0 3.256 1.16 4.906 1.16s2.581-1.16 4.891-1.16a6.28 6.28 0 012.762.785 6.606 6.606 0 012.174 1.951 5.835 5.835 0 00-2.224 2.371 6.199 6.199 0 00-.666 3.251 6.137 6.137 0 001.1 3.119A5.723 5.723 0 0036 30.812z" fill="#1377FD"></path>
  </g>
  <defs>
    <clipPath id="clip0_2902_74539">
      <path fill="#fff" transform="translate(14 11)" d="M0 0h22v27H0z"></path>
    </clipPath>
  </defs>
</svg>
