<?xml version="1.0" encoding="UTF-8"?>
<svg xmlns="http://www.w3.org/2000/svg" width="51" height="51" viewBox="0 0 51 51" fill="none">
  <circle cx="25.5" cy="25.5" r="24.5" fill="#fff" stroke="#1377FD" stroke-width="2"></circle>
  <g clip-path="url(#clip0_633_36389)" fill="#1377FD">
    <path d="M24.58 13.877h-9.701c-.963 0-1.777.853-1.777 1.86v19.618c0 .93.814 1.784 1.777 1.784h9.7c.964 0 1.778-.853 1.778-1.861v-19.54c-.074-1.008-.814-1.861-1.777-1.861zm.889 21.4c0 .543-.445 1.009-.963 1.009h-9.627c-.518 0-.963-.466-.963-1.008v-19.54c0-.543.444-1.008.963-1.008H17.1v.465c0 .31.222.62.592.62h4.147c.296 0 .592-.31.592-.62v-.465h2.222c.518 0 .963.465.963 1.008l-.148 19.54z"></path>
    <path d="M21.692 35.355h-3.925c-.074 0-.148.078-.148.155 0 .078.074.155.148.155h3.925c.074 0 .148-.077.148-.155 0-.077-.074-.155-.148-.155z"></path>
    <path fillRule="evenodd" clipRule="evenodd" d="M15.62 17.366c.444 0 .74.31.74.776 0 .465-.296.775-.74.775-.445 0-.741-.31-.741-.776a.76.76 0 01.74-.775zm0 3.102c.444 0 .74.31.74.775s-.296.776-.74.776c-.445 0-.741-.31-.741-.776a.76.76 0 01.74-.775zm0 3.102c.444 0 .74.31.74.775s-.296.775-.74.775c-.445 0-.741-.31-.741-.775a.76.76 0 01.74-.776zm0 3.1c.444 0 .74.311.74.776s-.296.776-.74.776c-.445 0-.741-.31-.741-.776a.76.76 0 01.74-.775zm0 3.102c.444 0 .74.31.74.776 0 .465-.296.775-.74.775-.445 0-.741-.31-.741-.775a.76.76 0 01.74-.776zm2.74-12.406c.444 0 .74.31.74.776 0 .465-.296.775-.74.775-.445 0-.741-.31-.741-.776a.76.76 0 01.74-.775zm0 3.102c.444 0 .74.31.74.775s-.296.776-.74.776c-.445 0-.741-.31-.741-.776a.76.76 0 01.74-.775zm0 3.102c.444 0 .74.31.74.775s-.296.775-.74.775c-.445 0-.741-.31-.741-.775a.76.76 0 01.74-.776zm0 3.1c.444 0 .74.311.74.776s-.296.776-.74.776c-.445 0-.741-.31-.741-.776a.76.76 0 01.74-.775zm0 3.102c.444 0 .74.31.74.776 0 .465-.296.775-.74.775-.445 0-.741-.31-.741-.775a.76.76 0 01.74-.776z" stroke="#fff"></path>
  </g>
  <path fill="#fff" d="M20.855 10.775h18.609V40.24H20.855z"></path>
  <g clip-path="url(#clip1_633_36389)" fill="#1377FD">
    <path d="M35.81 11.55H23.826c-1.189 0-2.195 1.024-2.195 2.234v23.54c0 1.117 1.006 2.14 2.195 2.14H35.81c1.19 0 2.195-1.023 2.195-2.232V13.784c-.091-1.21-1.006-2.233-2.195-2.233zm1.098 25.682c0 .65-.55 1.21-1.19 1.21H23.826c-.64 0-1.189-.56-1.189-1.21V13.784c0-.651.549-1.21 1.19-1.21h2.744v.559c0 .372.274.744.731.744h5.123c.366 0 .732-.372.732-.744v-.559h2.745c.64 0 1.189.559 1.189 1.21l-.183 23.448z"></path>
    <path d="M32.242 37.325h-4.848c-.091 0-.183.093-.183.186s.091.186.183.186h4.848c.092 0 .183-.093.183-.186s-.091-.186-.183-.186z"></path>
    <path fillRule="evenodd" clipRule="evenodd" d="M24.741 15.738c.549 0 .915.372.915.93 0 .559-.366.93-.915.93s-.915-.371-.915-.93c0-.558.458-.93.915-.93zm0 3.722c.549 0 .915.372.915.93s-.366.93-.915.93-.915-.372-.915-.93.458-.93.915-.93zm0 3.722c.549 0 .915.372.915.93s-.366.93-.915.93-.915-.372-.915-.93.458-.93.915-.93zm0 3.721c.549 0 .915.373.915.93 0 .56-.366.931-.915.931s-.915-.372-.915-.93.458-.93.915-.93zm0 3.722c.549 0 .915.372.915.93 0 .559-.366.931-.915.931s-.915-.372-.915-.93c0-.559.458-.93.915-.93zm3.385-14.887c.549 0 .915.372.915.93 0 .559-.366.93-.915.93s-.915-.371-.915-.93c0-.558.458-.93.915-.93zm0 3.722c.549 0 .915.372.915.93s-.366.93-.915.93-.915-.372-.915-.93.458-.93.915-.93zm0 3.722c.549 0 .915.372.915.93s-.366.93-.915.93-.915-.372-.915-.93.458-.93.915-.93zm0 3.721c.549 0 .915.373.915.93 0 .56-.366.931-.915.931s-.915-.372-.915-.93.458-.93.915-.93zm0 3.722c.549 0 .915.372.915.93 0 .559-.366.931-.915.931s-.915-.372-.915-.93c0-.559.458-.93.915-.93zm3.384-14.887c.55 0 .915.372.915.93 0 .559-.366.93-.914.93-.55 0-.915-.371-.915-.93 0-.558.457-.93.915-.93zm0 3.722c.55 0 .915.372.915.93s-.366.93-.914.93c-.55 0-.915-.372-.915-.93s.457-.93.915-.93zm0 3.722c.55 0 .915.372.915.93s-.366.93-.914.93c-.55 0-.915-.372-.915-.93s.457-.93.915-.93zm0 3.721c.55 0 .915.373.915.93 0 .56-.366.931-.914.931-.55 0-.915-.372-.915-.93s.457-.93.915-.93zm0 3.722c.55 0 .915.372.915.93 0 .559-.366.931-.914.931-.55 0-.915-.372-.915-.93 0-.559.457-.93.915-.93zm3.385-14.887c.55 0 .915.372.915.93 0 .559-.366.93-.915.93s-.915-.371-.915-.93c0-.558.458-.93.915-.93zm0 3.722c.55 0 .915.372.915.93s-.366.93-.915.93-.915-.372-.915-.93.458-.93.915-.93zm0 3.722c.55 0 .915.372.915.93s-.366.93-.915.93-.915-.372-.915-.93.458-.93.915-.93zm0 3.721c.55 0 .915.373.915.93 0 .56-.366.931-.915.931s-.915-.372-.915-.93.458-.93.915-.93zm0 3.722c.55 0 .915.372.915.93 0 .559-.366.931-.915.931s-.915-.372-.915-.93c0-.559.458-.93.915-.93z" stroke="#fff"></path>
  </g>
  <defs>
    <clipPath id="clip0_633_36389">
      <path fill="#fff" transform="translate(13.102 13.877)" d="M0 0h13.182v23.262H0z"></path>
    </clipPath>
    <clipPath id="clip1_633_36389">
      <path fill="#fff" transform="translate(21.63 11.55)" d="M0 0h16.283v27.914H0z"></path>
    </clipPath>
  </defs>
</svg>
