<?xml version="1.0" encoding="UTF-8"?>
<svg xmlns="http://www.w3.org/2000/svg" width="51" height="51" viewBox="0 0 51 51" fill="none">
  <circle cx="25.5" cy="25.5" r="24.5" fill="white" stroke="#0077FF" stroke-width="2"></circle>
  <path d="M14.4068 19.136C12.8768 19.136 11.3235 19.7326 11.0647 20.0588C10.9972 20.1938 10.8407 21.2849 11.2119 21.2849C11.3357 21.2849 11.3925 21.3064 11.7525 21.1377C13.1025 20.6089 13.9578 20.6213 14.0816 20.6213C15.6003 20.4751 16.4776 21.5106 16.3426 22.8493V23.636C15.0601 23.3322 14.3273 23.3218 13.9673 23.3218C12.0998 23.2093 10.3748 24.1939 10.3748 26.3584C10.3748 28.7321 12.4935 29.2398 13.3147 29.206C14.541 29.2173 15.7113 28.666 16.4876 27.7097C17.1063 29.0935 17.5002 29.0017 17.5115 29.0017C17.624 29.0017 17.7137 28.9569 17.8037 28.9006L18.4453 28.4502C18.5578 28.3827 18.6472 28.271 18.6585 28.136C18.6472 27.8097 18.062 27.3035 18.107 26.1672V22.6582C18.1745 21.6907 17.8608 20.7439 17.2083 20.0127C16.432 19.3602 15.408 19.046 14.4068 19.136ZM36.2014 19.136C33.9514 19.136 32.6587 20.5417 32.6924 21.9704C32.6924 23.9279 34.6713 24.5485 34.8963 24.616C36.7975 25.2122 37.057 25.2338 37.5857 25.6838C38.0357 26.1451 37.9792 27.0457 37.3155 27.4394C37.1242 27.5519 36.3021 28.0461 34.4458 27.6636C33.8271 27.5398 33.5019 27.3939 32.9956 27.1802C32.8606 27.1352 32.5452 27.0561 32.5452 27.4724V28.0239C32.5452 28.2827 32.7023 28.5179 32.9385 28.6304C34.1198 29.2266 35.5373 29.25 35.8411 29.25C35.8861 29.25 38.4729 29.2514 39.3391 27.5054C39.518 27.1454 39.9813 25.831 39.115 24.706C38.395 23.8623 37.7762 23.7722 35.9312 23.2097C35.7737 23.1647 34.4126 22.8146 34.4239 21.8584C34.3564 20.6321 36.0219 20.5659 36.3706 20.5884C37.7769 20.5659 38.4732 21.0929 38.8557 21.1267C39.0245 21.1267 39.104 21.0265 39.104 20.8015V20.2829C39.1153 20.1592 39.0705 20.037 39.003 19.9358C38.553 19.3508 36.8314 19.136 36.2014 19.136ZM19.1243 19.4172C19.0005 19.4397 18.9106 19.5637 18.9331 19.6875C18.9556 19.8337 18.978 19.9807 19.0342 20.1269L21.5545 28.4392C21.6107 28.7092 21.7891 29.0027 22.1829 28.9577H23.1057C23.6682 29.014 23.7471 28.4735 23.7583 28.4172L25.4129 21.487L27.0894 28.4282C27.1006 28.4845 27.1797 29.025 27.731 28.9687H28.6648C29.0698 29.0137 29.2612 28.7202 29.3174 28.4502C32.1524 19.3264 31.9602 19.9467 31.9827 19.8567C32.0277 19.3842 31.7574 19.417 31.7124 19.4282H30.7105C30.2042 19.372 30.1046 19.8343 30.0821 19.9468L28.2144 27.1582L26.5269 19.9468C26.4481 19.3955 25.9978 19.417 25.8853 19.4282H25.0196C24.5246 19.3832 24.4007 19.778 24.367 19.9468L22.6905 27.0571L20.8909 19.9468C20.8459 19.7218 20.699 19.3722 20.2603 19.4172H19.1243ZM14.3386 24.6269C15.1486 24.6382 15.8478 24.7605 16.3316 24.873C16.3316 25.4355 16.352 25.7511 16.2283 26.2573C16.0708 26.7973 15.3747 27.7773 13.7322 27.7998C12.7872 27.8448 12.1686 27.1011 12.2249 26.2573C12.1686 24.9073 13.5624 24.5707 14.3386 24.6269ZM39.6709 31.5022C38.6209 31.5168 37.3814 31.752 36.4409 32.4118C36.1507 32.6132 36.2016 32.8928 36.5244 32.8557C37.5819 32.7286 39.9357 32.4432 40.3565 32.9809C40.7783 33.5187 39.89 35.7372 39.4973 36.7295C39.3758 37.0254 39.6327 37.1478 39.9038 36.9228C41.6633 35.4491 42.1205 32.3596 41.7605 31.9153C41.58 31.6931 40.721 31.4876 39.6709 31.5022ZM8.36868 32.6272C8.12336 32.6609 8.01769 32.9719 8.27419 33.2182C12.6808 37.3515 18.5036 39.375 24.969 39.375C29.5804 39.375 34.9338 37.8704 38.6294 35.0354C39.2403 34.564 38.7199 33.8577 38.0933 34.1367C33.9499 35.9648 29.4497 36.8459 25.3535 36.8459C19.283 36.8459 13.4064 35.5786 8.65212 32.6997C8.54806 32.6367 8.45045 32.6159 8.36868 32.6272Z" fill="#0077FF"></path>
</svg>
