<?xml version="1.0" encoding="UTF-8"?>
<svg xmlns="http://www.w3.org/2000/svg" width="51" height="51" viewBox="0 0 51 51" fill="none">
  <circle cx="25.5" cy="25.5" r="24.5" fill="white" stroke="#0077FF" stroke-width="2"></circle>
  <path d="M35.8128 15.8673C35.735 13.7774 33.9509 13.339 33.9509 13.339C33.9509 13.339 27.7669 12.3796 25.0579 12.0313C22.348 11.6812 22.5167 14.385 22.5167 14.385C22.5167 14.385 23.132 34.0913 23.1959 36.5322C23.2685 39.4403 25.905 38.9722 25.905 38.9722L35.2219 37.3134C36.9161 36.9643 37 34.7861 37 34.7861C37 34.7861 35.8995 18.1489 35.8128 15.8673C35.8994 18.1489 35.735 13.7774 35.8128 15.8673ZM33.7288 32.6072L26.801 33.346C26.801 33.346 24.7834 33.6628 24.738 31.1391C24.7048 29.2797 24.3053 18.6286 24.3053 18.6286C24.3053 18.6286 24.1662 16.6755 26.2424 16.8357C28.3614 16.9977 33.4387 17.3955 33.4387 17.3955C33.4387 17.3955 34.798 17.7286 34.8574 19.3235C34.9212 21.0569 35.5078 30.6837 35.5078 30.6837C35.5078 30.6837 35.6607 32.266 33.7288 32.6072ZM16.7691 29.7359L15.4892 29.8296C15.4892 29.8296 14.198 30.0096 14.1684 28.5551C14.1474 27.4832 14.018 21.3989 14.018 21.3989C14.018 21.3989 13.9288 20.273 15.2567 20.3648C15.5933 20.3873 16.0705 20.4188 16.5976 20.4512C16.5793 19.4422 16.5637 18.5601 16.5514 17.8888C15.8206 17.8321 15.1369 17.7708 14.6483 17.7178C12.8938 17.5189 13.0013 19.0354 13.0013 19.0354C13.0013 19.0354 13.213 30.1941 13.2523 31.5622C13.3005 33.1931 15.0059 32.9284 15.0059 32.9284L16.8268 32.7278C16.8111 31.9186 16.79 30.8872 16.7691 29.736L16.7691 29.7359ZM21.8594 19.5934C21.8543 19.4618 21.8329 19.3315 21.7955 19.2055C21.2352 19.1587 19.8286 18.7816 19.3776 19.2722C19.0917 19.5809 19.2097 20.2316 19.2167 20.6016L20.2369 20.6608C20.2369 20.6608 21.1066 20.8526 21.1443 21.7706C21.1845 22.7715 21.1792 28.3778 21.1792 28.3778C21.1792 28.3778 21.2771 29.2922 20.0428 29.4858L19.395 29.5354C19.3985 29.7342 19.402 29.8944 19.4037 30.0132C19.4309 31.6118 21.0822 31.0996 22.1181 30.996C22.2073 29.3004 22.049 27.5534 22.0124 25.8569C21.9677 23.7697 21.9511 21.6789 21.8594 19.5934C21.9152 20.8697 21.8532 19.4512 21.8594 19.5934Z" fill="#0077FF"></path>
  <path d="M22.1128 31.5339L20.2825 31.7139C20.2825 31.7139 18.5757 31.9636 18.5389 29.96C18.5123 28.4813 18.3408 20.0999 18.3408 20.0999C18.3408 20.0999 18.2225 18.5505 19.9739 18.6745C20.424 18.706 21.043 18.7575 21.7168 18.8126C21.6662 17.2046 21.6258 15.9363 21.6053 15.283C20.6829 15.1913 19.8136 15.0988 19.1707 15.0237C16.856 14.7562 17.0018 16.8411 17.0018 16.8411C17.0018 16.8411 17.277 32.2151 17.331 34.0938C17.3935 36.3394 19.6456 35.9787 19.6456 35.9787L22.2371 35.6406C22.2114 34.7664 22.1677 33.2981 22.1128 31.5338V31.5339ZM25.8368 17.8098C25.5128 17.7836 25.1192 17.8055 24.8792 18.0631C24.6254 18.3339 24.6212 18.7182 24.6358 19.0658C25.5539 19.1471 26.22 19.2072 26.22 19.2072C26.22 19.2072 27.367 19.4702 27.4193 20.7366C27.4724 22.1141 27.8008 29.5984 27.8008 29.5984C27.8008 29.5984 27.9294 30.857 26.2988 31.1286L25.0644 31.2491C25.2282 33.2152 27.7236 32.3855 29 32.251C28.8689 29.2945 28.4626 20.1506 28.3709 18.0037C27.5264 17.9362 26.6817 17.8716 25.8368 17.8098C26.4789 17.856 25.7734 17.8046 25.8368 17.8098Z" fill="#0077FF"></path>
</svg>
