<?xml version="1.0" encoding="UTF-8"?>
<svg xmlns="http://www.w3.org/2000/svg" width="51" height="51" viewBox="0 0 51 51" fill="none">
  <circle cx="25.5" cy="25.5" r="24.5" fill="white" stroke="#0077FF" stroke-width="2"></circle>
  <path d="M17.1 40L21.6 36L17.1 32V40ZM33.3 23.8C32.5 23 31 22 28.5 22C25.8 22 23 22.7 21 23.4V12H17V29.3L19.8 28C19.8 28 24.4 25.9 28.4 25.9C30.4 25.9 30.9 27 30.9 28V40H34.9V28C35 27.7 35 25.5 33.3 23.8ZM28 18.5H32C33.8 16.4 34.7 14.3 35 12H31C30.6 14.3 29.6 16.4 28 18.5Z" fill="#0077FF"></path>
</svg>
