<?xml version="1.0" encoding="UTF-8"?>
<svg xmlns="http://www.w3.org/2000/svg" width="51" height="51" viewBox="0 0 51 51" fill="none">
  <circle cx="25.5" cy="25.5" r="24.5" fill="white" stroke="#0077FF" stroke-width="2"></circle>
  <path d="M13.2028 28.7435C13.2028 23.6859 15.6584 18.4084 18.5409 18.4084C20.1423 18.4084 21.4235 19.3979 23.452 22.3665C21.5302 25.445 20.3559 27.3141 20.3559 27.3141C17.7936 31.4921 16.9395 32.3717 15.5516 32.3717C14.1637 32.4817 13.2028 31.1623 13.2028 28.7435ZM29.9644 26.8743L28.1495 23.7958C27.7224 23.0262 27.1886 22.2565 26.7616 21.5969C28.363 19.0681 29.6441 17.7487 31.2456 17.7487C34.4484 17.7487 37.0107 22.6963 37.0107 28.8534C37.0107 31.1623 36.2633 32.4817 34.7687 32.4817C33.274 32.4817 32.7402 31.4921 29.9644 26.8743ZM25.3737 19.3979C23.0249 16.2094 20.9964 15 18.6477 15C13.7367 15 10 21.7068 10 28.7435C10 33.1414 12.0285 35.8901 15.4448 35.8901C17.9004 35.8901 19.6085 34.6806 22.8114 28.9634C22.8114 28.9634 24.0925 26.5445 25.0534 24.8953C25.3737 25.445 25.6939 25.9948 26.0142 26.6545L27.5089 29.2932C30.3915 34.3508 31.9929 36 34.8754 36C38.1851 36 40 33.1414 40 28.6335C39.8932 21.1571 36.0498 15 31.4591 15C29.0036 15 27.0819 16.9791 25.3737 19.3979Z" fill="#0077FF"></path>
</svg>
