<?xml version="1.0" encoding="UTF-8"?>
<svg xmlns="http://www.w3.org/2000/svg" width="51" height="51" viewBox="0 0 51 51" fill="none">
  <circle cx="25.5" cy="25.5" r="24.5" fill="white" stroke="#0077FF" stroke-width="2"></circle>
  <path d="M16.6301 16C16.289 16 15.9393 16.0198 15.5765 16.0625L15.7835 16.7002C16.1028 16.6668 16.4196 16.6559 16.7389 16.6559H16.8503L16.6301 16ZM20.8231 16.6351L20.7807 17.3457C21.1434 17.4656 21.4943 17.5961 21.8448 17.7361L21.89 17.0125C21.7908 16.9592 21.5147 16.8297 20.8231 16.6351ZM11.7868 17.0437C11.5124 17.1837 11.2259 17.3338 10.9296 17.507L11.4339 18.2618C11.7192 18.0886 11.9951 17.9281 12.2804 17.7881L11.7868 17.0437ZM16.7707 17.0776C16.4627 17.0798 16.1509 17.0962 15.8392 17.127C12.6326 17.4069 8.69321 20.2716 6.3969 24.0297C4.08701 27.801 3.77492 31 3.77492 31H12.4423C12.4423 31 10.7851 23.5771 16.2745 20.5653C17.4158 20.0189 20.9641 18.0456 26.7252 21.8303L27.1578 21.4451C25.5273 20.0708 21.3905 17.0441 16.7707 17.0776ZM20.8019 20.0187L20.7594 20.6955C21.1222 20.7061 21.4821 20.7497 21.8448 20.8256L21.89 20.1567C21.5177 20.0821 21.1538 20.0401 20.8019 20.0187ZM18.233 20.2764C17.8593 20.383 17.5415 20.504 17.267 20.6226L17.5191 21.3644C17.8371 21.2138 18.1565 21.0843 18.4745 20.987L18.233 20.2764ZM7.34963 20.3207C7.06429 20.5899 6.79028 20.8583 6.53755 21.1275L7.38147 21.8381C7.61246 21.5476 7.86625 21.2562 8.12985 20.987L7.34963 20.3207ZM15.2129 21.9136C14.9602 22.1415 14.7279 22.3867 14.5309 22.6346L15.059 23.4102C15.2452 23.141 15.4647 22.8928 15.7065 22.645L15.2129 21.9136ZM16.792 23.4492V30.8621H18.6311V28.8136L18.8646 29.0505L20.5896 30.8621H23.3814L20.9585 28.4649L21.2477 28.4388C21.3197 28.4322 23.047 28.2527 23.047 25.9766C23.047 23.6964 20.9298 23.4572 20.8523 23.4492H16.792ZM26.2475 23.5013C24.8208 23.5013 24.3394 24.7877 24.3394 25.3727V30.8621H26.2104V29.5164H28.4927V30.8621H30.2946V25.3727C30.2946 23.8469 28.8838 23.5013 28.3892 23.5013H26.2475ZM31.5446 23.5013V30.8594H33.5031V23.5013H31.5446ZM34.6841 23.5013V30.8621H39.6335V29.1572H36.6346V23.5013H34.6841ZM42.4465 23.5013C41.6421 23.5013 40.5278 24.1619 40.5278 25.404V26.0833C40.5278 27.36 41.6734 27.9547 42.4465 27.9547L43.4205 27.9573C43.574 27.9533 44.275 27.9547 44.275 27.9547V29.1676L40.6366 29.178V30.8594H44.0946C44.8093 30.8594 45.9592 30.3513 46 28.9906V28.2358C46 27.0658 45.0307 26.367 44.0946 26.367H42.1679V25.1957H45.716V23.5013H42.4465ZM13.2703 24.9172C13.1263 25.317 13.0269 25.7163 12.9386 26.1041L13.8303 26.7939C13.8738 26.3741 13.9511 25.9526 14.0612 25.5315L13.2703 24.9172ZM27.0065 25.0552H27.739C28.3124 25.0552 28.4766 25.4124 28.4821 25.607V27.6059H26.1998V25.607C26.1998 25.6016 26.2103 25.0552 27.0065 25.0552ZM18.6337 25.1072L20.5073 25.115C20.5291 25.1244 21.0673 25.3309 21.0673 26.1145C21.0673 26.8968 20.5223 27.1136 20.4489 27.1322H18.6337V25.1072ZM3.54934 25.3519C3.34145 25.8143 3.11006 26.3524 3 26.6429L4.26322 27.0958C4.40589 26.7293 4.63593 26.2006 4.81257 25.8022L3.54934 25.3519ZM12.7741 28.8397C12.7958 29.41 12.8524 29.8732 12.9067 30.1957L14.2257 30.659C14.1265 30.2393 14.0269 29.7651 13.9603 29.2587L12.7741 28.8397Z" fill="#0077FF"></path>
</svg>
