<?xml version="1.0" encoding="UTF-8"?>
<svg xmlns="http://www.w3.org/2000/svg" width="51" height="51" viewBox="0 0 51 51" fill="none">
  <circle cx="25.5" cy="25.5" r="24.5" fill="white" stroke="#0077FF" stroke-width="2"></circle>
  <path d="M15.0002 29.5833C15.0002 30.5917 14.1752 31.4167 13.1668 31.4167C12.1585 31.4167 11.3335 30.5917 11.3335 29.5833V21.3333C11.3335 20.325 12.1585 19.5 13.1668 19.5C14.1752 19.5 15.0002 20.325 15.0002 21.3333V29.5833ZM40.6668 29.5833C40.6668 30.5917 39.8418 31.4167 38.8335 31.4167C37.8252 31.4167 37.0002 30.5917 37.0002 29.5833V21.3333C37.0002 20.325 37.8252 19.5 38.8335 19.5C39.8418 19.5 40.6668 20.325 40.6668 21.3333V29.5833ZM24.1668 39.6667C24.1668 40.675 23.3418 41.5 22.3335 41.5C21.3252 41.5 20.5002 40.675 20.5002 39.6667V31.4167C20.5002 30.4083 21.3252 29.5833 22.3335 29.5833C23.3418 29.5833 24.1668 30.4083 24.1668 31.4167V39.6667ZM31.5002 39.6667C31.5002 40.675 30.6752 41.5 29.6668 41.5C28.6585 41.5 27.8335 40.675 27.8335 39.6667V31.4167C27.8335 30.4083 28.6585 29.5833 29.6668 29.5833C30.6752 29.5833 31.5002 30.4083 31.5002 31.4167V39.6667Z" fill="#0077FF"></path>
  <path d="M16.8335 19.4999V33.2499C16.8335 34.2583 17.6585 35.0833 18.6668 35.0833H33.3335C34.3418 35.0833 35.1668 34.2583 35.1668 33.2499V19.4999H16.8335ZM26.0002 10.3333C20.5002 10.3333 17.1085 13.6333 16.8335 17.6666H35.1668C34.8918 13.6333 31.5002 10.3333 26.0002 10.3333ZM22.3335 15.4666C21.7835 15.4666 21.4168 15.0999 21.4168 14.5499C21.4168 13.9999 21.7835 13.6333 22.3335 13.6333C22.8835 13.6333 23.2502 13.9999 23.2502 14.5499C23.2502 15.0083 22.8835 15.4666 22.3335 15.4666ZM29.6668 15.4666C29.1168 15.4666 28.7502 15.0999 28.7502 14.5499C28.7502 13.9999 29.1168 13.6333 29.6668 13.6333C30.2168 13.6333 30.5835 13.9999 30.5835 14.5499C30.5835 15.0083 30.2168 15.4666 29.6668 15.4666Z" fill="#0077FF"></path>
  <path d="M29.9415 12.625C29.7582 12.625 29.5748 12.5334 29.3915 12.4417C28.9332 12.1667 28.8415 11.6167 29.1165 11.1584L30.6748 8.8667C30.9498 8.40837 31.4998 8.3167 31.9582 8.5917C32.4165 8.8667 32.5082 9.4167 32.2332 9.87503L30.6748 12.1667C30.5832 12.4417 30.3082 12.625 29.9415 12.625ZM21.6915 12.2584C21.4165 12.2584 21.0498 12.075 20.9582 11.8L19.7665 9.87503C19.4915 9.4167 19.5832 8.8667 20.0415 8.5917C20.4998 8.3167 21.0498 8.40837 21.3248 8.8667L22.5165 10.7917C22.7915 11.25 22.6998 11.8 22.2415 12.075C22.0582 12.1667 21.8748 12.2584 21.6915 12.2584Z" fill="#0077FF"></path>
</svg>
