<?xml version="1.0" encoding="UTF-8"?>
<svg xmlns="http://www.w3.org/2000/svg" width="51" height="51" viewBox="0 0 51 51" fill="none">
  <circle cx="25.5" cy="25.5" r="24.5" fill="white" stroke="#0077FF" stroke-width="2"></circle>
  <path d="M10 11L35.6919 37.8299C35.6919 37.8299 36.5673 38.4386 37.2365 37.7285C37.9058 37.0184 37.391 36.3084 37.391 36.3084L10.0001 11.0001L10 11ZM18.1349 13.5359L37.6999 34.3303C37.6999 34.3303 38.5752 34.9391 39.2445 34.2289C39.9139 33.5189 39.399 32.8089 39.399 32.8089L18.1349 13.5359ZM12.4199 18.9628L31.9847 39.7572C31.9847 39.7572 32.86 40.3659 33.5293 39.6557C34.1987 38.9457 33.6838 38.2357 33.6838 38.2357L12.4199 18.9628ZM25.0118 15.7168L38.6808 30.2446C38.6808 30.2446 39.2924 30.6698 39.76 30.1738C40.2276 29.6777 39.8679 29.1816 39.8679 29.1816L25.0118 15.7168ZM14.3027 25.2518L27.9716 39.7797C27.9716 39.7797 28.5832 40.2049 29.0507 39.7087C29.5183 39.2127 29.1586 38.7167 29.1586 38.7167L14.3027 25.2518ZM32.0364 18.8613L38.2316 25.4658C38.2316 25.4658 38.5341 25.6651 38.7654 25.4326C38.9966 25.2002 38.8188 24.9677 38.8188 24.9677L32.0364 18.8613ZM17.723 31.9466L23.9182 38.5511C23.9182 38.5511 24.2207 38.7504 24.452 38.518C24.6833 38.2855 24.5054 38.0531 24.5054 38.0531L17.723 31.9466Z" fill="#0077FF"></path>
</svg>
