<?xml version="1.0" encoding="UTF-8"?>
<svg xmlns="http://www.w3.org/2000/svg" width="51" height="51" viewBox="0 0 51 51" fill="none">
  <circle cx="25.5" cy="25.5" r="24.5" fill="white" stroke="#0077FF" stroke-width="2"></circle>
  <path d="M20.5674 33C20.5674 33 19.3214 33.807 21.4542 34.0801C24.038 34.4084 25.3585 34.3613 28.2059 33.7611C28.2059 33.7611 28.9545 34.2839 30 34.7366C23.6169 37.7834 15.5538 34.5602 20.5674 33Z" fill="#0077FF"></path>
  <path d="M19.8185 30C19.8185 30 18.3703 30.7836 20.582 30.9508C23.4422 31.1665 25.7009 31.1841 29.6094 30.634C29.6094 30.634 30.15 31.0346 31 31.2537C23.0028 32.963 14.0953 31.3885 19.8185 30Z" fill="#0077FF"></path>
  <path d="M26.5866 23.663C28.3165 25.4194 26.1321 27 26.1321 27C26.1321 27 30.5245 25.0003 28.5073 22.4961C26.6233 20.1609 25.1785 19.0006 33 15C33 15 20.7228 17.7042 26.5866 23.663Z" fill="#80BBFF"></path>
  <path d="M35.3604 35.3181C35.3604 35.3181 36.2984 36.1945 34.3275 36.8725C30.5797 38.16 18.729 38.5488 15.4369 36.9238C14.2535 36.34 16.4727 35.5298 17.1708 35.3598C17.8989 35.1808 18.3149 35.2141 18.3149 35.2141C16.9988 34.1627 9.80828 37.2786 14.6625 38.1709C27.9005 40.6055 38.7942 37.0746 35.3604 35.3181Z" fill="#0077FF"></path>
  <path d="M21.5924 26.0055C21.5924 26.0055 15.804 27.4771 19.5426 28.0114C21.1212 28.2376 24.268 28.1864 27.1991 27.9236C29.5946 27.7073 32 27.2475 32 27.2475C32 27.2475 31.1553 27.6346 30.5442 28.0812C24.6662 29.7358 13.3109 28.9661 16.58 27.2736C19.3446 25.8433 21.5924 26.0055 21.5924 26.0055Z" fill="#0077FF"></path>
  <path d="M32.1186 31.8502C38.0213 28.8781 35.2921 26.022 33.3872 26.4068C32.9203 26.5009 32.7121 26.5825 32.7121 26.5825C32.7121 26.5825 32.8855 26.3194 33.2165 26.2055C36.985 24.9217 39.8833 29.9919 32 32C32 32 32.0913 31.921 32.1186 31.8502Z" fill="#0077FF"></path>
  <path d="M28.1728 8C28.1728 8 31.3969 11.4103 25.1148 16.6544C20.0773 20.8611 23.9661 23.2596 25.1128 26C22.1722 23.1947 20.0143 20.7251 21.462 18.4267C23.5869 15.0528 29.4736 13.4171 28.1728 8Z" fill="#80BBFF"></path>
  <path d="M21.677 39.9005C27.6347 40.2655 36.7833 39.698 37 37C37 37 36.5835 38.0228 32.0763 38.835C26.9914 39.7509 20.7198 39.6439 17 39.057C17 39.057 17.7615 39.6602 21.677 39.9005Z" fill="#0077FF"></path>
</svg>
