<?xml version="1.0" encoding="UTF-8"?>
<svg xmlns="http://www.w3.org/2000/svg" width="51" height="51" viewBox="0 0 51 51" fill="none">
  <circle cx="25.5" cy="25.5" r="24.5" fill="white" stroke="#0077FF" stroke-width="2"></circle>
  <path d="M15.6042 22.375H17.6875V28.625H15.6042V22.375ZM13 19.25C13 19.875 13.4167 20.2917 14.0417 20.2917H19.25C19.875 20.2917 20.2917 19.875 20.2917 19.25V14.0417C20.2917 13.4167 19.875 13 19.25 13H14.0417C13.4167 13 13 13.4167 13 14.0417V19.25ZM13 36.9583C13 37.5833 13.4167 38 14.0417 38H19.25C19.875 38 20.2917 37.5833 20.2917 36.9583V31.75C20.2917 31.125 19.875 30.7083 19.25 30.7083H14.0417C13.4167 30.7083 13 31.125 13 31.75V36.9583ZM22.375 33.3125H28.625V35.3958H22.375V33.3125ZM38 14.0417C38 13.4167 37.5833 13 36.9583 13H31.75C31.125 13 30.7083 13.4167 30.7083 14.0417V19.25C30.7083 19.875 31.125 20.2917 31.75 20.2917H36.9583C37.5833 20.2917 38 19.875 38 19.25V14.0417ZM22.375 15.6042H28.625V17.6875H22.375V15.6042ZM38 31.75C38 31.125 37.5833 30.7083 36.9583 30.7083H31.75C31.125 30.7083 30.7083 31.125 30.7083 31.75V36.9583C30.7083 37.5833 31.125 38 31.75 38H36.9583C37.5833 38 38 37.5833 38 36.9583V31.75ZM33.3125 22.375H35.3958V28.625H33.3125V22.375Z" fill="#0077FF"></path>
</svg>
