<?xml version="1.0" encoding="UTF-8"?>
<svg xmlns="http://www.w3.org/2000/svg" width="51" height="51" viewBox="0 0 51 51" fill="none">
  <circle cx="25.5" cy="25.5" r="24.5" fill="white" stroke="#0077FF" stroke-width="2"></circle>
  <path d="M37 14H13V38H37V14Z" fill="#0077FF"></path>
  <path d="M28.9162 32.698C29.4053 33.4712 30.0415 34.0395 31.1668 34.0395C32.1121 34.0395 32.7159 33.582 32.7159 32.9499C32.7159 32.1924 32.0955 31.9241 31.055 31.4834L30.4847 31.2465C28.8384 30.5674 27.7447 29.7166 27.7447 27.918C27.7447 26.2612 29.0484 25 31.0858 25C32.5364 25 33.5792 25.4888 34.3306 26.7687L32.5541 27.8732C32.1629 27.1941 31.741 26.9266 31.0858 26.9266C30.4176 26.9266 29.9941 27.337 29.9941 27.8732C29.9941 28.5359 30.418 28.8042 31.3968 29.2147L31.9672 29.4513C33.9056 30.2561 35 31.0767 35 32.9215C35 34.9104 33.3865 36 31.2196 36C29.1008 36 27.732 35.0224 27.0622 33.741L28.9162 32.698ZM20.8571 32.8894C21.2155 33.5051 21.5415 34.0257 22.3253 34.0257C23.0749 34.0257 23.5477 33.7417 23.5477 32.6376V25.1261H25.8291V32.6674C25.8291 34.9548 24.4441 35.9959 22.4224 35.9959C20.5958 35.9959 19.538 35.0806 19 33.9781L20.8571 32.8894Z" fill="white"></path>
</svg>
