<?xml version="1.0" encoding="UTF-8"?>
<svg xmlns="http://www.w3.org/2000/svg" width="51" height="51" viewBox="0 0 51 51" fill="none">
  <circle cx="25.5" cy="25.5" r="24.5" fill="white" stroke="#0077FF" stroke-width="2"></circle>
  <path d="M25.0047 39C24.6424 39 24.2826 38.9051 23.9649 38.7226L20.6551 36.7672C20.1608 36.4913 20.402 36.3937 20.5651 36.3375C21.2242 36.1072 21.3579 36.0552 22.0615 35.6564C22.1354 35.6143 22.2322 35.6292 22.3079 35.6738L24.8506 37.1795C24.9424 37.229 25.0727 37.229 25.1578 37.1795L35.072 31.4686C35.1638 31.4166 35.2234 31.3101 35.2234 31.2012V19.7844C35.2234 19.6704 35.1638 19.5689 35.07 19.5119L25.1598 13.806C25.068 13.7515 24.9464 13.7515 24.8546 13.806L14.9464 19.5119C14.8503 19.5664 14.7893 19.6729 14.7893 19.7819V31.1987C14.7893 31.3077 14.8488 31.4117 14.9431 31.4637L17.6581 33.0288C19.1321 33.7644 20.033 32.8976 20.033 32.0258V20.7576C20.033 20.5967 20.1595 20.4728 20.3209 20.4728H21.5766C21.7329 20.4728 21.862 20.5967 21.862 20.7576V32.0308C21.862 33.9922 20.7899 35.119 18.9262 35.119C18.3529 35.119 17.9013 35.119 16.6406 34.4999L14.0398 33.0041C13.3971 32.6326 13 31.9392 13 31.1987V19.7819C13 19.0389 13.3971 18.3455 14.0398 17.979L23.9639 12.2656C24.5918 11.9115 25.4256 11.9115 26.0485 12.2656L35.9602 17.9814C36.6005 18.3504 37 19.0414 37 19.7844V31.2012C37 31.9416 36.6005 32.6326 35.9602 33.0041L26.0485 38.7174C25.7308 38.9007 25.371 38.9948 25.0037 38.9948" fill="#0077FF"></path>
  <path d="M28.3738 31.9883C23.9314 31.9883 23 29.9841 23 28.3031C23 28.1432 23.1311 28.0158 23.294 28.0158H24.6054C24.7503 28.0158 24.8722 28.1195 24.8951 28.2601C25.0933 29.5734 25.6829 30.2358 28.3692 30.2358C30.5091 30.2358 31.4189 29.7608 31.4189 28.6455C31.4189 28.0036 31.1597 27.5265 27.8355 27.2068C25.0552 26.937 23.3372 26.3351 23.3372 24.1495C23.3372 22.1363 25.0654 20.9374 27.96 20.9374C31.2105 20.9374 32.8217 22.0464 33.025 24.4293C33.0327 24.5117 33.0022 24.5916 32.9463 24.6516C32.8903 24.709 32.8116 24.744 32.7302 24.744H31.4112C31.274 24.744 31.1546 24.6491 31.1266 24.5192C30.8089 23.1379 30.0414 22.6958 27.955 22.6958C25.6194 22.6958 25.3475 23.4951 25.3475 24.0946C25.3475 24.8214 25.6677 25.0337 28.819 25.4434C31.9399 25.8505 33.4215 26.425 33.4215 28.5806C33.4215 30.7536 31.5764 32 28.359 32M40.7255 19.7884H41.066C41.3455 19.7884 41.3989 19.5961 41.3989 19.4837C41.3989 19.1889 41.1931 19.1889 41.0787 19.1889H40.728L40.7255 19.7884ZM40.3112 18.8442H41.066C41.3252 18.8442 41.8335 18.8442 41.8335 19.4137C41.8335 19.8109 41.5743 19.8933 41.4193 19.9433C41.7217 19.9632 41.742 20.1581 41.7827 20.4328C41.803 20.6052 41.836 20.9024 41.897 21.0023H41.432C41.4193 20.9024 41.3481 20.3529 41.3481 20.3229C41.3176 20.2005 41.2744 20.1406 41.1194 20.1406H40.7356V21.0048H40.3112V18.8442ZM39.4039 19.9183C39.4039 20.8125 40.1384 21.5368 41.0406 21.5368C41.9504 21.5368 42.6849 20.7975 42.6849 19.9183C42.6849 19.0216 41.9402 18.3097 41.038 18.3097C40.1486 18.3097 39.4014 19.0116 39.4014 19.9158M43 19.9233C43 20.9823 42.1181 21.8466 41.0431 21.8466C39.9757 21.8466 39.0863 20.9923 39.0863 19.9233C39.0863 18.8343 39.9961 18 41.0431 18C42.0978 18 42.9975 18.8368 42.9975 19.9233" fill="#0077FF"></path>
</svg>
