<?xml version="1.0" encoding="UTF-8"?>
<svg xmlns="http://www.w3.org/2000/svg" width="51" height="51" viewBox="0 0 51 51" fill="none">
  <circle cx="25.5" cy="25.5" r="24.5" fill="white" stroke="#0077FF" stroke-width="2"></circle>
  <path fillRule="evenodd" clipRule="evenodd" d="M24.9742 35.3872C15.6231 35.3872 8.04248 30.1841 8.04248 23.7658C8.04248 17.3474 15.6231 12.1443 24.9742 12.1443C34.3254 12.1443 41.906 17.3474 41.906 23.7658C41.906 30.1841 34.3254 35.3872 24.9742 35.3872ZM27.5659 16.6879C20.4583 16.6879 14.6963 20.245 14.6963 24.6328C14.6963 29.0207 20.4583 32.5778 27.5659 32.5778C34.6736 32.5778 39.9189 30.1459 39.9189 24.6328C39.9189 19.1215 34.6736 16.6879 27.5659 16.6879Z" fill="#80BBFF"></path>
  <path fillRule="evenodd" clipRule="evenodd" d="M33.8289 30.1443C33.8289 30.1443 34.8537 30.4613 35.449 30.77C35.6556 30.8771 36.0131 31.0909 36.2709 31.3716C36.5234 31.6465 36.6466 31.9251 36.6466 31.9251L40.6852 38.9037L34.1576 38.9067L31.1051 33.032C31.1051 33.032 30.4801 31.9314 30.0955 31.6122C29.7746 31.346 29.6378 31.2513 29.3206 31.2513H27.7697L27.7709 38.9024L21.9946 38.9049V19.3606H33.5941C33.5941 19.3606 38.8772 19.4582 38.8772 24.6096C38.8772 29.7609 33.8289 30.1443 33.8289 30.1443ZM31.3165 23.6L27.8196 23.5977L27.8178 26.921L31.3165 26.9198C31.3165 26.9198 32.9366 26.9147 32.9366 25.2293C32.9366 23.5101 31.3165 23.6 31.3165 23.6Z" fill="#0077FF"></path>
</svg>
