<?xml version="1.0" encoding="UTF-8"?>
<svg xmlns="http://www.w3.org/2000/svg" width="51" height="51" viewBox="0 0 51 51" fill="none">
  <circle cx="25.5" cy="25.5" r="24.5" fill="#fff" stroke="#1377FD" stroke-width="2"></circle>
  <path d="M40.615 39s-1.65-2.807-4.416-2.807c-2.666 0-4.707 2.807-10.074 2.807-9.975-.001-15.629-7.398-17.093-9.7-.115-.181.1-.381.281-.266C13.555 31.701 17.658 33 20.5 32.999 24.657 32.998 27 31 27 31c-3.829-2.255-13-12.75-14.954-15.681-.135-.202.107-.425.293-.269 7.947 6.684 12.476 9.203 12.476 9.203-1.682-1.412-6.69-8.004-8.773-10.935-.141-.198.118-.427.296-.262C22.038 18.356 32 26 32 26c.627-1.764 1.024-3.881.998-5.5-.067-4.269-2.82-8.526-3.961-10.191-.129-.188.106-.399.291-.266 7.422 5.332 9.673 11.99 9.672 15.832-.001 2.76-1 4.5-1 4.5s4.232 4.617 2.615 8.625z" fill="#1377FD"></path>
</svg>
