<svg width="72" height="72" viewBox="0 0 72 72" fill="none" xmlns="http://www.w3.org/2000/svg"><path d="M8.799 8v5.6m.088 3.878v6.211m0 4.067v6.21M64 8.8h-5.6m-3.878.087H48.31m-4.065 0h-6.211m-4.067 0h-6.211m-4.066.001h-6.212M13.6 8.8H8M63.2 8v5.6m-.087 3.878v6.211m0 4.067v6.21m0 4.067v6.212m0 4.066v6.212M63.2 58.4V64m.8-.8h-5.6m-3.878-.087H48.31m-4.065 0h-6.211" stroke="#99C9FF" stroke-width="2.5" stroke-miterlimit="10"/><path d="M32.279 63.112H8.887V39.721h23.392v23.392z" fill="#66ADFF" stroke="#07F" stroke-width="2.5" stroke-miterlimit="10"/></svg>