<?xml version="1.0" encoding="iso-8859-1"?>
<!-- Generator: Adobe Illustrator 19.2.0, SVG Export Plug-In . SVG Version: 6.00 Build 0)  -->
<svg xmlns="http://www.w3.org/2000/svg" xmlns:xlink="http://www.w3.org/1999/xlink" version="1.1" id="Layer_1" x="0px" y="0px" viewBox="0 0 40 40" style="enable-background:new 0 0 40 40;" xml:space="preserve">
<g>
	<path style="fill:#B6DCFE;" d="M4.511,38.5c0.263-6.11,5.315-11,11.489-11h8c6.174,0,11.227,4.89,11.489,11H4.511z"/>
	<g>
		<path style="fill:#4788C7;" d="M24,28c5.729,0,10.448,4.401,10.955,10l-29.91,0C5.552,32.401,10.271,28,16,28H24 M24,27h-8    C9.373,27,4,32.373,4,39v0h32v0C36,32.373,30.627,27,24,27L24,27z"/>
	</g>
</g>
<g>
	<path style="fill:#B6DCFE;" d="M24.401,33.508c-0.353,0-0.686-0.125-0.962-0.362L20,30.198l-3.439,2.949   c-0.276,0.236-0.608,0.361-0.962,0.361l0,0c-0.656,0-1.403-0.47-1.493-1.34l-0.458-4.414C14.444,27.585,15.233,27.5,16,27.5h8   c0.767,0,1.556,0.085,2.353,0.254l-0.458,4.414C25.805,33.039,25.058,33.508,24.401,33.508z"/>
	<g>
		<path style="fill:#4788C7;" d="M24,28c0.59,0,1.195,0.053,1.808,0.159l-0.41,3.958c-0.06,0.579-0.558,0.892-0.996,0.892    c-0.162,0-0.403-0.042-0.636-0.241l-3.115-2.67L20,29.539l-0.651,0.558l-3.115,2.67c-0.233,0.2-0.474,0.241-0.636,0.241    c-0.438,0-0.936-0.313-0.996-0.892l-0.41-3.958C14.805,28.053,15.41,28,16,28H24 M24,27h-8c-1,0-1.966,0.136-2.895,0.366    l0.503,4.853c0.113,1.091,1.031,1.789,1.99,1.789c0.446,0,0.9-0.151,1.287-0.482L20,30.856l3.115,2.67    c0.387,0.332,0.841,0.482,1.287,0.482c0.959,0,1.877-0.698,1.99-1.789l0.503-4.853C25.966,27.136,25,27,24,27L24,27z"/>
	</g>
</g>
<g>
	<polygon style="fill:#FFFFFF;" points="15.5,27.819 15.5,22.5 24.5,22.5 24.5,27.819 20,31.364  "/>
	<g>
		<path style="fill:#4788C7;" d="M24,23v4.577l-4,3.151l-4-3.151V23H24 M25,22H15v6.062L20,32l5-3.938V22L25,22z"/>
	</g>
</g>
<polygon style="fill:#4788C7;" points="22.601,29.619 20,30.305 17.401,29.623 19,33 17,39 23,39 21,33 "/>
<g>
	<g>
		<path style="fill:#FFFFFF;" d="M20,25.5c-0.604,0-1.171-0.218-1.641-0.63l-0.091-0.08l-0.116-0.03    c-3.328-0.845-5.652-3.83-5.652-7.26V8.202c0-1.827,1.486-3.313,3.312-3.313h8.375c1.826,0,3.313,1.486,3.313,3.313V17.5    c0,3.43-2.324,6.416-5.651,7.26l-0.116,0.03l-0.091,0.08C21.172,25.282,20.604,25.5,20,25.5z"/>
	</g>
	<g>
		<path style="fill:#4788C7;" d="M24.188,5.389C25.738,5.389,27,6.651,27,8.202V17.5c0,3.201-2.169,5.987-5.275,6.776l-0.233,0.059    l-0.181,0.159C21.049,24.725,20.608,25,20,25s-1.048-0.275-1.311-0.506l-0.181-0.159l-0.233-0.059    C15.169,23.487,13,20.701,13,17.5V8.202c0-1.551,1.262-2.813,2.813-2.813H24.188 M24.188,4.389h-8.375    C13.707,4.389,12,6.096,12,8.202V17.5c0,3.737,2.566,6.866,6.029,7.745C18.557,25.709,19.242,26,20,26s1.443-0.291,1.971-0.755    C25.435,24.366,28,21.237,28,17.5V8.202C28,6.096,26.293,4.389,24.188,4.389L24.188,4.389z"/>
	</g>
</g>
<g>
	<path style="fill:#B6DCFE;" d="M28,25.5c-1.76,0-3.407-0.912-4.269-1.485c1.046-0.659,2.769-2.223,2.769-5.373v-4.724   c0-2.41-2.086-4.223-2.175-4.298l-0.43-0.368l-0.313,0.473c-0.021,0.031-2.135,3.156-6.65,3.78   c-2.357,0.326-3.432,2.109-3.432,3.628v1.509c0,3.193,1.708,4.735,2.758,5.38C15.398,24.596,13.764,25.5,12,25.5   c-1.793,0-3.382-0.934-4.16-1.483c0.882-0.695,2.446-2.24,2.446-4.445c0-0.928-0.176-1.909-0.362-2.948   C9.716,15.462,9.5,14.262,9.5,13c0-8.488,5.387-11.5,10-11.5c3.803,0,5.031,2.675,5.043,2.703L24.675,4.5H25   c3.495,0,5.5,2.733,5.5,7.5c0,1.342-0.269,2.836-0.527,4.281C29.729,17.634,29.5,18.913,29.5,20c0,1.844,1.459,2.852,2.643,3.281   C31.435,24.092,29.928,25.5,28,25.5z"/>
	<g>
		<path style="fill:#4788C7;" d="M19.5,2c3.427,0,4.544,2.315,4.586,2.405L24.349,5H25c3.224,0,5,2.486,5,7    c0,1.298-0.264,2.769-0.52,4.193C29.234,17.569,29,18.868,29,20c0,1.765,1.143,2.857,2.292,3.452C30.551,24.167,29.389,25,28,25    c-1.274,0-2.497-0.524-3.357-1.01C25.732,23.107,27,21.472,27,18.643v-4.724c0-2.638-2.254-4.596-2.35-4.678l-0.858-0.728    l-0.626,0.936c-0.081,0.121-2.03,2.971-6.303,3.561C14.209,13.376,13,15.404,13,17.133v1.509c0,2.86,1.252,4.486,2.339,5.359    C14.485,24.484,13.273,25,12,25c-1.313,0-2.525-0.556-3.331-1.041c0.942-0.88,2.117-2.379,2.117-4.388    c0-0.972-0.18-1.975-0.37-3.036C10.211,15.396,10,14.218,10,13C10,4.881,15.118,2,19.5,2 M19.5,1C14.212,1,9,4.694,9,13    c0,2.454,0.786,4.682,0.786,6.571C9.786,22.327,7,24,7,24s2.254,2,5,2c2.794,0,5.211-2.056,5.211-2.056S14,22.918,14,18.643    c0-0.613,0-0.56,0-1.509c0-1.354,0.942-2.849,3-3.134c4.816-0.665,7-4,7-4s2,1.711,2,3.919c0,1.044,0,3.009,0,4.724    c0,4.194-3.214,5.302-3.214,5.302S25.226,26,28,26c3.005,0,5-3,5-3s-3-0.535-3-3c0-2.19,1-5.352,1-8c0-5.761-2.766-8-6-8    C25,4,23.672,1,19.5,1L19.5,1z"/>
	</g>
</g>
</svg>
