<svg width="64" height="64" viewBox="0 0 64 64" fill="none" xmlns="http://www.w3.org/2000/svg"><path d="M61.89 6.55A1 1 0 0061 6H51V3a1 1 0 00-1-1H37a1 1 0 00-1 1v19.57l-6.07.43a1 1 0 00-.93 1v8.42L20 33a1.06 1.06 0 00-.9.63 1 1 0 00-.07.51v7l-7.94.57A1.11 1.11 0 0010 42.76V60H3v2h58v-2h-7V29.1a1.1 1.1 0 00-1-1.05l-8-.57V23a1 1 0 00-1.07-1l-5.93.43V12h9v3a1 1 0 001 1h13a1 1 0 00.8-1.6L59.25 11l2.55-3.4a1 1 0 00.09-1.05zM45 48V29.48l7 .5V60H12V43.64l7-.5V54h2V34.94l8-.52V58h2V24.93l12-.86V48h2zM38 4h11v6H38V4zm19.2 7.6L59 14H49v-2h1a1 1 0 001-1V8h8l-1.8 2.4a1 1 0 000 1.2z" fill="#fff"/><path fillRule="evenodd" clipRule="evenodd" d="M61.523 6.15A1 1 0 0161.8 7.6L59.25 11l2.55 3.4A1 1 0 0161 16H48a1 1 0 01-1-1v-3h-9v10.43l5.93-.43c.032-.002.064-.003.096-.002L44 22c-4.801.4-13 1.026-14 1h-.07l6.07-.43V3a1 1 0 011-1h13a1 1 0 011 1v3h10a1 1 0 01.523.15zM29.215 23.378A1 1 0 0029 24v.043c.011-.01.017-.015.018-.013.002.003.004-.01.006-.038.01-.1.038-.377.19-.613zM49 4H38v6h11V4zm10 10l-1.8-2.4a1 1 0 010-1.2L59 8h-8v3a1 1 0 01-1 1h-1v2h10z" fill="#FF8F00"/><path fill="#FF8F00" d="M38 3h12v8H38z"/><path fill="#FF8F00" d="M48 7h11v7H48z"/></svg>