<svg width="64" height="64" viewBox="0 0 64 64" fill="none" xmlns="http://www.w3.org/2000/svg"><path d="M10 57h17v-7l-2.5-.5L23 47l1.5-2.5L27 44v-7h-7v-2l-3-2-2.5 1.5L14 37H7v17.5l3 2.5z" fill="#66ADFF"/><path d="M6 53.75A4.26 4.26 0 0010.25 58H27a1 1 0 001-1v-7a1 1 0 00-1-1h-1a2 2 0 010-4h1a1 1 0 001-1v-7a1 1 0 00-1-1h-6a4 4 0 10-8 0H7a1 1 0 00-1 1v16.75zM8 38h6a1 1 0 001-1v-1a2 2 0 014 0v1a1 1 0 001 1h6v5a4 4 0 100 8v5H10.25A2.25 2.25 0 018 53.75V38z" fill="#66ADFF"/><path d="M27 6H10.25A4.26 4.26 0 006 10.25V27a1 1 0 001 1h7a1 1 0 001-1v-1a2 2 0 014 0v1a1 1 0 001 1h7a1 1 0 001-1v-6a4 4 0 100-8V7a1 1 0 00-1-1zm3 11a2 2 0 01-2 2h-1a1 1 0 00-1 1v6h-5a4 4 0 10-8 0H8V10.25A2.25 2.25 0 0110.25 8H26v6a1 1 0 001 1h1a2 2 0 012 2z" fill="#07F"/><path d="M54 7H37v7l2.5.5L41 17l-1.5 2.5-2.5.5v7h7v2l3 2 2.5-1.5.5-2.5h7V9.5L54 7z" fill="#FFBC66"/><path d="M38 19h-1a1 1 0 00-1 1v7a1 1 0 001 1h6a4 4 0 108 0h6a1 1 0 001-1V10.25A4.26 4.26 0 0053.75 6H37a1 1 0 00-1 1v7a1 1 0 001 1h1a2 2 0 010 4zm0-6V8h15.75A2.25 2.25 0 0156 10.25V26h-6a1 1 0 00-1 1v1a2 2 0 01-4 0v-1a1 1 0 00-1-1h-6v-5a4 4 0 100-8z" fill="#FFBC66"/><path d="M36 43a4 4 0 100 8v6a1 1 0 001 1h16.75A4.26 4.26 0 0058 53.75V37a1 1 0 00-1-1h-7a1 1 0 00-1 1v1a2 2 0 01-4 0v-1a1 1 0 00-1-1h-7a1 1 0 00-1 1v6zm1 2a1 1 0 001-1v-6h5a4 4 0 108 0h5v15.75A2.25 2.25 0 0153.75 56H38v-6a1 1 0 00-1-1h-1a2 2 0 010-4h1z" fill="#FF8F00"/></svg>