<svg width="64" height="64" viewBox="0 0 64 64" fill="none" xmlns="http://www.w3.org/2000/svg"><g clip-path="url(#clip0_2132_3921)"><path d="M43.125 38.478a4.548 4.548 0 01-4.542-4.543 4.548 4.548 0 014.542-4.543 4.548 4.548 0 014.543 4.543 4.548 4.548 0 01-4.543 4.543zm0-6.972c-1.34 0-2.43 1.09-2.43 2.43s1.09 2.429 2.43 2.429 2.43-1.09 2.43-2.43-1.09-2.43-2.43-2.43zm5.479 15.19h-9.46a1.057 1.057 0 010-2.113h8.273a4.447 4.447 0 00-2.738-3.084 4.427 4.427 0 00-5.695 2.586 1.057 1.057 0 01-1.979-.743 6.543 6.543 0 018.416-3.821 6.566 6.566 0 014.24 6.118c0 .584-.474 1.057-1.057 1.057z" fill="#99C9FF"/><path d="M20.875 38.478a4.548 4.548 0 01-4.543-4.543 4.548 4.548 0 014.543-4.543 4.548 4.548 0 014.543 4.543 4.548 4.548 0 01-4.543 4.543zm0-6.972c-1.34 0-2.43 1.09-2.43 2.43s1.09 2.429 2.43 2.429 2.43-1.09 2.43-2.43-1.09-2.43-2.43-2.43zm3.982 15.19h-9.46a1.056 1.056 0 01-1.057-1.057 6.567 6.567 0 014.238-6.118 6.543 6.543 0 018.416 3.821 1.057 1.057 0 11-1.978.743A4.428 4.428 0 0019.32 41.5a4.447 4.447 0 00-2.739 3.084h8.274a1.057 1.057 0 010 2.113z" fill="#FFA533"/><path d="M32.169 38.244a5.856 5.856 0 01-5.85-5.85 5.857 5.857 0 015.85-5.85 5.857 5.857 0 015.85 5.85 5.857 5.857 0 01-5.85 5.85zm0-9.587a3.741 3.741 0 00-3.737 3.737 3.741 3.741 0 003.737 3.737 3.741 3.741 0 003.737-3.737 3.741 3.741 0 00-3.737-3.737zm7.532 20.887H24.636a1.056 1.056 0 01-1.057-1.061 8.531 8.531 0 012.543-6.063 8.532 8.532 0 016.045-2.488h.04c4.694.02 8.53 3.857 8.55 8.55a1.055 1.055 0 01-1.056 1.062zm-13.918-2.113h12.77c-.521-3.038-3.177-5.371-6.355-5.386h-.03a6.431 6.431 0 00-4.558 1.877 6.428 6.428 0 00-1.827 3.51z" fill="#fff"/><path d="M56.906 60.24H7.094A7.102 7.102 0 010 53.144V10.868c0-3.912 3.183-7.095 7.094-7.095h49.812c3.911 0 7.094 3.183 7.094 7.095v42.277a7.102 7.102 0 01-7.094 7.094zM7.094 5.886a4.987 4.987 0 00-4.98 4.98v42.278a4.987 4.987 0 004.98 4.981h49.812a4.987 4.987 0 004.98-4.981V10.868a4.987 4.987 0 00-4.98-4.981H7.094z" fill="#fff"/><path d="M62.943 20.693H1.057a1.056 1.056 0 110-2.113h61.886a1.057 1.057 0 010 2.113zm-44.89-5.056a3.348 3.348 0 01-3.344-3.344c0-1.844 1.5-3.344 3.344-3.344 1.844 0 3.344 1.5 3.344 3.344 0 1.843-1.5 3.344-3.344 3.344zm0-4.575a1.231 1.231 0 000 2.461 1.232 1.232 0 000-2.46zM7.78 15.604a3.348 3.348 0 01-3.344-3.343c0-1.844 1.5-3.344 3.343-3.344 1.844 0 3.344 1.5 3.344 3.344 0 1.844-1.5 3.344-3.344 3.344zm0-4.574a1.231 1.231 0 00-.001 2.461 1.232 1.232 0 000-2.46zm20.547 4.639a3.347 3.347 0 01-3.344-3.344c0-1.843 1.5-3.343 3.344-3.343 1.843 0 3.343 1.5 3.343 3.343 0 1.844-1.5 3.344-3.343 3.344zm0-4.574a1.232 1.232 0 000 2.46 1.231 1.231 0 000-2.46z" fill="#fff"/></g><defs><clipPath id="clip0_2132_3921"><path fill="#fff" d="M0 0h64v64H0z"/></clipPath></defs></svg>