<svg width="64" height="64" viewBox="0 0 64 64" fill="none" xmlns="http://www.w3.org/2000/svg"><g clip-path="url(#clip0_2132_3939)"><path d="M56.906 60.24H7.094A7.102 7.102 0 010 53.144V10.868c0-3.912 3.183-7.095 7.094-7.095h49.812c3.911 0 7.094 3.183 7.094 7.095v42.277a7.102 7.102 0 01-7.094 7.094zM7.094 5.886a4.987 4.987 0 00-4.98 4.98v42.278a4.987 4.987 0 004.98 4.981h49.812a4.987 4.987 0 004.98-4.981V10.868a4.987 4.987 0 00-4.98-4.981H7.094z" fill="#07F"/><path d="M62.943 20.693H1.057a1.056 1.056 0 110-2.113h61.886a1.057 1.057 0 010 2.113zm-44.89-5.056a3.348 3.348 0 01-3.344-3.344c0-1.844 1.5-3.344 3.344-3.344 1.844 0 3.344 1.5 3.344 3.344 0 1.843-1.5 3.344-3.344 3.344zm0-4.575a1.231 1.231 0 000 2.461 1.232 1.232 0 000-2.46zM7.78 15.604a3.348 3.348 0 01-3.344-3.343c0-1.844 1.5-3.344 3.344-3.344 1.843 0 3.343 1.5 3.343 3.344 0 1.844-1.5 3.344-3.343 3.344zm0-4.574a1.231 1.231 0 00-.001 2.461 1.232 1.232 0 000-2.46zm20.547 4.639a3.347 3.347 0 01-3.344-3.344c0-1.843 1.5-3.343 3.344-3.343 1.843 0 3.343 1.5 3.343 3.343 0 1.844-1.5 3.344-3.343 3.344zm0-4.574a1.232 1.232 0 000 2.46 1.231 1.231 0 000-2.46z" fill="#07F"/><path stroke="#4DA0FF" stroke-width="2" d="M24.334 30h13"/><mask id="a" fill="#fff"><path d="M22.334 46a2 2 0 012-2h10a2 2 0 012 2v3a2 2 0 01-2 2h-10a2 2 0 01-2-2v-3z"/></mask><path d="M22.334 44h14-14zm16 5a4 4 0 01-4 4h-8a4 4 0 01-4-4h16zm-16 2v-7 7zm12-7a4 4 0 014 4v1a4 4 0 01-4 4v-9z" fill="#4DA0FF" mask="url(#a)"/><mask id="b" fill="#fff"><path d="M30.334 35a2 2 0 00-2-2h-8a2 2 0 00-2 2v6a2 2 0 002 2h8a2 2 0 002-2v-6z"/></mask><path d="M30.334 33h-12 12zm-14 8a4 4 0 004 4h6a4 4 0 004-4h-14zm14 2V33v10zm-10-10a4 4 0 00-4 4v4a4 4 0 004 4V33z" fill="#4DA0FF" mask="url(#b)"/><rect x="15.334" y="26" width="8" height="8" rx="1" stroke="#07F" stroke-width="2"/><rect x="29.334" y="39" width="11" height="6" rx="1" stroke="#FF8F00" stroke-width="2"/><rect x="15.334" y="45" width="8" height="8" rx="1" stroke="#07F" stroke-width="2"/><rect x="37.334" y="26" width="13" height="8" rx="1" stroke="#07F" stroke-width="2"/><path fill="#FF8F00" d="M30.334 40h9v4h-9z"/></g><defs><clipPath id="clip0_2132_3939"><path fill="#fff" d="M0 0h64v64H0z"/></clipPath></defs></svg>