<svg width="64" height="64" viewBox="0 0 64 64" fill="none" xmlns="http://www.w3.org/2000/svg"><path d="M56.406 13.294a30.616 30.616 0 016.343 18.707c0 16.983-13.768 30.75-30.75 30.75A30.615 30.615 0 0113.33 56.44m.958-49.579a30.609 30.609 0 0117.711-5.61c7.041 0 13.53 2.367 18.713 6.348M7.55 50.655a30.615 30.615 0 01-6.3-18.653 30.615 30.615 0 015.208-17.13" stroke="#07F" stroke-width="2.5" stroke-miterlimit="10" stroke-linecap="round" stroke-linejoin="round"/><path d="M1.485 28.199A30.283 30.283 0 019.89 10.523a30.263 30.263 0 0115.599-8.565m15.595 44.294c-1.713 9.807-5.139 16.5-9.086 16.5-5.66 0-10.25-13.768-10.25-30.75 0-2.141.073-4.23.212-6.248m.944-7.949c1.71-9.837 5.14-16.554 9.095-16.554 5.66 0 10.25 13.768 10.25 30.75 0 2.142-.073 4.232-.212 6.25m-38.58 4h34.208M26.79 21.752h33.75m-57.082 0h14.79" stroke="#07F" stroke-width="2.5" stroke-miterlimit="10" stroke-linecap="round" stroke-linejoin="round"/><path d="M26.248 21.752a4 4 0 10-8 0 4 4 0 008 0z" stroke="#4DA0FF" stroke-width="2.5" stroke-miterlimit="10" stroke-linecap="round" stroke-linejoin="round"/><path d="M57.75 10.252a4 4 0 10-8 0 4 4 0 008 0z" stroke="#FF8F00" stroke-width="2.5" stroke-miterlimit="10" stroke-linecap="round" stroke-linejoin="round"/><path d="M14.248 53.752a4 4 0 10-8 0 4 4 0 008 0z" stroke="#3392FF" stroke-width="2.5" stroke-miterlimit="10" stroke-linecap="round" stroke-linejoin="round"/><path d="M45.665 42.252H60.54" stroke="#07F" stroke-width="2.5" stroke-miterlimit="10" stroke-linecap="round" stroke-linejoin="round"/><path d="M45.665 42.252a4 4 0 10-8 0 4 4 0 008 0z" stroke="#FFA533" stroke-width="2.5" stroke-miterlimit="10" stroke-linecap="round" stroke-linejoin="round"/></svg>