<svg width="64" height="64" viewBox="0 0 64 64" fill="none" xmlns="http://www.w3.org/2000/svg"><path opacity=".5" d="M8.5 40.559c-4.687 0-8.5-3.813-8.5-8.5 0-4.686 3.813-8.5 8.5-8.5 4.686 0 8.5 3.813 8.5 8.5 0 4.687-3.814 8.5-8.5 8.5zm0-15.133a6.64 6.64 0 00-6.633 6.633A6.64 6.64 0 008.5 38.692a6.64 6.64 0 006.633-6.633A6.64 6.64 0 008.5 25.426z" fill="#26e90c"/><path opacity=".5" d="M10.214 34.706a.93.93 0 01-.66-.273l-3.428-3.428a.934.934 0 011.32-1.32l3.428 3.428a.933.933 0 01-.66 1.593z" fill="#26e90c"/><path opacity=".5" d="M6.786 34.706a.934.934 0 01-.66-1.593l3.428-3.428a.934.934 0 011.32 1.32l-3.428 3.428a.93.93 0 01-.66.273z" fill="#26e90c"/><path d="M8.5 21.934c-4.687 0-8.5-3.813-8.5-8.5 0-4.686 3.813-8.5 8.5-8.5 4.686 0 8.5 3.814 8.5 8.5 0 4.687-3.814 8.5-8.5 8.5zM8.5 6.8a6.64 6.64 0 00-6.633 6.633A6.64 6.64 0 008.5 20.067a6.64 6.64 0 006.633-6.633A6.64 6.64 0 008.5 6.801z" fill="#26e90c"/><path d="M7.624 16.068a.93.93 0 01-.686-.3L4.976 13.64a.933.933 0 111.373-1.265l1.33 1.442 3.028-2.773a.934.934 0 011.26 1.376l-3.713 3.402a.93.93 0 01-.63.245z" fill="#26e90c"/><path opacity=".5" d="M17 31h4v2h-4v-2z" fill="#26e90c"/><path d="M20.334 31h8v2h-8v-2z" fill="#26e90c"/><path d="M25.44 36.36a.934.934 0 01-.66-1.593l2.832-2.833-2.832-2.832a.934.934 0 011.32-1.32l3.492 3.492a.933.933 0 010 1.32L26.1 36.086a.93.93 0 01-.66.274zm34.959 11.855H33.733a3.604 3.604 0 01-3.6-3.6V19.503c0-1.985 1.616-3.6 3.6-3.6H60.4c1.985 0 3.6 1.615 3.6 3.6v25.112c0 1.985-1.615 3.6-3.6 3.6zM33.733 17.77c-.955 0-1.733.777-1.733 1.733v25.112c0 .956.778 1.733 1.733 1.733H60.4c.956 0 1.733-.777 1.733-1.733V19.503c0-.956-.777-1.733-1.733-1.733H33.733z" fill="#26e90c"/><path d="M63.066 26.064h-32a.934.934 0 010-1.867h32a.933.933 0 110 1.867zM41.921 23.23a2.217 2.217 0 01-2.215-2.214c0-1.22.994-2.214 2.215-2.214 1.22 0 2.215.994 2.215 2.214a2.217 2.217 0 01-2.215 2.215zm0-2.561a.348.348 0 100 .696.348.348 0 000-.696zm-5.755 2.544A2.217 2.217 0 0133.952 21c0-1.221.993-2.215 2.214-2.215s2.214.994 2.214 2.215c0 1.22-.993 2.214-2.214 2.214zm0-2.562a.348.348 0 100 .695.348.348 0 000-.695zm11.509 2.599a2.217 2.217 0 01-2.215-2.215c0-1.221.994-2.214 2.215-2.214 1.22 0 2.215.993 2.215 2.214a2.217 2.217 0 01-2.215 2.214zm0-2.563a.349.349 0 10.001.697.349.349 0 00-.001-.697zM20.81 51.81h-4.897v-1.867h3.964V14.171h-3.964v-1.866h4.897c.515 0 .933.418.933.933v37.638a.934.934 0 01-.933.934z" fill="#26e90c"/><path d="M8.5 59.184c-4.687 0-8.5-3.813-8.5-8.5 0-4.686 3.813-8.5 8.5-8.5 4.686 0 8.5 3.814 8.5 8.5 0 4.687-3.814 8.5-8.5 8.5zm0-15.133a6.64 6.64 0 00-6.633 6.633A6.64 6.64 0 008.5 57.318a6.64 6.64 0 006.633-6.634A6.64 6.64 0 008.5 44.051z" fill="#26e90c"/><path d="M7.624 53.318a.93.93 0 01-.686-.3L4.976 50.89a.933.933 0 111.373-1.266l1.33 1.443 3.028-2.773a.934.934 0 011.26 1.377l-3.713 3.401a.928.928 0 01-.63.245z" fill="#26e90c"/><rect x="35.334" y="30" width="22" height="4" rx="1" stroke="#26e90c" stroke-width="2"/><rect opacity=".5" x="35.334" y="38" width="13" height="4" rx="1" stroke="#26e90c" stroke-width="2"/></svg>