<?xml version="1.0" encoding="UTF-8"?>
<svg xmlns="http://www.w3.org/2000/svg" width="51" height="51" viewBox="0 0 51 51" fill="none">
  <circle cx="25.5" cy="25.5" r="24.5" fill="white" stroke="#0077FF" stroke-width="2"></circle>
  <path fill-rule="evenodd" clip-rule="evenodd" d="M22.1477 16.6135C23.2447 15.4622 24.7714 14.7492 26.458 14.7492C28.7068 14.7492 30.6558 16.0089 31.7053 17.8858C32.6369 17.4659 33.6459 17.2491 34.6663 17.2497C38.7142 17.2497 42 20.5878 42 24.7068C42 28.8259 38.7142 32.164 34.6663 32.164C34.1715 32.164 33.6893 32.1139 33.217 32.0191C32.2987 33.6693 30.5434 34.7904 28.5444 34.7904C27.7306 34.792 26.9271 34.6059 26.1956 34.2462C25.2649 36.4506 23.0972 38 20.5735 38C17.9374 38 15.701 36.3247 14.839 33.9691C14.4553 34.0507 14.0642 34.0918 13.6721 34.0915C10.5362 34.0915 8 31.4966 8 28.3097C8 26.1683 9.14191 24.304 10.836 23.2963C10.4766 22.4615 10.2916 21.561 10.2926 20.651C10.2926 16.9728 13.2535 14 16.9017 14C19.0381 14 20.9496 15.0266 22.149 16.6201" fill="#0077FF"></path>
  <path fill-rule="evenodd" clip-rule="evenodd" d="M12.0081 26.5963C11.9856 26.6484 12.0162 26.6593 12.0234 26.6685C12.0907 26.7117 12.1591 26.743 12.2276 26.7781C12.5937 26.9498 12.9388 27 13.2997 27C14.0347 27 14.4917 26.6532 14.4917 26.095V26.084C14.4917 25.5679 13.9754 25.3799 13.4933 25.2456L13.4302 25.2275C13.0654 25.1226 12.7506 25.0313 12.7506 24.8188V24.8079C12.7506 24.6258 12.935 24.4915 13.2195 24.4915C13.5356 24.4915 13.9123 24.5848 14.1533 24.7029C14.1533 24.7029 14.2247 24.7437 14.2507 24.6827C14.2648 24.6496 14.3877 24.358 14.4008 24.3253C14.4148 24.2911 14.3903 24.2653 14.3651 24.252C14.0885 24.1025 13.7066 24.0009 13.3114 24.0009L13.2381 24.0012C12.565 24.0012 12.0948 24.362 12.0948 24.8781V24.8892C12.0948 25.4334 12.6138 25.6109 13.0985 25.7335L13.1764 25.755C13.5294 25.8512 13.835 25.9348 13.835 26.1543V26.1653C13.835 26.3673 13.6361 26.518 13.3174 26.518C13.1934 26.518 12.7984 26.5161 12.3704 26.2762C12.3186 26.2495 12.2891 26.2302 12.2492 26.2086C12.2281 26.1973 12.1754 26.1769 12.1525 26.2381L12.0076 26.5954M22.7685 26.5954C22.746 26.6475 22.7765 26.6583 22.784 26.6675C22.8511 26.7108 22.9197 26.742 22.9882 26.7772C23.3544 26.9489 23.6994 26.9991 24.0603 26.9991C24.7953 26.9991 25.2523 26.6523 25.2523 26.0941V26.0831C25.2523 25.567 24.7373 25.379 24.254 25.2447L24.1909 25.2266C23.826 25.1217 23.5112 25.0304 23.5112 24.8179V24.807C23.5112 24.6248 23.6956 24.4906 23.9801 24.4906C24.2962 24.4906 24.6716 24.5839 24.914 24.7019C24.914 24.7019 24.9853 24.7428 25.0114 24.6817C25.0254 24.6487 25.1484 24.3571 25.1603 24.3244C25.1744 24.2902 25.1497 24.2644 25.1247 24.2511C24.8481 24.1016 24.4661 24 24.071 24L23.9975 24.0002C23.3245 24.0002 22.8542 24.3611 22.8542 24.8772V24.8883C22.8542 25.4324 23.3732 25.6099 23.8579 25.7326L23.9357 25.754C24.29 25.8503 24.5943 25.9339 24.5943 26.1534V26.1644C24.5943 26.3664 24.3954 26.517 24.0767 26.517C23.9525 26.517 23.5564 26.5152 23.1297 26.2753C23.0779 26.2486 23.0476 26.2301 23.0083 26.2077C22.995 26.2002 22.933 26.1787 22.9118 26.2371L22.7669 26.5944M30.1165 25.5015C30.1165 25.8167 30.0501 26.0655 29.9202 26.2418C29.7906 26.4158 29.5949 26.501 29.3222 26.501C29.0496 26.501 28.8547 26.4165 28.7269 26.243C28.5982 26.0678 28.5333 25.8179 28.5333 25.5026C28.5333 25.1873 28.5986 24.9398 28.7269 24.7658C28.8544 24.593 29.0483 24.5101 29.3222 24.5101C29.5962 24.5101 29.7911 24.5938 29.9202 24.7658C30.0509 24.9398 30.1165 25.1873 30.1165 25.5026M30.7302 24.9176C30.6698 24.7366 30.5761 24.5778 30.451 24.4447C30.3258 24.3115 30.1678 24.2041 29.9795 24.127C29.7924 24.0494 29.5712 24.0103 29.3209 24.0103C29.0707 24.0103 28.8507 24.0496 28.6624 24.127C28.4753 24.2046 28.316 24.3115 28.1908 24.4447C28.066 24.5778 27.9722 24.7366 27.9116 24.9176C27.8517 25.0974 27.8212 25.2936 27.8212 25.5026C27.8212 25.7116 27.8517 25.9078 27.9116 26.0877C27.9718 26.2687 28.0657 26.4275 28.1908 26.5606C28.3161 26.6937 28.4753 26.8 28.6624 26.8759C28.8507 26.9515 29.072 26.9901 29.3209 26.9901C29.5699 26.9901 29.7911 26.9515 29.9782 26.8759C30.1652 26.8002 30.3246 26.6937 30.4497 26.5606C30.5747 26.4275 30.6683 26.2687 30.7289 26.0877C30.7887 25.9078 30.8191 25.7116 30.8191 25.5026C30.8191 25.2948 30.7887 25.0974 30.7289 24.9176M35.7735 26.4123C35.7533 26.3594 35.6951 26.3794 35.6951 26.3794C35.606 26.4096 35.5107 26.4376 35.4093 26.4516C35.3071 26.4659 35.1933 26.473 35.0734 26.473C34.7771 26.473 34.54 26.3947 34.3714 26.2395C34.2015 26.0842 34.1067 25.8343 34.108 25.4956C34.1089 25.1873 34.193 24.9561 34.3438 24.7786C34.4926 24.6035 34.7218 24.5124 35.0247 24.5124C35.2776 24.5124 35.4712 24.5384 35.6741 24.5947C35.6741 24.5947 35.7221 24.6133 35.7452 24.5571C35.799 24.4252 35.8388 24.3306 35.8966 24.1858C35.913 24.1443 35.8729 24.1268 35.8583 24.1218C35.7788 24.0942 35.5909 24.049 35.4487 24.03C35.3157 24.012 35.1616 24.0027 34.9877 24.0027C34.7295 24.0027 34.5004 24.0418 34.3041 24.1193C34.1079 24.1968 33.9419 24.3038 33.8102 24.437C33.6785 24.5701 33.5784 24.7289 33.5112 24.9099C33.4447 25.0897 33.4111 25.2871 33.4111 25.4961C33.4111 25.9468 33.5481 26.3123 33.8194 26.5797C34.0907 26.8483 34.4991 26.9838 35.0312 26.9838C35.346 26.9838 35.6687 26.9274 35.9005 26.846C35.9005 26.846 35.9447 26.8271 35.9255 26.7813L35.774 26.4123M36.8475 25.1979C36.8769 25.0227 36.931 24.8767 37.0161 24.7635C37.1434 24.5906 37.3374 24.496 37.6101 24.496C37.8827 24.496 38.0632 24.5911 38.1923 24.7635C38.2779 24.8773 38.3153 25.0285 38.3292 25.1979L36.8409 25.1976L36.8475 25.1979ZM38.9154 24.8125C38.8631 24.6385 38.7336 24.4622 38.6493 24.3816C38.515 24.2543 38.3846 24.1644 38.2542 24.1154C38.0659 24.0444 37.8634 24.008 37.6588 24.0083C37.3994 24.0083 37.1636 24.0472 36.9726 24.1262C36.7816 24.2059 36.6209 24.3142 36.4945 24.4497C36.3682 24.5851 36.2732 24.7451 36.2126 24.9285C36.152 25.1095 36.1215 25.308 36.1215 25.5158C36.1215 25.7283 36.1532 25.9257 36.2157 26.1044C36.2787 26.2842 36.3803 26.4418 36.5173 26.5726C36.6543 26.7046 36.8294 26.8073 37.0402 26.8797C37.2496 26.9515 37.5038 26.9888 37.7949 26.988C38.3955 26.9862 38.7116 26.8677 38.8407 26.8035C38.8637 26.792 38.8855 26.7723 38.8583 26.7154L38.7227 26.378C38.7019 26.3276 38.6444 26.3458 38.6444 26.3458C38.4956 26.3951 38.2849 26.4836 37.7909 26.4825C37.4682 26.482 37.2298 26.3976 37.0797 26.2653C36.9269 26.1298 36.8505 25.9325 36.8387 25.6522L38.9197 25.6536C38.9197 25.6536 38.9745 25.6531 38.9802 25.6057C38.9824 25.5861 39.0514 25.2274 38.9181 24.8129L38.9154 24.8125ZM20.2122 25.1979C20.2416 25.0227 20.2959 24.8767 20.3808 24.7635C20.5083 24.5906 20.7022 24.496 20.9748 24.496C21.2475 24.496 21.4279 24.5911 21.557 24.7635C21.6425 24.8773 21.6799 25.0285 21.694 25.1979L20.2056 25.1976L20.2122 25.1979ZM22.2801 24.8125C22.228 24.6385 22.0983 24.4622 22.0141 24.3816C21.8797 24.2543 21.7493 24.1644 21.6189 24.1154C21.4307 24.0444 21.2281 24.008 21.0236 24.0083C20.7641 24.0083 20.5283 24.0472 20.3374 24.1262C20.1464 24.2059 19.9857 24.3142 19.8592 24.4497C19.7332 24.5851 19.638 24.7451 19.5774 24.9285C19.5169 25.1095 19.4865 25.308 19.4865 25.5158C19.4865 25.7283 19.518 25.9257 19.5808 26.1044C19.6438 26.2842 19.7454 26.4418 19.8811 26.5726C20.0181 26.7046 20.1933 26.8073 20.404 26.8797C20.6134 26.9515 20.8663 26.9888 21.1587 26.988C21.7593 26.9862 22.0754 26.8677 22.2045 26.8035C22.2274 26.792 22.2493 26.7723 22.222 26.7154L22.0864 26.378C22.0654 26.3276 22.008 26.3458 22.008 26.3458C21.8592 26.3951 21.6484 26.4836 21.1545 26.4825C20.8331 26.482 20.5934 26.3976 20.4433 26.2653C20.2905 26.1298 20.2141 25.9325 20.2022 25.6522L22.2833 25.6536C22.2833 25.6536 22.3381 25.6531 22.3437 25.6057C22.346 25.5861 22.415 25.2274 22.2816 24.8129L22.2801 24.8125ZM15.7208 26.4006C15.6393 26.3429 15.628 26.3288 15.601 26.2913C15.5598 26.2349 15.5387 26.1547 15.5387 26.0519C15.5387 25.8908 15.5993 25.774 15.7244 25.6958C15.7231 25.696 15.9035 25.558 16.3276 25.5626C16.5164 25.5656 16.7048 25.5799 16.8914 25.6053V26.4425H16.8916C16.8916 26.4425 16.6282 26.4929 16.3305 26.5087C15.9077 26.5313 15.7207 26.4008 15.722 26.4012L15.7208 26.4006ZM16.548 25.1044C16.4637 25.0989 16.3544 25.0963 16.224 25.0963C16.0462 25.0963 15.8736 25.1159 15.7129 25.1544C15.5509 25.1932 15.4047 25.2532 15.2796 25.3331C15.1541 25.4124 15.0509 25.5163 14.978 25.6367C14.9044 25.7581 14.8668 25.9006 14.8668 26.0617C14.8668 26.2252 14.8988 26.3665 14.9621 26.4821C15.024 26.5968 15.1173 26.6959 15.2334 26.7705C15.3489 26.845 15.4915 26.9002 15.6562 26.9329C15.8195 26.9659 16.0039 26.9826 16.2067 26.9826C16.4201 26.9826 16.6322 26.9667 16.8376 26.936C17.0126 26.9092 17.187 26.8792 17.3605 26.8459C17.4298 26.8317 17.5067 26.8132 17.5067 26.8132C17.5581 26.8016 17.5542 26.7529 17.5542 26.7529L17.553 25.0714C17.553 24.7024 17.4418 24.428 17.2224 24.2587C17.0037 24.0893 16.6837 24.0041 16.2688 24.0041C16.1134 24.0041 15.8618 24.0228 15.7116 24.0495C15.7116 24.0495 15.2585 24.1275 15.0715 24.2574C15.0715 24.2574 15.0304 24.2798 15.0528 24.3306L15.2003 24.6809C15.2186 24.7263 15.2685 24.7108 15.2685 24.7108C15.2685 24.7108 15.2842 24.7053 15.3027 24.6956C15.7018 24.5029 16.2075 24.5088 16.2075 24.5088C16.4314 24.5088 16.6053 24.5491 16.7212 24.6279C16.8346 24.7051 16.8924 24.8217 16.8924 25.0669V25.1448C16.7146 25.1219 16.55 25.1088 16.55 25.1088L16.548 25.1044ZM33.2754 24.1551C33.2784 24.1489 33.28 24.1423 33.2801 24.1356C33.2801 24.1289 33.2786 24.1222 33.2757 24.116C33.2728 24.1099 33.2685 24.1042 33.2631 24.0996C33.2577 24.0949 33.2513 24.0912 33.2442 24.0887C33.2088 24.0768 33.0322 24.0438 32.8965 24.0363C32.6357 24.0218 32.4908 24.0608 32.3604 24.1127C32.2316 24.1642 32.0891 24.247 32.0101 24.3427L32.0098 24.1185C32.0098 24.0877 31.9852 24.0628 31.9502 24.0628H31.418C31.3835 24.0628 31.3585 24.0877 31.3585 24.1185V26.8627C31.3585 26.8775 31.3652 26.8917 31.377 26.9022C31.3888 26.9127 31.4049 26.9186 31.4216 26.9186H31.9669C31.9836 26.9186 31.9996 26.9127 32.0114 26.9022C32.0232 26.8917 32.0298 26.8775 32.0298 26.8627V25.4848C32.0298 25.3003 32.0528 25.1169 32.0985 25.0013C32.1435 24.887 32.2048 24.7958 32.2802 24.7304C32.3522 24.6673 32.4403 24.6204 32.5371 24.5938C32.6279 24.5707 32.7218 24.559 32.8163 24.559C32.925 24.559 33.0442 24.5837 33.0442 24.5837C33.0842 24.5877 33.1065 24.566 33.12 24.534C33.1557 24.4498 33.257 24.1977 33.2768 24.1475" fill="#FFFFFE"></path>
  <path fill-rule="evenodd" clip-rule="evenodd" d="M27.9579 23.0578C27.8905 23.0411 27.8219 23.0278 27.7525 23.0179C27.6591 23.0052 27.5646 22.9992 27.4699 23.0001C27.0939 23.0001 26.7976 23.0869 26.5895 23.2583C26.3828 23.4284 26.2422 23.6875 26.1717 24.0285L26.1463 24.1436H25.6743C25.6743 24.1436 25.6168 24.1416 25.6046 24.193L25.5271 24.5461C25.5217 24.5799 25.5395 24.601 25.5949 24.6008H26.0543L25.5882 26.7264C25.5517 26.8976 25.5099 27.0385 25.4636 27.1451C25.418 27.2504 25.3735 27.3294 25.3187 27.3866C25.2656 27.4421 25.2152 27.4829 25.1284 27.5067C25.0567 27.5264 24.9742 27.5354 24.8838 27.5354C24.8334 27.5354 24.7665 27.5285 24.7171 27.5205C24.6676 27.5125 24.6419 27.5035 24.6049 27.4907C24.6049 27.4907 24.551 27.474 24.5298 27.5181C24.5125 27.5542 24.3901 27.8292 24.3756 27.8633C24.3609 27.8969 24.3815 27.9233 24.4076 27.931C24.4688 27.9489 24.5142 27.9603 24.5975 27.9763C24.7132 27.9986 24.8108 28 24.9021 28C25.0934 28 25.2678 27.978 25.4124 27.9354C25.5579 27.8924 25.6845 27.8176 25.7965 27.7163C25.9176 27.607 25.9938 27.4926 26.0667 27.3365C26.1388 27.1818 26.2002 26.9897 26.2493 26.7658L26.7177 24.6008H27.4024C27.4024 24.6008 27.4602 24.6025 27.4722 24.5514L27.5496 24.1983C27.555 24.1645 27.5374 24.1434 27.4818 24.1436H26.8172C26.8205 24.1313 26.8507 23.9403 26.927 23.7605C26.9595 23.6837 27.0208 23.6218 27.0727 23.5793C27.1212 23.5388 27.1809 23.5084 27.2468 23.4908C27.319 23.4726 27.3943 23.4637 27.4699 23.4645C27.5325 23.4645 27.5939 23.4707 27.6407 23.4786C27.7052 23.4898 27.7302 23.4958 27.7471 23.4999C27.8148 23.5168 27.8239 23.5004 27.8372 23.4736L27.9961 23.117C28.0125 23.0787 27.9727 23.0625 27.9579 23.0578ZM18.6705 26.731C18.6705 26.7594 18.6457 26.7825 18.611 26.7825H18.0597C18.0248 26.7825 18 26.7594 18 26.731V23.1061C18 23.0778 18.0248 23.0549 18.0597 23.0549H18.611C18.6457 23.0549 18.6705 23.0778 18.6705 23.1061V26.731Z" fill="#FFFFFE"></path>
</svg>
