<?xml version="1.0" encoding="UTF-8"?>
<svg xmlns="http://www.w3.org/2000/svg" width="51" height="51" viewBox="0 0 51 51" fill="none">
  <circle cx="25.5" cy="25.5" r="24.5" fill="white" stroke="#0077FF" stroke-width="2"></circle>
  <path d="M24.6848 11.0006C23.4593 11.0063 22.289 11.1096 21.2595 11.2901C18.2261 11.8211 17.6756 12.9317 17.6756 14.9801V17.6856H24.8434V18.5873H14.9821C12.8988 18.5873 11.0746 19.8275 10.5046 22.1863C9.84656 24.8902 9.8172 26.5776 10.5046 29.401C11.0143 31.5028 12.2311 33 14.3141 33H16.7788V29.7569C16.7788 27.4136 18.8258 25.3469 21.2563 25.3469H28.4161C30.4091 25.3469 32 23.7217 32 21.7394V14.9798C32 13.0559 30.3612 11.6106 28.4161 11.2898C27.1849 11.0868 25.9071 10.9946 24.6816 11.0002L24.6848 11.0006ZM20.805 13.176C21.5454 13.176 22.1502 13.7847 22.1502 14.5329C22.1502 15.2788 21.5454 15.8815 20.805 15.8815C20.0621 15.8815 19.4599 15.2785 19.4599 14.5329C19.4599 13.7844 20.0618 13.176 20.805 13.176Z" fill="#0077FF"></path>
  <path d="M33.1903 19V22.1283C33.1903 24.5538 31.1023 26.5947 28.7219 26.5947H21.5766C19.6195 26.5947 18 28.2445 18 30.1747V36.883C18 38.7922 19.6858 39.915 21.5766 40.463C23.8379 41.1185 26.0125 41.2371 28.7219 40.463C30.5229 39.9495 32.2985 38.9161 32.2985 36.883V34.1982H25.1532V33.3033H35.8751C37.9542 33.3033 38.7288 31.8753 39.4517 29.7318C40.1986 27.525 40.1667 25.4028 39.4517 22.5721C38.938 20.5341 37.9568 19.0006 35.8751 19.0006H33.1903V19ZM29.1716 35.9882C29.913 35.9882 30.514 36.5866 30.514 37.3265C30.514 38.0692 29.9134 38.673 29.1716 38.673C28.4327 38.673 27.8292 38.0689 27.8292 37.3265C27.8292 36.5863 28.4327 35.9882 29.1716 35.9882Z" fill="#4DA0FF"></path>
</svg>
