<?xml version="1.0" encoding="UTF-8"?>
<svg xmlns="http://www.w3.org/2000/svg" width="51" height="51" viewBox="0 0 51 51" fill="none">
  <path fill-rule="evenodd" clip-rule="evenodd" d="M25.5 0C11.4167 0 0 11.4167 0 25.5C0 39.5833 11.4167 51 25.5 51C39.5833 51 51 39.5833 51 25.5C51 11.4167 39.5833 0 25.5 0ZM25.5001 1.53008C28.7367 1.53008 31.8757 2.16365 34.8298 3.41313C36.2498 4.01373 37.6195 4.75723 38.9009 5.62283C40.1705 6.48055 41.3643 7.46564 42.4494 8.55072C43.5345 9.63579 44.5196 10.8297 45.3773 12.0992C46.243 13.3806 46.9864 14.7504 47.587 16.1704C48.8366 19.1245 49.4701 22.2635 49.4701 25.5001C49.4701 28.7367 48.8366 31.8757 47.587 34.8298C46.9864 36.2498 46.243 37.6195 45.3773 38.9009C44.5196 40.1705 43.5345 41.3643 42.4494 42.4494C41.3643 43.5345 40.1705 44.5196 38.9009 45.3773C37.6195 46.243 36.2498 46.9864 34.8298 47.587C31.8757 48.8366 28.7367 49.4701 25.5001 49.4701C22.2635 49.4701 19.1245 48.8366 16.1704 47.587C14.7504 46.9864 13.3806 46.243 12.0993 45.3773C10.8297 44.5196 9.6358 43.5345 8.55073 42.4494C7.46565 41.3643 6.48056 40.1705 5.62284 38.9009C4.75724 37.6195 4.01374 36.2498 3.41314 34.8298C2.16366 31.8757 1.53009 28.7367 1.53009 25.5001C1.53009 22.2635 2.16366 19.1245 3.41314 16.1704C4.01374 14.7504 4.75724 13.3806 5.62284 12.0992C6.48056 10.8297 7.46565 9.63579 8.55073 8.55072C9.6358 7.46564 10.8297 6.48055 12.0993 5.62283C13.3806 4.75723 14.7504 4.01373 16.1704 3.41313C19.1245 2.16365 22.2635 1.53008 25.5001 1.53008Z" fill="#0077FF"></path>
  <path fill-rule="evenodd" clip-rule="evenodd" d="M40.857 17.1042C40.9321 17.6615 40.9746 18.2594 40.9746 18.9036C40.9746 20.6787 40.642 22.675 39.6435 25.1715L34.2985 40.6254C39.5013 37.5922 43.0002 31.9556 43.0002 25.4995C43.0002 22.4569 42.2227 19.5966 40.857 17.1042ZM25.8074 27.0301L20.5559 42.2872C22.1242 42.7486 23.7823 43.0003 25.5 43.0003C27.5378 43.0003 29.4929 42.6485 31.3117 42.0081C31.2649 41.9332 31.2218 41.8537 31.1862 41.7669L25.8074 27.0301ZM37.3139 24.617C37.3139 22.4535 36.5368 20.9561 35.8713 19.7908C34.9841 18.3486 34.1522 17.1285 34.1522 15.6863C34.1522 14.0779 35.3719 12.5805 37.091 12.5805C37.1687 12.5805 37.2422 12.5898 37.3176 12.5946C34.204 9.74179 30.0558 8 25.4998 8C19.3857 8 14.0071 11.1371 10.8779 15.8875C11.2888 15.9006 11.6759 15.9088 12.0042 15.9088C13.8342 15.9088 16.6684 15.6863 16.6684 15.6863C17.6113 15.631 17.7227 17.017 16.7803 17.1285C16.7803 17.1285 15.832 17.2395 14.7776 17.2947L21.1501 36.2507L24.9804 24.765L22.254 17.2947C21.3111 17.2395 20.4186 17.1285 20.4186 17.1285C19.4752 17.0728 19.5857 15.631 20.5296 15.6863C20.5296 15.6863 23.419 15.9088 25.1385 15.9088C26.9685 15.9088 29.8032 15.6863 29.8032 15.6863C30.7465 15.631 30.8575 17.017 29.9147 17.1285C29.9147 17.1285 28.9654 17.2395 27.9119 17.2947L34.2363 36.1063L36.0416 30.3857C36.8437 27.8857 37.3139 26.1144 37.3139 24.617ZM7.99951 25.4996C7.99951 32.4263 12.0246 38.4128 17.8629 41.2492L9.51487 18.3777C8.54384 20.5539 7.99951 22.9625 7.99951 25.4996Z" fill="#0077FF"></path>
</svg>
