<?xml version="1.0" encoding="UTF-8"?>
<svg xmlns="http://www.w3.org/2000/svg" width="791" height="414" viewBox="0 0 791 414" fill="none">
  <path fill="#1377FD" d="M0 0h791v414H0z"></path>
  <path opacity=".065" d="M259.861 36L730 245.736 60 356 259.861 36z" fill="#fff"></path>
  <g filter="url(#filter0_d_652_57116)">
    <circle cx="396" cy="207" r="160" fill="#0163E5"></circle>
  </g>
  <path fill-rule="evenodd" clip-rule="evenodd" d="M396 58c-82.291 0-149 66.709-149 149 0 82.29 66.709 149 149 149s149-66.71 149-149c0-82.291-66.709-149-149-149zm0 8.94c18.912 0 37.253 3.702 54.515 11.003a140.085 140.085 0 0123.788 12.911 141.126 141.126 0 0120.734 17.108 141.075 141.075 0 0117.108 20.735 139.975 139.975 0 0112.912 23.788c7.301 17.261 11.003 35.603 11.003 54.515s-3.702 37.253-11.003 54.514a139.937 139.937 0 01-12.912 23.788 140.971 140.971 0 01-17.108 20.735 141.142 141.142 0 01-20.734 17.108 140.115 140.115 0 01-23.788 12.912c-17.262 7.301-35.603 11.003-54.515 11.003s-37.253-3.702-54.515-11.003a140.115 140.115 0 01-23.788-12.912 141.142 141.142 0 01-20.734-17.108 140.971 140.971 0 01-17.108-20.735 140.007 140.007 0 01-12.912-23.788c-7.301-17.261-11.003-35.602-11.003-54.514 0-18.912 3.702-37.254 11.003-54.515a140.045 140.045 0 0112.912-23.788 141.075 141.075 0 0117.108-20.735 141.126 141.126 0 0120.734-17.108 140.085 140.085 0 0123.788-12.911C358.747 70.642 377.088 66.94 396 66.94zm339.55 317.352c.518.173.98.46 1.383.834l-.49.949c-.058.087-.115.173-.202.231-.086.028-.173.057-.259.057a.702.702 0 01-.346-.115 2.826 2.826 0 00-.432-.259 2.77 2.77 0 00-.606-.259 2.613 2.613 0 00-.807-.115c-.23-.029-.49.029-.72.086a1.85 1.85 0 00-.519.288.943.943 0 00-.317.432 1.156 1.156 0 00-.115.546c-.029.23.057.46.201.633.173.173.375.316.577.431.259.115.519.231.807.317.164.065.338.122.515.179.134.044.271.088.407.137.317.115.634.23.923.374.288.144.576.317.807.547.259.23.432.517.576.805.144.374.202.748.202 1.151 0 .489-.087.949-.26 1.38a2.884 2.884 0 01-.72 1.122c-.346.317-.75.576-1.182.748a4.811 4.811 0 01-1.585.259c-.329.027-.631-.023-.957-.078l-.052-.008c-.317-.058-.634-.173-.951-.288l-.174-.086a6.124 6.124 0 01-.691-.374 4.53 4.53 0 01-.72-.575l.605-.978c.058-.058.115-.116.202-.173a.835.835 0 01.259-.058c.144 0 .288.058.404.144.144.115.317.23.518.345.202.144.462.259.692.346.288.086.634.143.951.143.461.029.951-.115 1.326-.402.317-.317.49-.748.461-1.18.029-.23-.057-.489-.201-.69a1.775 1.775 0 00-.577-.46 3.948 3.948 0 00-.807-.317 8.866 8.866 0 01-.461-.143 7.998 7.998 0 00-.461-.144 5.21 5.21 0 01-.923-.345c-.288-.144-.576-.317-.807-.547a2.077 2.077 0 01-.576-.834c-.144-.374-.202-.806-.202-1.237 0-.834.346-1.582.922-2.157.318-.288.692-.547 1.096-.691a4.621 4.621 0 011.527-.259c.606-.028 1.182.087 1.759.288zm-60.327 3.049c-.259-.633-.634-1.237-1.124-1.697a5.27 5.27 0 00-1.729-1.122c-.721-.288-1.47-.403-2.248-.403H666v10.816h4.122c.778 0 1.527-.115 2.248-.403a4.994 4.994 0 002.853-2.819 6.333 6.333 0 000-4.372zm-1.902 3.797a3.386 3.386 0 01-.692 1.208 3.108 3.108 0 01-1.066.748 4.107 4.107 0 01-1.441.259h-2.104v-7.623h2.104c.49 0 .98.087 1.441.259.403.173.778.432 1.066.748.317.345.548.748.692 1.208a5.479 5.479 0 010 3.193zm4.266-2.876c.317-.346.72-.604 1.153-.806a3.515 3.515 0 011.498-.316c.462 0 .923.086 1.355.23.404.144.778.374 1.067.661.317.317.547.691.691 1.094.173.46.26.949.26 1.467a.97.97 0 01-.087.575c-.086.115-.201.172-.346.144h-4.669c0 .374.087.719.202 1.035.086.259.23.518.432.719.173.202.404.345.634.432a2.517 2.517 0 001.586.029c.201-.058.403-.144.576-.231.095-.047.182-.095.259-.137.064-.035.122-.067.173-.093.087-.086.231-.115.346-.115.144 0 .26.058.346.173l.519.661a3.42 3.42 0 01-.692.604 3.004 3.004 0 01-.807.403 3.96 3.96 0 01-.836.202l-.072.007c-.26.026-.5.05-.764.05a4.429 4.429 0 01-1.498-.259 3.35 3.35 0 01-1.211-.776 3.776 3.776 0 01-.807-1.295 5.367 5.367 0 01-.288-1.783c0-.489.086-1.007.259-1.467a3.21 3.21 0 01.721-1.208zm3.459.345c.201.086.374.201.518.374.144.172.231.345.317.546.058.23.116.461.116.691h-3.488c.058-.489.26-.95.577-1.295a1.735 1.735 0 011.268-.46c.202 0 .461.058.692.144zm7.638 6.328h-1.672l-3.055-7.68h1.527c.116-.029.231.029.346.086a.42.42 0 01.173.259l1.47 4.085c.086.23.144.46.202.69l.173.69c.019-.076.035-.153.051-.23.032-.153.064-.307.122-.46a6.64 6.64 0 00.115-.345c.036-.115.072-.23.115-.345l1.528-4.085a.42.42 0 01.173-.259.586.586 0 01.317-.086h1.47l-3.055 7.68zm2.075-10.816v1.64h3.257v9.176h2.017v-9.147h3.286v-1.669h-8.56zm8.445 4.114c.317-.345.721-.604 1.153-.806.49-.201 1.037-.287 1.585-.345.461 0 .922.087 1.355.23.403.173.778.403 1.066.691.317.316.548.69.692 1.093.173.46.259.949.259 1.467a.978.978 0 01-.086.575c-.087.115-.202.173-.346.144h-4.756c0 .374.087.719.202 1.035.086.259.231.518.432.72.173.201.404.345.634.431a2.518 2.518 0 001.586.029 3.53 3.53 0 00.576-.23c.095-.048.182-.095.26-.138.063-.035.121-.067.173-.092.086-.087.23-.116.345-.116a.41.41 0 01.346.173l.519.662c-.202.23-.432.431-.692.604a3.015 3.015 0 01-.807.402 3.899 3.899 0 01-.836.202l-.072.007c-.26.026-.499.05-.763.05a4.43 4.43 0 01-1.499-.259 3.359 3.359 0 01-1.211-.776 3.776 3.776 0 01-.807-1.295 5.367 5.367 0 01-.288-1.783c0-.489.086-1.007.259-1.467.144-.46.404-.863.721-1.208zm3.459.374c.201.086.374.201.518.374.145.172.231.345.318.546.057.23.115.461.086.691h-3.488c.058-.489.26-.95.577-1.295a1.736 1.736 0 011.268-.46c.26 0 .49.058.721.144zm9.828 1.496v4.832l-.836.058a.913.913 0 01-.403-.087c-.115-.086-.202-.172-.231-.316l-.173-.547a7.8 7.8 0 01-.576.461 2.405 2.405 0 01-.577.345c-.201.086-.403.172-.634.201a6.04 6.04 0 01-.749.058 3.24 3.24 0 01-.894-.144 2.207 2.207 0 01-.72-.403 2.102 2.102 0 01-.461-.661 2.33 2.33 0 01-.173-.892c0-.317.086-.604.23-.863.173-.317.433-.604.75-.777a5.02 5.02 0 011.412-.575 9.293 9.293 0 012.191-.259v-.46a1.48 1.48 0 00-.317-1.151 1.224 1.224 0 00-.952-.374 2.16 2.16 0 00-.749.115 4.2 4.2 0 00-.519.23 6.673 6.673 0 01-.403.231.668.668 0 01-.404.115c-.115.028-.23-.029-.317-.087a.853.853 0 01-.23-.23l-.318-.604a4.538 4.538 0 013.2-1.208c.403 0 .836.086 1.21.23.346.115.634.345.894.604.23.288.432.604.548.949.144.403.201.806.201 1.209zm-4.352 3.48a.913.913 0 01-.144-1.151c.115-.172.288-.287.461-.373.288-.116.577-.202.865-.259.461-.087.893-.115 1.354-.144v1.294c-.23.259-.518.46-.807.633a2.299 2.299 0 01-.98.201c-.259 0-.518-.057-.749-.201zm7.955-4.257v5.551h-1.816v-7.68h1.124c.202 0 .404.144.462.345l.115.576c.144-.144.288-.288.432-.403a2.59 2.59 0 01.461-.316c.173-.087.346-.144.548-.202.202-.057.432-.086.634-.086.432 0 .836.144 1.182.403.317.259.547.633.692 1.035.115-.259.288-.46.461-.661.173-.173.374-.317.605-.432.231-.115.461-.201.692-.259.23-.057.461-.086.72-.086.375 0 .75.058 1.124.201.317.115.606.317.836.576.231.259.404.575.519.92.115.403.173.806.173 1.237v4.89h-1.845v-4.89a1.673 1.673 0 00-.317-1.093c-.259-.259-.605-.403-.951-.374a1.65 1.65 0 00-.519.086 1.143 1.143 0 00-.432.288c-.115.144-.231.288-.288.46a1.632 1.632 0 00-.116.633v4.89h-1.844v-4.89a1.713 1.713 0 00-.317-1.122c-.26-.23-.577-.374-.923-.345-.259 0-.518.058-.749.201-.259.144-.49.346-.663.547zm10.52 5.034c.058.143.145.259.231.345.115.115.231.172.346.23.144.057.288.086.461.086.288 0 .605-.115.807-.316a1.128 1.128 0 000-1.582 1.183 1.183 0 00-.346-.23 1.149 1.149 0 00-.432-.087c-.288 0-.605.115-.807.317-.115.115-.173.23-.231.345a1.074 1.074 0 00-.029.892zm13.663 3.078v-3.136c.23.23.518.432.807.547.345.144.72.201 1.095.201.461 0 .951-.086 1.354-.316.404-.202.75-.489 1.038-.835a4.08 4.08 0 00.663-1.265 6.006 6.006 0 00.231-1.582 6.46 6.46 0 00-.202-1.669 4.007 4.007 0 00-.577-1.236 2.471 2.471 0 00-.893-.748 2.601 2.601 0 00-1.153-.259c-.49 0-.98.115-1.412.316-.404.23-.779.518-1.067.863l-.144-.719a.493.493 0 00-.461-.345h-1.124v10.183h1.845zm2.911-8.285a1.023 1.023 0 00-.49-.431 1.388 1.388 0 00-.663-.144 1.656 1.656 0 00-.98.23 2.873 2.873 0 00-.75.69v3.452c.173.23.433.432.692.547.259.086.519.144.807.144.26.028.519-.029.75-.144.23-.115.432-.288.576-.489a2.07 2.07 0 00.375-.806c.086-.374.115-.748.115-1.15 0-.403-.029-.777-.115-1.151a2.448 2.448 0 00-.317-.748zm9.626 5.782v-4.832a3.55 3.55 0 00-.201-1.209 3.149 3.149 0 00-.548-.949c-.259-.259-.548-.489-.893-.604a3.476 3.476 0 00-1.211-.23 4.534 4.534 0 00-3.199 1.208l.317.604a.853.853 0 00.23.23c.087.058.202.115.317.087a.666.666 0 00.404-.115 7.19 7.19 0 00.403-.23v-.001c.173-.086.346-.172.519-.23.231-.086.49-.115.75-.115.345-.028.691.115.951.374.259.317.374.719.317 1.151v.46c-.75 0-1.47.086-2.191.259a5.02 5.02 0 00-1.412.575c-.317.173-.577.46-.749.777a1.744 1.744 0 00-.231.863c0 .316.058.604.173.892.115.258.259.46.461.661.202.173.461.317.721.403.288.086.605.144.893.144.26 0 .519-.029.75-.058.23-.029.432-.115.634-.201.201-.087.403-.202.576-.345.202-.144.375-.288.577-.461l.172.547c.029.144.116.23.231.316a.914.914 0 00.404.087l.835-.058zm-4.496-2.503a.913.913 0 00.144 1.151c.231.144.49.201.75.201.345 0 .663-.057.98-.201.288-.173.576-.374.807-.633v-1.294c-.462.029-.894.057-1.355.144a4.818 4.818 0 00-.865.259 1.154 1.154 0 00-.461.373zm12.221-4.228a3.971 3.971 0 00-1.153-.805 3.848 3.848 0 00-1.499-.288c-.547 0-1.095.086-1.614.288-.432.172-.836.46-1.182.834-.317.374-.576.776-.72 1.237a4.146 4.146 0 00-.231 1.553c0 .575.087 1.151.26 1.668.173.461.403.892.749 1.237.317.345.692.604 1.095.777.433.172.894.259 1.355.259.259 0 .548-.029.807-.058s.548-.115.807-.201c.26-.086.519-.23.75-.403.259-.172.461-.374.662-.604l-.518-.661a.41.41 0 00-.346-.173.433.433 0 00-.317.115c-.054.054-.119.096-.189.142a2.263 2.263 0 00-.128.088c-.144.086-.289.173-.462.23-.23.087-.461.115-.72.115-.288 0-.548-.057-.807-.172a1.971 1.971 0 01-.605-.489 2.07 2.07 0 01-.375-.806 4.516 4.516 0 01-.144-1.093c0-.345.029-.719.115-1.064.058-.288.202-.547.375-.805.173-.231.374-.403.605-.518.259-.115.548-.173.865-.173.23 0 .432.029.634.086l.079.032c.125.048.259.099.353.17.073.054.145.097.21.135.039.023.075.045.107.066a.485.485 0 00.288.086c.087 0 .173 0 .231-.057l.173-.173.49-.575zm1.672.029c.317-.345.72-.604 1.153-.806.49-.201 1.037-.287 1.585-.345.461 0 .922.087 1.355.23.403.173.778.403 1.066.691.317.316.548.69.692 1.093.173.46.259.949.259 1.467a.978.978 0 01-.086.575c-.087.115-.202.173-.346.144h-4.756c0 .374.086.719.202 1.035.086.259.23.518.432.72.173.201.404.345.634.431a2.517 2.517 0 001.585.029c.202-.058.404-.144.577-.23.095-.048.181-.095.259-.138.064-.035.121-.067.173-.092.087-.087.231-.116.346-.116.144 0 .26.058.346.173l.519.662c-.202.23-.433.431-.692.604a3.03 3.03 0 01-.807.402 3.913 3.913 0 01-.836.202l-.072.007c-.26.026-.5.05-.764.05a4.429 4.429 0 01-1.498-.259 3.35 3.35 0 01-1.211-.776 3.776 3.776 0 01-.807-1.295 5.367 5.367 0 01-.288-1.783c0-.489.086-1.007.259-1.467.144-.46.404-.863.721-1.208zm3.458.374c.202.086.375.201.519.374.144.172.231.345.317.546.058.23.116.461.087.691h-3.488c.058-.489.26-.95.577-1.295a1.736 1.736 0 011.268-.46c.259 0 .49.058.72.144zm8.623-.695h.374v-2.933h-.574l-.855 2.133-.855-2.133h-.575v2.933h.374v-2.427l1.002 2.427h.107l1.002-2.427v2.427zm-3.794-2.587h.828v-.346h-2.031v.346h.829v2.587h.374v-2.587z" fill="#fff"></path>
  <path d="M333.207 161.127c-8.925 0-17.985 3.48-19.495 5.383-.394.787-1.307 7.152.859 7.152.722 0 1.053.126 3.153-.859 7.875-3.084 12.865-3.012 13.586-3.012 8.86-.853 13.977 5.188 13.189 12.997v4.589c-7.481-1.772-11.755-1.833-13.855-1.833-10.894-.657-20.957 5.087-20.957 17.713 0 13.847 12.36 16.809 17.15 16.612a23.595 23.595 0 0018.508-8.729c3.61 8.072 5.908 7.537 5.973 7.537.657 0 1.18-.262 1.705-.59l3.743-2.628c.656-.393 1.177-1.045 1.243-1.832-.066-1.904-3.48-4.857-3.217-11.485v-20.469c.394-5.644-1.436-11.167-5.242-15.432-4.529-3.807-10.502-5.639-16.343-5.114zm127.136 0c-13.125 0-20.666 8.2-20.469 16.534 0 11.419 11.543 15.038 12.855 15.432 11.091 3.478 12.605 3.604 15.689 6.229 2.625 2.691 2.295 7.945-1.577 10.241-1.115.657-5.911 3.539-16.739 1.308-3.609-.722-5.506-1.573-8.46-2.82-.787-.262-2.627-.723-2.627 1.705v3.217c0 1.509.916 2.881 2.294 3.538 6.891 3.478 15.16 3.614 16.932 3.614.262 0 15.352.008 20.405-10.177 1.044-2.1 3.746-9.767-1.307-16.329-4.2-4.922-7.81-5.448-18.573-8.729-.918-.262-8.858-2.305-8.792-7.883-.394-7.153 9.322-7.539 11.356-7.408 8.203-.131 12.265 2.943 14.496 3.14.985 0 1.449-.584 1.449-1.897v-3.025c.065-.722-.196-1.434-.59-2.025-2.625-3.412-12.667-4.665-16.342-4.665zm-99.617 1.64c-.722.131-1.246.855-1.115 1.577.131.853.262 1.71.59 2.563l14.701 48.488c.328 1.575 1.369 3.288 3.666 3.025h5.383c3.282.328 3.742-2.825 3.807-3.153l9.652-40.426 9.779 40.49c.066.328.527 3.482 3.743 3.153h5.447c2.363.263 3.479-1.45 3.807-3.025 16.538-53.221 15.416-49.603 15.548-50.128.262-2.757-1.314-2.565-1.577-2.5h-5.845c-2.953-.328-3.534 2.369-3.665 3.025l-10.895 42.067-9.844-42.067c-.459-3.215-3.086-3.09-3.743-3.025h-5.05c-2.887-.262-3.61 2.041-3.806 3.025l-9.78 41.477-10.498-41.477c-.262-1.312-1.119-3.351-3.678-3.089h-6.627zm-27.916 30.39c4.725.066 8.804.78 11.625 1.436 0 3.281.12 5.122-.602 8.075-.919 3.15-4.979 8.866-14.561 8.998-5.512.262-9.12-4.076-8.792-8.998-.328-7.875 7.802-9.839 12.33-9.511zm147.772 40.106c-6.126.085-13.356 1.457-18.842 5.306-1.693 1.175-1.396 2.806.487 2.589 6.169-.741 19.899-2.406 22.354.731 2.461 3.137-2.722 16.078-5.012 21.866-.709 1.726.79 2.441 2.371 1.128 10.264-8.597 12.931-26.618 10.831-29.211-1.053-1.296-6.064-2.494-12.189-2.409zm-182.597 6.562c-1.431.197-2.047 2.011-.551 3.448 25.705 24.111 59.672 35.915 97.387 35.915 26.899 0 58.127-8.777 79.685-25.315 3.564-2.75.528-6.87-3.127-5.242-24.17 10.664-50.421 15.804-74.315 15.804-35.412 0-69.692-7.393-97.425-24.187-.607-.367-1.177-.488-1.654-.423z" fill="#fff"></path>
  <defs>
    <filter id="filter0_d_652_57116" x="226" y="47" width="340" height="342" filterUnits="userSpaceOnUse" color-interpolation-filters="sRGB">
      <feFlood flood-opacity="0" result="BackgroundImageFix"></feFlood>
      <feColorMatrix in="SourceAlpha" values="0 0 0 0 0 0 0 0 0 0 0 0 0 0 0 0 0 0 127 0" result="hardAlpha"></feColorMatrix>
      <feOffset dy="12"></feOffset>
      <feGaussianBlur stdDeviation="5"></feGaussianBlur>
      <feColorMatrix values="0 0 0 0 0.484181 0 0 0 0 0.069873 0 0 0 0 0.538779 0 0 0 0.212686 0"></feColorMatrix>
      <feBlend in2="BackgroundImageFix" result="effect1_dropShadow_652_57116"></feBlend>
      <feBlend in="SourceGraphic" in2="effect1_dropShadow_652_57116" result="shape"></feBlend>
    </filter>
  </defs>
</svg>
