<?xml version="1.0" encoding="UTF-8"?>
<svg xmlns="http://www.w3.org/2000/svg" width="791" height="414" viewBox="0 0 791 414" fill="none">
  <g clip-path="url(#clip0_4562_124804)">
    <path d="M806.5-28.5h-823v470.3h823V-28.5z" fill="#D8D8D8" stroke="#979797"></path>
    <path fill-rule="evenodd" clip-rule="evenodd" d="M-33.8 448.1h857.6V-35.7H-33.8v483.8z" fill="#4005BF"></path>
    <path fill-rule="evenodd" clip-rule="evenodd" d="M722 352.1L209.7 13.3l-86.6 364.5L722 352.1z" fill="#5827CC"></path>
    <path fill-rule="evenodd" clip-rule="evenodd" d="M593 213.8h3.1v-5.7H593v5.7zm0 25.5h3.4v-12.8H593v12.8zm0 25.6h3.4v-12.8H593v12.8zm0 25.5h3.4v-12.8H593v12.8zm3.1 19.9h-7.2v-3.1h4.1v-4.1h3.1v7.2zm-76.2.3h11.5v-3.4h-11.5v3.4zm23 0h11.5v-3.4h-11.5v3.4zm23 0h11.5v-3.4h-11.5v3.4zm-63.2-.3h5.7v-3.1h-5.7v3.1z" fill="#BCA4F4"></path>
    <path fill-rule="evenodd" clip-rule="evenodd" d="M346.7 373.6H450v-40H346.7v40z" fill="#764AE5"></path>
    <path fill-rule="evenodd" clip-rule="evenodd" d="M398.3 396.4c-91.6 0-165.8-3.2-165.8-7.3s74.2-7.3 165.8-7.3c91.6 0 165.8 3.2 165.8 7.3s-74.2 7.3-165.8 7.3z" fill="#281C56" fill-opacity=".202"></path>
    <path fill-rule="evenodd" clip-rule="evenodd" d="M485.9 386.6H310.8c0-9.1 7.4-16.5 16.5-16.5h142.2c9 0 16.4 7.4 16.4 16.5z" fill="#BCA4F4"></path>
    <path fill-rule="evenodd" clip-rule="evenodd" d="M346.7 353.6H450v-20H346.7v20z" fill="#592AD8"></path>
    <path fill-rule="evenodd" clip-rule="evenodd" d="M571.6 136.2v190.3c0 10.4-7.5 18.8-16.7 18.8H244.1c-9.2 0-16.7-8.4-16.7-18.8V136.2c0-10.4 7.5-18.8 16.7-18.8h310.8c9.2 0 16.7 8.4 16.7 18.8z" fill="#A789F4"></path>
    <path fill-rule="evenodd" clip-rule="evenodd" d="M571.6 135.8v186.5c0 10.2-7.5 18.4-16.7 18.4H244.1c-9.2 0-16.7-8.2-16.7-18.4V135.8c0-10.2 7.5-18.4 16.7-18.4h310.8c9.2 0 16.7 8.2 16.7 18.4z" fill="#BCA4F4"></path>
    <path fill-rule="evenodd" clip-rule="evenodd" d="M244.1 324.2c-.9 0-2.6-1.7-2.6-4.5V136c0-2.8 1.7-4.5 2.6-4.5h310.8c.9 0 2.6 1.7 2.6 4.5v183.7c0 2.8-1.7 4.5-2.6 4.5H244.1z" fill="#40159D"></path>
    <path fill-rule="evenodd" clip-rule="evenodd" d="M263.2 153.7h47.6v-5.1h-47.6v5.1zm141.1 38h50.5v-5.1h-50.5v5.1zm-141.1 19h47.6v-5.1h-47.6v5.1zm154 38.1H468v-5.1h-50.8v5.1zm-154 19h47.6v-5.1h-47.6v5.1zm147.7 38h48.9v-5.1h-48.9v5.1z" fill="#764AE5"></path>
    <path fill-rule="evenodd" clip-rule="evenodd" d="M263.2 172.7h195.5v-5.1H263.2v5.1zm0 19h129.5v-5.1H263.2v5.1zm60.3 19h197v-5.1h-197v5.1zm-60.3 19.1h257.3v-5.1H263.2v5.1zm0 19h143.1v-5.1H263.2v5.1zm59.4 19h184v-5.1h-184v5.1zm-59.4 19h243.4v-5.1H263.2v5.1zm0 19h133.5v-5.1H263.2v5.1zm65.7-152.1h88.4v-5.1h-88.4v5.1z" fill="#BCA4F4"></path>
    <path opacity=".271" fill-rule="evenodd" clip-rule="evenodd" d="M594 193H474.5c-6.8 0-12.4-5.5-12.4-12.4V97.3c0-6.8 5.5-12.4 12.4-12.4H594c6.8 0 12.4 5.5 12.4 12.4v83.3c0 6.9-5.6 12.4-12.4 12.4z" fill="#281C56"></path>
    <path fill-rule="evenodd" clip-rule="evenodd" d="M604.4 187.2H484.9c-6.8 0-12.4-5.5-12.4-12.4V91.4c0-6.8 5.5-12.4 12.4-12.4h119.5c6.8 0 12.4 5.5 12.4 12.4v83.3c0 6.9-5.6 12.5-12.4 12.5z" fill="#764AE5"></path>
    <path fill-rule="evenodd" clip-rule="evenodd" d="M512.1 130.7l-1.7.5v.1l1.7.5 16.3 8.4v6.7l-23.6-13.1v-5.3l23.6-13.1v6.7l-16.3 8.6zm26.5 27.3h-5.4l15.9-55.2h5.4L538.6 158zm21.5-36v-6.6l24.2 13.1v5.3l-24.2 13.1v-6.6l17-8.6 1.7-.5v-.1l-1.7-.6-17-8.5z" fill="#fff"></path>
    <path fill-rule="evenodd" clip-rule="evenodd" d="M423.9 71.8c-4.4 0-7.9-3.6-7.9-7.9 0-4.4 3.6-7.9 7.9-7.9 4.4 0 7.9 3.6 7.9 7.9 0 4.3-3.5 7.9-7.9 7.9zm0-28.1c-11.1 0-20.1 9-20.1 20.2s9 20.2 20.1 20.2C435 84 444 75 444 63.8c0-11.2-9-20.1-20.1-20.1z" fill="#939897"></path>
    <path opacity=".357" fill-rule="evenodd" clip-rule="evenodd" d="M448.2 63.8c0 13.4-10.9 24.3-24.3 24.3s-24.3-10.9-24.3-24.3 10.9-24.3 24.3-24.3 24.3 10.9 24.3 24.3zm17 6.2V57.7h-8.7c-.9-4.6-2.7-8.8-5.2-12.5l6.2-6.2-8.7-8.7-6.2 6.2c-3.7-2.5-8-4.3-12.5-5.2v-8.7h-12.3v8.7c-4.6.9-8.8 2.7-12.5 5.2l-6.2-6.2-8.7 8.7 6.2 6.2c-2.5 3.7-4.3 8-5.2 12.5h-8.7V70h8.7c.9 4.6 2.7 8.8 5.2 12.5l-6.2 6.2 8.7 8.7 6.2-6.2c3.7 2.5 8 4.3 12.5 5.2v8.7H430v-8.7c4.6-.9 8.8-2.7 12.5-5.2l6.2 6.2 8.7-8.7-6.2-6.2c2.5-3.7 4.3-8 5.2-12.5h8.8z" fill="#281C56"></path>
    <path fill-rule="evenodd" clip-rule="evenodd" d="M427.4 65.9c-4.4 0-7.9-3.6-7.9-7.9 0-4.4 3.6-7.9 7.9-7.9 4.4 0 7.9 3.6 7.9 7.9 0 4.3-3.5 7.9-7.9 7.9zm0-28.1c-11.1 0-20.1 9-20.1 20.2 0 11.1 9 20.2 20.1 20.2 11.1 0 20.1-9 20.1-20.2s-9-20.2-20.1-20.2z" fill="#764AE5"></path>
    <path fill-rule="evenodd" clip-rule="evenodd" d="M451.7 58c0 13.4-10.9 24.3-24.3 24.3S403.1 71.4 403.1 58s10.9-24.3 24.3-24.3 24.3 10.8 24.3 24.3zm17 6.1V51.8H460c-.9-4.6-2.7-8.8-5.2-12.5l6.2-6.2-8.7-8.7-6.2 6.2c-3.7-2.5-8-4.3-12.5-5.2v-8.7h-12.3v8.7c-4.6.9-8.8 2.7-12.5 5.2l-6.2-6.2-8.7 8.7 6.2 6.2c-2.5 3.7-4.3 8-5.2 12.5h-8.7v12.3h8.7c.9 4.6 2.7 8.8 5.2 12.5l-6.2 6.2 8.7 8.7 6.2-6.2c3.7 2.5 8 4.3 12.5 5.2v8.7h12.3v-8.7c4.6-.9 8.8-2.7 12.5-5.2l6.2 6.2 8.7-8.7-6.2-6.2c2.5-3.7 4.3-8 5.2-12.5h8.7z" fill="#764AE5"></path>
    <path fill-rule="evenodd" clip-rule="evenodd" d="M439.3 59c-.6 0-1-.5-1-1 0-6-4.9-10.9-10.8-10.9-.6 0-1-.5-1-1 0-.6.5-1 1-1 7.1 0 12.9 5.8 12.9 12.9-.1.5-.6 1-1.1 1zm-10.8 27.9c-.6 0-1-.5-1-1 0-.6.5-1 1-1 14.8 0 26.8-12 26.8-26.9 0-14.8-12-26.9-26.8-26.9-.6 0-1-.5-1-1 0-.6.5-1 1-1 15.9 0 28.9 13 28.9 28.9 0 15.9-12.9 28.9-28.9 28.9z" fill="#A789F4"></path>
    <path fill-rule="evenodd" clip-rule="evenodd" d="M496.6 46.2c-3.4 0-6.1-2.7-6.1-6.1 0-3.4 2.7-6.1 6.1-6.1 3.4 0 6.1 2.7 6.1 6.1 0 3.3-2.7 6.1-6.1 6.1zm0-21.6c-8.6 0-15.5 6.9-15.5 15.5s6.9 15.5 15.5 15.5 15.5-6.9 15.5-15.5-6.9-15.5-15.5-15.5z" fill="#939897"></path>
    <path opacity=".357" fill-rule="evenodd" clip-rule="evenodd" d="M515.3 40.1c0 10.3-8.4 18.7-18.7 18.7-10.3 0-18.7-8.4-18.7-18.7 0-10.3 8.4-18.7 18.7-18.7 10.3 0 18.7 8.3 18.7 18.7zm13.1 4.7v-9.5h-6.7c-.7-3.5-2-6.8-4-9.7l4.8-4.8-6.7-6.7L511 19c-2.9-2-6.1-3.3-9.7-4V8.2h-9.5V15c-3.5.7-6.8 2-9.7 4l-4.7-4.8-6.7 6.7 4.8 4.8c-2 2.9-3.3 6.1-4 9.7h-6.7v9.5h6.7c.7 3.5 2 6.8 4 9.7l-4.8 4.8 6.7 6.7 4.7-4.8c2.9 2 6.1 3.3 9.7 4V72h9.5v-6.7c3.5-.7 6.8-2 9.7-4l4.8 4.8 6.7-6.7-4.8-4.8c2-2.9 3.3-6.1 4-9.7h6.7v-.1z" fill="#281C56"></path>
    <path fill-rule="evenodd" clip-rule="evenodd" d="M499.3 41.7c-3.4 0-6.1-2.7-6.1-6.1 0-3.4 2.7-6.1 6.1-6.1 3.4 0 6.1 2.7 6.1 6.1 0 3.3-2.7 6.1-6.1 6.1zm0-21.7c-8.6 0-15.5 6.9-15.5 15.5S490.7 51 499.3 51s15.5-6.9 15.5-15.5c0-8.5-6.9-15.5-15.5-15.5z" fill="#764AE5"></path>
    <path fill-rule="evenodd" clip-rule="evenodd" d="M518 35.5c0 10.3-8.4 18.7-18.7 18.7-10.3 0-18.7-8.4-18.7-18.7 0-10.3 8.4-18.7 18.7-18.7 10.3 0 18.7 8.4 18.7 18.7zm13.1 4.8v-9.5h-6.7c-.7-3.5-2-6.8-4-9.7l4.8-4.8-6.7-6.7-4.8 4.8c-2.9-2-6.1-3.3-9.7-4V3.7h-9.5v6.7c-3.5.7-6.8 2-9.7 4L480 9.6l-6.7 6.7 4.8 4.8c-2 2.9-3.3 6.1-4 9.7h-6.7v9.5h6.7c.7 3.5 2 6.8 4 9.7l-4.8 4.8 6.7 6.7 4.8-4.8c2.9 2 6.1 3.3 9.7 4v6.7h9.5v-6.7c3.5-.7 6.8-2 9.7-4l4.8 4.8 6.7-6.7-4.8-4.8c2-2.9 3.3-6.1 4-9.7h6.7z" fill="#764AE5"></path>
    <path fill-rule="evenodd" clip-rule="evenodd" d="M508.5 36.6c-.6 0-1-.5-1-1 0-4.5-3.6-8.1-8.1-8.1-.6 0-1-.5-1-1 0-.6.5-1 1-1 5.6 0 10.2 4.6 10.2 10.2-.1.4-.6.9-1.1.9zM500.2 58c-.6 0-1-.5-1-1 0-.6.5-1 1-1 11.3 0 20.4-9.2 20.4-20.4s-9.2-20.4-20.4-20.4c-.6 0-1-.5-1-1s.5-1 1-1c12.4 0 22.5 10.1 22.5 22.5 0 12.2-10.1 22.3-22.5 22.3z" fill="#A789F4"></path>
    <path fill-rule="evenodd" clip-rule="evenodd" d="M212.1 220.7h5.7v-3.1h-5.7v3.1zm-13 0h-7.2v-7.2h3.1v4.1h4.1v3.1zm-7.2-129h3.4V80.6h-3.4v11.1zm0 22.1h3.4v-11.1h-3.4v11.1zm0 22.2h3.4v-11.1h-3.4V136zm0 22.1h3.4V147h-3.4v11.1zm0 22.2h3.4v-11.1h-3.4v11.1zm0 22.1h3.4v-11.1h-3.4v11.1zM195 69.5h-3.1v-7.2h7.2v3.1H195v4.1zm15.1-3.8h11v-3.4h-11v3.4zm22 0h11v-3.4h-11v3.4zm22 0h11v-3.4h-11v3.4zm22 0h11v-3.4h-11v3.4zm22 0h11v-3.4h-11v3.4zm22 0h11v-3.4h-11v3.4zm22 0h11v-3.4h-11v3.4zm22-.3h5.7v-3.1h-5.7v3.1z" fill="#BCA4F4"></path>
    <path opacity=".305" fill-rule="evenodd" clip-rule="evenodd" d="M268.1 358.9H155.7c-6.1 0-11.1-5-11.1-11.1V200.7c0-6.1 5-11.1 11.1-11.1h112.4c6.1 0 11.1 5 11.1 11.1v147.1c0 6.1-5 11.1-11.1 11.1z" fill="#281C56"></path>
    <path fill-rule="evenodd" clip-rule="evenodd" d="M277.8 349.6H165.4c-6.1 0-11.1-5-11.1-11.1V191.4c0-6.1 5-11.1 11.1-11.1h112.4c6.1 0 11.1 5 11.1 11.1v147.1c0 6.1-4.9 11.1-11.1 11.1z" fill="#764AE5"></path>
    <path fill-rule="evenodd" clip-rule="evenodd" d="M227.6 207c1.9 2.1 2.5 5.2 2 8-.6 3.1-2.3 5.8-4.3 8.2-1.6 1.9-3.5 3.6-5.4 5.1-2.3 1.8-4.5 3.8-5.9 6.3-1.2 2.1-1.5 4.6-.7 6.9 1.3 3.9 4.5 6.8 6.2 10.4-1.9-1.7-3.7-3.4-5.4-5.2-1.8-1.9-3.5-4-4.6-6.4-.8-1.7-1.1-3.6-.5-5.4.6-1.8 1.9-3.3 3.2-4.6 3.6-3.6 8.1-6.3 11.6-10 2-2 3.6-4.4 4.1-7.2.3-1.9.1-4-.3-6.1z" fill="#F5F5F5"></path>
    <path fill-rule="evenodd" clip-rule="evenodd" d="M224.6 229.8c3.9-2.9 8.4-4.7 13-6-3.6 2.3-7.4 4.4-10.6 7.4-1.1 1.1-2.2 2.4-2.7 3.9-.4 1.1-.2 2.4.2 3.5.8 1.9 2.3 3.5 3.3 5.2.9 1.5 1.1 3.4.4 5-1.1 2.4-3.1 4.1-5.3 5.5-.3.2-.5.5-.9.5 1.4-1.3 2.6-3.1 2.5-5.1 0-1.5-.9-2.8-1.8-3.8-2-2.4-3.6-5.4-3.3-8.5.5-3.2 2.8-5.7 5.2-7.6zm13.8 23.1c.8-1 2.2-1.3 3.4-1.4 2.1-.3 4.4.3 6 1.7 1.3 1.2 2.1 3 1.8 4.8-.3 2.1-1.7 3.8-3.2 5.1-2.8 2.3-6.3 3.6-9.8 4.5.2-.2.4-.4.7-.6 2.6-1.4 5.3-3.1 7.2-5.4 1.2-1.4 2.1-3.3 1.7-5.2-.4-2.2-2.5-3.8-4.7-3.9-1.1-.2-2.1.2-3.1.4z" fill="#F5F5F5"></path>
    <path fill-rule="evenodd" clip-rule="evenodd" d="M198.2 254.7c3.7-1.6 7.7-2.6 11.7-2.5-2.3.7-4.7 1.3-6.9 2.3-.5.3-1.1.5-1.4 1.1-.2.4.3.7.6.8 1.4.6 2.9.6 4.3.8 5.1.3 10.2.1 15.3-.2 5-.3 10-1 15-1.8-1.1.5-2.2 1-3.2 1.7-.5.4-1.2.5-1.7.6-6.1 1.4-12.4 1.8-18.6 1.9-2.4 0-4.8 0-7.2-.2-2.7-.2-5.4-.4-8-1.1-.8-.2-1.6-.5-2.2-1-.3-.2-.3-.7 0-1 .6-.6 1.5-1 2.3-1.4zm4.7 8.6c1-.8 2.3-1.3 3.5-1.7-.4.5-1 .9-1 1.6 0 .4.3.7.7.9.7.3 1.4.5 2.1.6 3.8.4 7.7.6 11.6.4 3.5-.2 7.1-.8 10.5-1.4 1 .9 2.1 1.5 3.3 2.1-4.2 1.2-8.5 2-12.9 2.3-4.1.3-8.3.3-12.4-.4-1.6-.3-3.3-.6-4.8-1.4-.6-.3-1.3-.7-1.5-1.4.1-.7.5-1.3.9-1.6zm2.4 8.7c.9-.7 2.1-1.1 3.2-1.4-.4.3-1 .8-.7 1.3.5.7 1.5.8 2.3 1 3.4.4 6.8.7 10.2.4 2.6-.2 5.1-.6 7.6-1.1 1.4.8 2.9 1.6 4.5 2.2-2.4 1.1-4.9 1.7-7.4 2.2-4.3.8-8.7.9-13 .2-1.9-.3-3.8-.8-5.6-1.7-.7-.4-1.4-.8-1.6-1.6-.4-.5 0-1.1.5-1.5z" fill="#F5F5F5"></path>
    <path fill-rule="evenodd" clip-rule="evenodd" d="M194.2 277.7c1.8-.6 3.7-1.1 5.7-1.2.8 0 1.6 0 2.3.4-2.3.1-4.6.7-6.7 1.8-.5.3-1 .6-1.2 1.1 0 .6.7.8 1.2 1 2.9 1.1 6 1.4 9 1.7 9 .8 18.2.6 27.2-.3 3.4-.4 6.9-.8 10.2-1.7 1.1-.4 2.3-.7 3-1.7.4-.6.1-1.3-.3-1.7.7.4 1.6.9 1.5 1.8-.3 1-1.2 1.5-2 1.9-2.6 1.3-5.4 2-8.2 2.5-8.1 1.6-16.5 2-24.7 1.7-6.2-.2-12.5-.8-18.6-1.9-1.1-.3-2.3-.5-3.1-1.3-.5-.6-.1-1.4.4-1.9 1.1-1 2.7-1.7 4.3-2.2z" fill="#F5F5F5"></path>
    <path fill-rule="evenodd" clip-rule="evenodd" d="M244 284.5c2-.7 4.2-1.4 5.7-3-.3 1.7-1.8 2.9-3.2 3.7-2.8 1.5-6 2.2-9.2 2.7-6.7 1.1-13.4 1.3-20.2 1.2-4.6-.1-9.3-.3-13.8-1.3-1.1-.3-2.2-.5-3.2-1.1 4 .7 8.1 1 12.2 1.1 6.7.2 13.5-.1 20.2-.9 3.8-.5 7.7-1.2 11.5-2.4zm-52.7 29.6v-19.7h4.1v22.1c0 2.1-.1 4.2-1.1 6.1-1.1 2-3.1 3.3-5.1 4.1-.7-.7-1.3-1.5-1.9-2.2 1.7-1 3.4-2.4 3.8-4.4.3-1.9.2-4 .2-6zm12.8-2.5c-.9.3-1.7.9-1.9 1.8-.3 1-.2 2.2.5 3.1.6.8 1.8 1 2.8.9 1.4-.2 2.6-1 3.7-1.8v-4.5c-1.7.1-3.4 0-5.1.5zm-4.9-9.3c2.7-1.2 5.7-1.8 8.6-1.4 1.5.2 3.1.7 4.1 2 .8 1 1.1 2.4 1.1 3.7V320h-3c-.1-.7-.2-1.3-.3-2-1.1.9-2.4 1.8-3.8 2.1-1.6.4-3.4.4-5-.2-1.2-.5-2.2-1.6-2.5-2.9-.5-1.9-.2-4 1.1-5.5 1.2-1.4 3-2.1 4.7-2.4 1.6-.3 3.3-.3 4.9-.3 0-1.3.2-2.6-.5-3.8-.6-.9-1.6-1.2-2.6-1.3-2.1-.2-4.3.4-6.3 1.1-.1-.9-.3-1.7-.5-2.5zm40 9.3c-.8.3-1.6.9-1.9 1.8-.3 1-.2 2.2.4 3.1.7.9 1.8 1 2.9.9 1.4-.2 2.6-1 3.7-1.9v-4.4c-1.7.1-3.5 0-5.1.5zm-4.9-9.3c2.7-1.2 5.7-1.8 8.7-1.4 1.5.2 3 .7 4 1.9.9 1.1 1.2 2.6 1.2 4V320h-3c-.1-.7-.2-1.3-.3-2-1.4 1.2-3.1 2.2-5 2.3-1.7.2-3.7-.1-5.1-1.3-1.4-1.3-1.7-3.5-1.3-5.3.3-1.7 1.6-3.1 3.1-3.8 2.4-1.2 5.1-1.2 7.7-1.2 0-1.2.2-2.5-.4-3.6-.5-.9-1.5-1.3-2.5-1.4-2.2-.2-4.4.3-6.5 1l-.6-2.4zm-19-1.2h4.2c.8 2.6 1.6 5.3 2.4 7.9.5 1.6 1.1 3.2 1.4 4.9.2.7.3 1.5.6 2.2 1.7-4.9 3-9.9 3.7-15h4.1c-1.2 6.5-3 12.9-5.8 18.8H221c-1.9-6.2-3.8-12.5-5.7-18.8z" fill="#F5F5F5"></path>
    <path fill-rule="evenodd" clip-rule="evenodd" d="M-33.8 448.1h857.6V-35.7H-33.8v483.8z" fill="#4005BF"></path>
    <path fill-rule="evenodd" clip-rule="evenodd" d="M746.5 195.6l-492-182.2L89.3 402.6l657.2-207z" fill="#5827CC"></path>
    <path fill-rule="evenodd" clip-rule="evenodd" d="M202.6 124.7v-6.6h2.2v6.4l-2.2.2zm3.8 12.9c-1.1-2-2-4.1-2.7-6.2l2.1-.6c.6 2 1.4 4 2.5 5.8l-1.9 1zm9.2 9.9c-1.9-1.3-3.6-2.7-5.1-4.4l1.6-1.5c1.4 1.5 3 2.9 4.8 4.1l-1.3 1.8zm12.6 4.8c-2.2-.3-4.5-.9-6.6-1.7l.8-2c2 .7 4 1.3 6.1 1.5l-.3 2.2zm6.7.2h6.5v-2.2h-6.5v2.2zm13 0h6.5v-2.2h-6.5v2.2zm13.1 0h6.5v-2.2H261v2.2zm13.1 0h6.5v-2.2h-6.5v2.2zm13.1 0h6.5v-2.2h-6.5v2.2zm13.1 0h6.5v-2.2h-6.5v2.2zm13.1 0h6.5v-2.2h-6.5v2.2zm-28.3 42.6h6.5v-3.4h-6.5v3.4zm13.1 0h6.5v-3.4h-6.5v3.4zm13.1 0h6.5v-3.4h-6.5v3.4zm13.1 0h6.5v-3.4h-6.5v3.4zm13.1 0h6.5v-3.4h-6.5v3.4zM552.6 53.5h2.2v-1.3h-2.2v1.3zm0 13.1h2.2V60h-2.2v6.6zm0 13.1h2.2v-6.5h-2.2v6.5zm2.1 13.1l-2.2-.1v-6.5h2.2v6.6zm-3.5 13l-1.9-1c1-1.8 1.8-3.8 2.3-5.8l2.1.6c-.6 2.1-1.5 4.2-2.5 6.2zm-9 10l-1.3-1.8c1.7-1.2 3.3-2.6 4.7-4.2l1.6 1.5c-1.5 1.7-3.2 3.2-5 4.5zm-12.5 5.1l-.3-2.2c2.1-.3 4.1-.9 6.1-1.7l.8 2c-2.2.9-4.4 1.5-6.6 1.9zm-91.7.3h6.5V119H438v2.2zm13 0h6.5V119H451v2.2zm13.1 0h6.5V119h-6.5v2.2zm13.1 0h6.5V119h-6.5v2.2zm13.1 0h6.5V119h-6.5v2.2zm13.1 0h6.5V119h-6.5v2.2zm13.1 0h6.5V119h-6.5v2.2zm-64.2 169.2h6.5V287h-6.5v3.4zm13.1 0h6.5V287h-6.5v3.4zm13.1 0h6.5V287h-6.5v3.4zm13.1 0h6.5V287h-6.5v3.4zm13.1 0h6.5V287h-6.5v3.4zm109.2-92.3h2.2v-6.5h-2.2v6.5zm-.8 13.1l-2-1c.9-1.9 1.6-3.9 2.1-5.9l2.1.5c-.4 2.2-1.2 4.4-2.2 6.4zm-8.4 10.5l-1.3-1.7c1.7-1.3 3.2-2.8 4.5-4.4l1.7 1.4c-1.5 1.7-3.1 3.3-4.9 4.7zm-12.3 5.6l-.4-2.1c2.1-.4 4.1-1.1 6-1.9l.9 2c-2.1.9-4.3 1.6-6.5 2zm-131 .6h6.5v-2.2h-6.5v2.2zm13.1 0h6.5v-2.2h-6.5v2.2zm13.1 0h6.5v-2.2h-6.5v2.2zm13.1 0h6.5v-2.2h-6.5v2.2zm13 0h6.5v-2.2h-6.5v2.2zm13.1 0h6.5v-2.2h-6.5v2.2zm13.1 0h6.5v-2.2h-6.5v2.2zm13.1 0h6.5v-2.2H553v2.2zm13.1 0h6.5v-2.2h-6.5v2.2zm13.1 0h6.5v-2.2h-6.5v2.2zm-403.6 10.3h6.5V236h-6.5v2.2zm13.1 0h6.5V236h-6.5v2.2zm13 0h6.5V236h-6.5v2.2zm13.1 0h6.5V236h-6.5v2.2zm13.1 0h6.5V236h-6.5v2.2zm13.1 0h6.5V236H241v2.2zm19.6.1l-6.5-.1V236l6.5.1v2.2zm13.1.2l-6.5-.1v-2.2l6.5.1v2.2zm13.1.2l-6.5-.1v-2.2l6.5.1v2.2zm13 .2l-6.5-.1v-2.2l6.5.1v2.2zm13.1.3l-6.5-.1v-2.2l6.5.1v2.2zm13.1.2l-6.5-.1v-2.2l6.5.1v2.2zm13.1.2l-6.5-.1v-2.2l6.5.1v2.2zm13.1.2l-6.5-.1v-2.2l6.5.1v2.2zM180 167c-4.4 0-8 3.6-8 8s3.6 8 8 8 8-3.6 8-8-3.6-8-8-8zm0 18.9c-6 0-10.8-4.9-10.8-10.9s4.9-10.9 10.8-10.9c6 0 10.8 4.9 10.8 10.9s-4.8 10.9-10.8 10.9zm37.5 135.3c-1.9 0-3.4 1.5-3.4 3.4s1.5 3.4 3.4 3.4 3.4-1.5 3.4-3.4-1.6-3.4-3.4-3.4zm0 6.2c-1.5 0-2.8-1.2-2.8-2.8 0-1.5 1.2-2.8 2.8-2.8 1.6 0 2.8 1.2 2.8 2.8-.1 1.6-1.3 2.8-2.8 2.8zm-126-127.9c-2.2 0-3.9 1.8-3.9 4s1.8 4 3.9 4c2.2 0 3.9-1.8 3.9-4 0-2.3-1.7-4-3.9-4zm0 9.3c-2.9 0-5.3-2.4-5.3-5.3s2.4-5.4 5.3-5.4 5.3 2.4 5.3 5.4c0 3-2.4 5.3-5.3 5.3zM592.4 94.3c-2.4 0-4.4 2-4.4 4.4 0 2.4 2 4.4 4.4 4.4 2.4 0 4.4-2 4.4-4.4 0-2.4-2-4.4-4.4-4.4zm0 10.4c-3.3 0-6-2.7-6-6s2.7-6 6-6 6 2.7 6 6-2.7 6-6 6zm96.5 46.5c-2.4 0-4.4 2-4.4 4.4 0 2.4 2 4.4 4.4 4.4 2.4 0 4.4-2 4.4-4.4 0-2.4-2-4.4-4.4-4.4zm0 10.4c-3.3 0-6-2.7-6-6s2.7-6 6-6 6 2.7 6 6-2.7 6-6 6zM415.1 29.1c-2.9 0-5.2 2.3-5.2 5.2 0 2.9 2.3 5.2 5.2 5.2 2.9 0 5.2-2.3 5.2-5.2 0-2.9-2.3-5.2-5.2-5.2zm0 12.3c-3.9 0-7.1-3.2-7.1-7.1 0-3.9 3.2-7.1 7.1-7.1 3.9 0 7.1 3.2 7.1 7.1 0 3.9-3.2 7.1-7.1 7.1zm237.8 221.4c-4.4 0-8 3.6-8 8s3.6 8 8 8 8-3.6 8-8-3.6-8-8-8zm0 18.9c-6 0-10.8-4.9-10.8-10.9s4.9-10.9 10.8-10.9c6 0 10.8 4.9 10.8 10.9.1 6-4.8 10.9-10.8 10.9zm-147.7 80.5c-3.4 0-6.2 2.8-6.2 6.2 0 3.4 2.8 6.2 6.2 6.2 3.4 0 6.2-2.8 6.2-6.2-.1-3.4-2.8-6.2-6.2-6.2zm0 14.5c-4.6 0-8.3-3.7-8.3-8.3 0-4.6 3.7-8.3 8.3-8.3 4.6 0 8.3 3.7 8.3 8.3 0 4.6-3.7 8.3-8.3 8.3zM296.3 39.1l1.5 3.3c1.5 3.3 3.7 6.1 6.4 7.9l2.7 1.8-2.7 1.8c-2.7 1.8-4.9 4.6-6.4 7.9l-1.5 3.3-1.5-3.3c-1.5-3.3-3.7-6.1-6.4-7.9l-2.7-1.8 2.7-1.8c2.7-1.8 4.9-4.6 6.4-7.9l1.5-3.3zm199.3 92.2l.8 1.8c.8 1.8 2 3.3 3.5 4.3l1.5 1-1.5 1c-1.5 1-2.7 2.5-3.5 4.3l-.8 1.8-.8-1.8c-.8-1.8-2-3.3-3.5-4.3l-1.5-1 1.5-1c1.5-1 2.7-2.5 3.5-4.3l.8-1.8zm101.5 106.5l1.1 2.4c1.1 2.4 2.7 4.4 4.7 5.7l2 1.3-2 1.3c-2 1.3-3.6 3.3-4.7 5.7l-1.1 2.4-1.1-2.4c-1.1-2.4-2.7-4.4-4.7-5.7l-2-1.3 2-1.3c2-1.3 3.6-3.3 4.7-5.7l1.1-2.4zM617 74.9l.6 1.3c.6 1.3 1.5 2.4 2.6 3.2l1.1.7-1.1.7c-1.1.7-2 1.8-2.6 3.2l-.6 1.3-.6-1.3c-.6-1.3-1.5-2.4-2.6-3.2l-1.1-.7 1.1-.7c1.1-.7 2-1.8 2.6-3.2l.6-1.3zm-464.3 88.2l.8 1.8c.8 1.8 2 3.3 3.5 4.3l1.5 1-1.5 1c-1.5 1-2.7 2.5-3.5 4.3l-.8 1.8-.8-1.8c-.8-1.8-2-3.3-3.5-4.3l-1.5-1 1.5-1c1.5-1 2.7-2.5 3.5-4.3l.8-1.8zM126.4 22.9l.8 1.8c.8 1.8 2 3.3 3.5 4.3l1.5 1-1.5 1c-1.5 1-2.7 2.5-3.5 4.3l-.8 1.8-.8-1.8c-.8-1.8-2-3.3-3.5-4.3l-1.5-1 1.5-1c1.5-1 2.7-2.5 3.5-4.3l.8-1.8zm106.8 301.7l.8 1.8c.8 1.8 2 3.3 3.5 4.3l1.5 1-1.5 1c-1.5 1-2.7 2.5-3.5 4.3l-.8 1.8-.8-1.8c-.8-1.8-2-3.3-3.5-4.3l-1.5-1 1.5-1c1.5-1 2.7-2.5 3.5-4.3l.8-1.8zm66.9 43.8l1.4 3.2c1.4 3.2 3.5 5.8 6.1 7.5l2.6 1.7-2.6 1.7c-2.6 1.7-4.7 4.4-6.1 7.5l-1.4 3.2-1.4-3.2c-1.4-3.2-3.5-5.8-6.1-7.5l-2.6-1.7 2.6-1.7c2.6-1.7 4.7-4.4 6.1-7.5l1.4-3.2zm181-54.6l.8 1.8c.8 1.8 2 3.3 3.5 4.3l1.5 1-1.5 1c-1.5 1-2.7 2.5-3.5 4.3l-.8 1.8-.8-1.8c-.8-1.8-2-3.3-3.5-4.3l-1.5-1 1.5-1c1.5-1 2.7-2.5 3.5-4.3l.8-1.8zM186 331.9v13.9c0 2.4 1.9 4.3 4.3 4.3h13.9c2.4 0 4.3-1.9 4.3-4.3v-13.9c0-2.4-1.9-4.3-4.3-4.3h-13.9c-2.4 0-4.3 1.9-4.3 4.3zM443.7 22.2v13.9c0 2.4 1.9 4.3 4.3 4.3h13.9c2.4 0 4.3-1.9 4.3-4.3V22.2c0-2.4-1.9-4.3-4.3-4.3H448c-2.3 0-4.3 1.9-4.3 4.3z" fill="#BCA4F4"></path>
    <path opacity=".256" fill-rule="evenodd" clip-rule="evenodd" d="M442.9 95.6h-85.2c-11.8 0-21.3 9.5-21.3 21.3V331c0 11.8 9.5 21.3 21.3 21.3h85.2c11.8 0 21.3-9.5 21.3-21.3V116.9c0-11.8-9.5-21.3-21.3-21.3z" fill="#40159D"></path>
    <path fill-rule="evenodd" clip-rule="evenodd" d="M436.1 87.9h-85.2c-11.8 0-21.3 9.5-21.3 21.3v214.1c0 11.8 9.5 21.3 21.3 21.3h85.2c11.8 0 21.3-9.5 21.3-21.3V109.2c0-11.8-9.5-21.3-21.3-21.3z" fill="#000"></path>
    <path fill-rule="evenodd" clip-rule="evenodd" d="M436.1 87.9h-85.2c-11.8 0-21.3 9.5-21.3 21.3v214.1c0 11.8 9.5 21.3 21.3 21.3h85.2c11.8 0 21.3-9.5 21.3-21.3V109.2c0-11.8-9.5-21.3-21.3-21.3z" fill="#764AE5"></path>
    <path fill-rule="evenodd" clip-rule="evenodd" d="M451.8 108.2v216c0 8.3-6.7 15-15 15h-86.5c-8.3 0-15-6.7-15-15v-216c0-8.3 6.7-15 15-15h14.8c1.6 0 3 1.3 3.2 2.9l.2 1.8c.3 3.2 3 5.7 6.2 5.7h37.6c3.2 0 5.9-2.5 6.2-5.7l.2-1.8c.1-1.6 1.5-2.9 3.2-2.9h14.9c8.2 0 15 6.7 15 15z" fill="#F5F5F5"></path>
    <path fill-rule="evenodd" clip-rule="evenodd" d="M407.9 97.5h-28.8c-.4 0-.8-.3-.8-.8 0-.4.3-.8.8-.8h28.8c.4 0 .8.3.8.8s-.4.8-.8.8z" fill="#40159D"></path>
    <path fill-rule="evenodd" clip-rule="evenodd" d="M352.4 202.8h82.2v-10.4h-82.2v10.4zm0 17.6h82.2V210h-82.2v10.4zm0 16.7h82.2v-10.4h-82.2v10.4zm0 56.3h82.2v-19.9h-82.2v19.9zm0-37.5h42.1v-10.4h-42.1v10.4zm7.7-128.2h3.3v-1.1h-3.3v1.1zm6.6 0h3.3v-1.1h-3.3v1.1zm-12.5.9l-.7-.8c.9-.8 2-1.2 3.2-1.2h.2v1.1h-.2c-.9 0-1.8.3-2.5.9zm20.1 2.1c-.2-.9-.7-1.8-1.5-2.3l.6-.9c1 .7 1.7 1.8 2 3l-1.1.2zm-21.3 3.6h-1.1V131l1.1.1v3.2zm21.4.4h1.1v-3.3h-1.1v3.3zm-22.5 6.2h1.1v-3.3h-1.1v3.3zm22.5.3h1.1V138h-1.1v3.2zm-22 6.4c-.4-.7-.6-1.5-.5-2.2v-1.2h1.1v1.2c0 .6.1 1.2.4 1.7l-1 .5zm22.3.3l-.9-.6c.4-.6.6-1.3.6-2v-.8h1.1v.8c0 1-.3 1.9-.8 2.6zm-16.1 2.3h-1.9c-.5 0-1.1-.1-1.6-.3l.4-1c.4.1.8.2 1.2.2h1.9v1.1zm3.2 0h3.3v-1.1h-3.3v1.1zm8.8 0h-2.2v-1.1h2.2c.3 0 .6 0 .9-.1l.3 1.1c-.4 0-.8.1-1.2.1zm34.2-18.8v13.9c0 2.4-1.9 4.3-4.3 4.3h-13.9c-2.4 0-4.3-1.9-4.3-4.3v-13.9c0-2.4 1.9-4.3 4.3-4.3h13.9c2.3 0 4.3 1.9 4.3 4.3zm29.8 0v13.9c0 2.4-1.9 4.3-4.3 4.3h-13.9c-2.4 0-4.3-1.9-4.3-4.3v-13.9c0-2.4 1.9-4.3 4.3-4.3h13.9c2.4 0 4.3 1.9 4.3 4.3zm-22.5 34.2v13.9c0 2.4 1.9 4.3 4.3 4.3h13.9c2.4 0 4.3-1.9 4.3-4.3v-13.9c0-2.4-1.9-4.3-4.3-4.3h-13.9c-2.4 0-4.3 2-4.3 4.3zm-24.9-3.7h3.3v-1.1h-3.3v1.1zm6.5 0h3.3v-1.1h-3.3v1.1zm9.2.9c-.7-.6-1.6-.9-2.5-.9h-.2v-1.1h.2c1.2 0 2.3.4 3.2 1.2l-.7.8zm-20.1 2.1l-1.1-.2c.2-1.2 1-2.3 2-3l.6.9c-.7.5-1.3 1.3-1.5 2.3zm22.5 3.6h-1.1v-3.2l1.1-.1v3.3zm-23.6.4h1.1v-3.3h-1.1v3.3zm22.5 6.2h1.1v-3.3h-1.1v3.3zm-22.5.4h1.1v-3.3h-1.1v3.3zm23 6.3l-1-.5c.3-.5.4-1.1.4-1.7v-1.2h1.1v1.2c.1.7-.1 1.5-.5 2.2zm-22.3.4c-.5-.8-.8-1.7-.8-2.6v-.8h1.1v.8c0 .7.2 1.4.6 2l-.9.6zm6.4 2.2h-2.2c-.4 0-.8 0-1.2-.1l.3-1.1c.3.1.6.1.9.1h2.2v1.1zm3.2 0h3.3v-1.1H392v1.1zm8.4 0h-1.9v-1.1h1.9c.4 0 .8-.1 1.2-.2l.4 1c-.5.2-1 .3-1.6.3zm-43-22.5h3.3v-1.1h-3.3v1.1zm6.5 0h3.3v-1.1h-3.3v1.1zm9.2.9c-.7-.6-1.6-.9-2.5-.9h-.2v-1.1h.2c1.2 0 2.3.4 3.2 1.2l-.7.8zm-20.1 2.1l-1.1-.2c.2-1.2 1-2.3 2-3l.6.9c-.7.5-1.3 1.3-1.5 2.3zm22.5 3.6h-1.1v-3.2l1.1-.1v3.3zm-23.6.4h1.1v-3.3h-1.1v3.3zm22.5 6.2h1.1v-3.3h-1.1v3.3zm-22.5.4h1.1v-3.3h-1.1v3.3zm23 6.3l-1-.5c.3-.5.4-1.1.4-1.7v-1.2h1.1v1.2c.1.7-.1 1.5-.5 2.2zm-22.3.4c-.5-.8-.8-1.7-.8-2.6v-.8h1.1v.8c0 .7.2 1.4.6 2l-.9.6zm6.3 2.2h-2.2c-.4 0-.8 0-1.2-.1l.3-1.1c.3.1.6.1.9.1h2.2v1.1zm3.3 0h3.3v-1.1h-3.3v1.1zm8.4 0h-1.9v-1.1h1.9c.4 0 .8-.1 1.2-.2l.4 1c-.5.2-1.1.3-1.6.3z" fill="#A789F4"></path>
    <path fill-rule="evenodd" clip-rule="evenodd" d="M515.6 32.5c5.2 0 10 1.4 13.9 4.1 2.7-3.1 6.4-5.3 10.6-6-.2-1.2-.3-2.4-.3-3.7 0-13.6 11-24.6 24.6-24.6 13.6 0 24.6 11 24.6 24.6 0 2-.2 3.9-.7 5.8 1.8-.4 3.7-.2 5.7-.2 13.6 0 24.6 9.9 24.6 25H491c0-15.1 11-25 24.6-25zM247.4 95.4c-5.2 0-10 1.4-13.9 4.1-2.7-3.1-6.4-5.3-10.6-6 .2-1.2.3-2.4.3-3.7 0-13.6-11-24.6-24.6-24.6-13.6 0-24.6 11-24.6 24.6 0 2 .2 3.9.7 5.8-1.8-.4-3.7-.2-5.7-.2-13.6 0-24.6 9.9-24.6 25H272c0-15.1-11-25-24.6-25zm-.5 95.7c2.5 0 4.7.7 6.6 2 1.3-1.5 3-2.6 5-2.9-.1-.6-.1-1.2-.1-1.8 0-6.6 5.2-12 11.7-12 6.4 0 11.7 5.4 11.7 12 0 1-.1 1.9-.3 2.8.9-.2 1.8-.1 2.7-.1 6.4 0 11.7 4.8 11.7 12.2h-60.5c-.2-7.4 5.1-12.2 11.5-12.2zm-60 38.8c-4 0-7.8 1.1-10.9 3.2-2.1-2.4-5-4.2-8.3-4.7.1-.9.2-1.9.2-2.9 0-10.6-8.6-19.3-19.2-19.3s-19.2 8.6-19.2 19.2c0 1.6.2 3.1.5 4.5-1.4-.3-2.9-.2-4.4-.2-10.6 0-19.2 7.8-19.2 19.6h99.7c0-11.7-8.6-19.4-19.2-19.4zM647.7 177c-4 0-7.8 1.1-10.9 3.2-2.1-2.4-5-4.2-8.3-4.7.1-.9.2-1.9.2-2.9 0-10.6-8.6-19.3-19.2-19.3s-19.2 8.6-19.2 19.2c0 1.6.2 3.1.5 4.5-1.4-.3-2.9-.2-4.4-.2-10.6 0-19.2 7.8-19.2 19.6h99.7c0-11.6-8.6-19.4-19.2-19.4zm-76.1 103.9c-4 0-7.8 1.1-10.9 3.2-2.1-2.4-5-4.2-8.3-4.7.1-.9.2-1.9.2-2.9 0-10.6-8.6-19.3-19.2-19.3s-19.2 8.6-19.2 19.2c0 1.6.2 3.1.5 4.5-1.4-.3-2.9-.2-4.4-.2-10.6 0-19.2 7.8-19.2 19.6h99.7c0-11.7-8.6-19.4-19.2-19.4z" fill="#875FED"></path>
    <path fill-rule="evenodd" clip-rule="evenodd" d="M735.5 384.3c.5.2 1 .5 1.4.8l-.5.9c-.1.1-.1.2-.2.2s-.2.1-.3.1c-.1 0-.3-.1-.3-.1-.1-.1-.3-.2-.4-.3l-.6-.3c-.3-.1-.5-.1-.8-.1-.2 0-.5 0-.7.1-.2.1-.4.2-.5.3-.1.1-.3.3-.3.4-.1.2-.1.3-.1.5s.1.5.2.6c.2.2.4.3.6.4.3.1.5.2.8.3.2.1.3.1.5.2.1 0 .3.1.4.1.3.1.6.2.9.4.3.1.6.3.8.5.3.2.4.5.6.8.1.4.2.7.2 1.2s-.1.9-.3 1.4c-.1.4-.4.8-.7 1.1-.3.3-.8.6-1.2.7-.5.2-1 .3-1.6.3-.3 0-.6 0-1-.1h-.1c-.3-.1-.6-.2-1-.3-.1 0-.1-.1-.2-.1-.2-.1-.5-.2-.7-.4-.3-.2-.5-.3-.7-.6l.6-1 .2-.2c.1 0 .2-.1.3-.1.1 0 .3.1.4.1.1.1.3.2.5.3.2.1.5.3.7.3.3.1.6.1 1 .1.5 0 1-.1 1.3-.4.3-.3.5-.7.5-1.2 0-.2-.1-.5-.2-.7-.2-.2-.3-.3-.6-.5-.3-.1-.5-.2-.8-.3-.2 0-.3-.1-.5-.1-.2-.1-.3-.1-.5-.1l-.9-.3c-.3-.1-.6-.3-.8-.5-.3-.2-.5-.5-.6-.8-.1-.4-.2-.8-.2-1.2 0-.8.3-1.6.9-2.2.3-.3.7-.5 1.1-.7.5-.2 1-.3 1.5-.3.8.5 1.4.6 1.9.8zm-60.3 3c-.3-.6-.6-1.2-1.1-1.7-.5-.5-1.1-.9-1.7-1.1-.7-.3-1.5-.4-2.2-.4H666v10.8h4.1c.8 0 1.5-.1 2.2-.4 1.3-.5 2.3-1.5 2.9-2.8.5-1.4.5-2.9 0-4.4zm-1.9 3.8c-.1.4-.4.9-.7 1.2-.3.3-.7.6-1.1.7-.5.2-1 .3-1.4.3H668v-7.6h2.1c.5 0 1 .1 1.4.3.4.2.8.4 1.1.7.3.3.5.7.7 1.2.3 1.1.3 2.2 0 3.2zm4.3-2.8c.3-.3.7-.6 1.2-.8.5-.2 1-.3 1.5-.3s.9.1 1.4.2c.4.1.8.4 1.1.7.3.3.5.7.7 1.1.2.5.3.9.3 1.5 0 .2 0 .4-.1.6-.1.1-.2.2-.3.1h-4.7c0 .4.1.7.2 1 .1.3.2.5.4.7.2.2.4.3.6.4.3.1.5.1.8.1.3 0 .5 0 .8-.1.2-.1.4-.1.6-.2.1 0 .2-.1.3-.1.1 0 .1-.1.2-.1.1-.1.2-.1.3-.1.1 0 .3.1.3.2l.5.7c-.2.2-.4.4-.7.6-.3.2-.5.3-.8.4-.3.1-.5.2-.8.2h-.9c-.5 0-1-.1-1.5-.3-.5-.2-.9-.4-1.2-.8-.3-.4-.6-.8-.8-1.3-.2-.6-.3-1.2-.3-1.8 0-.5.1-1 .3-1.5 0-.4.3-.8.6-1.1zm3.4.3c.2.1.4.2.5.4.1.2.2.3.3.5.1.2.1.5.1.7h-3.5c.1-.5.3-.9.6-1.3.3-.3.8-.5 1.3-.5.3.1.5.1.7.2zm7.7 6.3H687l-3.1-7.7h1.5c.1 0 .2 0 .3.1.1.1.1.1.2.3l1.5 4.1c.1.2.1.5.2.7l.2.7c0-.1 0-.2.1-.2 0-.2.1-.3.1-.5 0-.1.1-.2.1-.3 0-.1.1-.2.1-.3l1.5-4.1c0-.1.1-.2.2-.3.1-.1.2-.1.3-.1h1.5l-3 7.6zm2.1-10.8v1.6h3.3v9.2h2v-9.1h3.3v-1.7h-8.6zm8.4 4.1c.3-.3.7-.6 1.2-.8.5-.2 1-.3 1.6-.3.5 0 .9.1 1.4.2.4.2.8.4 1.1.7.3.3.5.7.7 1.1.2.5.3.9.3 1.5 0 .2 0 .4-.1.6-.1.1-.2.2-.3.1h-4.8c0 .4.1.7.2 1 .1.3.2.5.4.7.2.2.4.3.6.4.3.1.5.1.8.1.3 0 .5 0 .8-.1.2-.1.4-.1.6-.2.1 0 .2-.1.3-.1.1 0 .1-.1.2-.1.1-.1.2-.1.3-.1.1 0 .3.1.3.2l.5.7c-.2.2-.4.4-.7.6-.3.2-.5.3-.8.4-.3.1-.5.2-.8.2h-.9c-.5 0-1-.1-1.5-.3-.5-.2-.9-.4-1.2-.8-.3-.4-.6-.8-.8-1.3-.2-.6-.3-1.2-.3-1.8 0-.5.1-1 .3-1.5 0-.3.3-.7.6-1.1zm3.5.4c.2.1.4.2.5.4.1.2.2.3.3.5.1.2.1.5.1.7h-3.5c.1-.5.3-.9.6-1.3.3-.3.8-.5 1.3-.5.2.1.4.1.7.2zm9.8 1.5v4.8l-.8.1c-.1 0-.3 0-.4-.1-.1-.1-.2-.2-.2-.3l-.2-.5c-.2.2-.4.3-.6.5-.2.1-.4.3-.6.3-.2.1-.4.2-.6.2-.2 0-.5.1-.7.1-.3 0-.6-.1-.9-.1-.3-.1-.5-.2-.7-.4-.2-.2-.3-.4-.5-.7-.1-.3-.2-.6-.2-.9 0-.3.1-.6.2-.9.2-.3.4-.6.8-.8.4-.3.9-.5 1.4-.6.7-.2 1.4-.3 2.2-.3v-.5c.1-.4-.1-.8-.3-1.2-.3-.3-.6-.4-1-.4-.3 0-.5 0-.7.1-.2.1-.3.1-.5.2-.1.1-.3.2-.4.2-.1.1-.3.1-.4.1-.1 0-.2 0-.3-.1-.1-.1-.2-.1-.2-.2l-.3-.6c.9-.8 2-1.2 3.2-1.2.4 0 .8.1 1.2.2.3.1.6.3.9.6.2.3.4.6.5.9 0 .7.1 1.1.1 1.5zm-4.4 3.5c-.3-.3-.4-.8-.1-1.2.1-.2.3-.3.5-.4l.9-.3c.5-.1.9-.1 1.4-.1v1.3c-.2.3-.5.5-.8.6-.3.1-.6.2-1 .2-.4.1-.6 0-.9-.1zm8-4.3v5.6h-1.8v-7.7h1.1c.2 0 .4.1.5.3l.1.6.4-.4c.1-.1.3-.2.5-.3.2-.1.3-.1.5-.2s.4-.1.6-.1c.4 0 .8.1 1.2.4.3.3.5.6.7 1 .1-.3.3-.5.5-.7.2-.2.4-.3.6-.4.2-.1.5-.2.7-.3.2-.1.5-.1.7-.1.4 0 .8.1 1.1.2.3.1.6.3.8.6.2.3.4.6.5.9.1.4.2.8.2 1.2v4.9h-1.8V390c0-.4-.1-.8-.3-1.1-.3-.3-.6-.4-1-.4-.2 0-.3 0-.5.1s-.3.2-.4.3c-.1.1-.2.3-.3.5-.1.2-.1.4-.1.6v4.9h-1.8V390c0-.4-.1-.8-.3-1.1-.3-.2-.6-.4-.9-.3-.3 0-.5.1-.7.2-.4.1-.6.3-.8.5zm10.5 5.1c.1.1.1.3.2.3.1.1.2.2.3.2.1.1.3.1.5.1.3 0 .6-.1.8-.3.4-.4.4-1.2 0-1.6-.1-.1-.2-.2-.3-.2-.1-.1-.3-.1-.4-.1-.3 0-.6.1-.8.3-.1.1-.2.2-.2.3-.2.4-.2.7-.1 1zm13.7 3v-3.1c.2.2.5.4.8.5.3.1.7.2 1.1.2.5 0 1-.1 1.4-.3.4-.2.8-.5 1-.8.3-.4.5-.8.7-1.3.1-.5.2-1.1.2-1.6 0-.6-.1-1.1-.2-1.7-.1-.4-.3-.9-.6-1.2-.2-.3-.5-.6-.9-.7-.3-.2-.8-.3-1.2-.3-.5 0-1 .1-1.4.3-.4.2-.8.5-1.1.9l-.1-.7c-.1-.2-.3-.3-.5-.3h-1.1v10.2h1.9v-.1zm2.9-8.2c-.1-.2-.3-.3-.5-.4-.2-.1-.4-.1-.7-.1-.3 0-.7.1-1 .2-.3.2-.5.4-.8.7v3.5c.2.2.4.4.7.5.3.1.5.1.8.1.3 0 .5 0 .8-.1.2-.1.4-.3.6-.5.2-.2.3-.5.4-.8.1-.4.1-.7.1-1.1 0-.4 0-.8-.1-1.2-.1-.4-.2-.6-.3-.8zm9.6 5.7v-4.8c0-.4-.1-.8-.2-1.2-.1-.3-.3-.7-.5-.9-.3-.3-.5-.5-.9-.6-.4-.1-.8-.2-1.2-.2-1.2 0-2.3.4-3.2 1.2l.3.6c.1.1.1.2.2.2.1.1.2.1.3.1.1 0 .3 0 .4-.1.1-.1.3-.1.4-.2.2-.1.3-.2.5-.2.2-.1.5-.1.8-.1.3 0 .7.1 1 .4.3.3.4.7.3 1.2v.5c-.8 0-1.5.1-2.2.3-.5.1-1 .3-1.4.6-.3.2-.6.5-.7.8-.1.3-.2.5-.2.9 0 .3.1.6.2.9.1.3.3.5.5.7.2.2.5.3.7.4.3.1.6.1.9.1.3 0 .5 0 .8-.1.2 0 .4-.1.6-.2l.6-.3c.2-.1.4-.3.6-.5l.2.5c0 .1.1.2.2.3.1.1.3.1.4.1l.6-.4zm-4.5-2.5c-.2.4-.2.9.1 1.2.2.1.5.2.8.2.3 0 .7-.1 1-.2.3-.2.6-.4.8-.6v-1.3c-.5 0-.9.1-1.4.1-.3.1-.6.1-.9.3-.1 0-.3.2-.4.3zm12.2-4.2c-.3-.3-.7-.6-1.2-.8-.5-.2-1-.3-1.5-.3s-1.1.1-1.6.3c-.4.2-.8.5-1.2.8-.3.4-.6.8-.7 1.2-.2.5-.3 1-.2 1.6 0 .6.1 1.2.3 1.7.2.5.4.9.7 1.2.3.3.7.6 1.1.8.4.2.9.3 1.4.3.3 0 .5 0 .8-.1.3 0 .5-.1.8-.2.3-.1.5-.2.8-.4.3-.2.5-.4.7-.6l-.5-.7c-.1-.1-.2-.2-.3-.2-.1 0-.2 0-.3.1-.1.1-.1.1-.2.1l-.1.1c-.1.1-.3.2-.5.2-.2.1-.5.1-.7.1-.3 0-.5-.1-.8-.2-.2-.1-.4-.3-.6-.5-.2-.2-.3-.5-.4-.8-.1-.3-.1-.7-.1-1.1 0-.3 0-.7.1-1.1.1-.3.2-.5.4-.8.2-.2.4-.4.6-.5.3-.1.5-.2.9-.2.2 0 .4 0 .6.1h.1c.1 0 .3.1.4.2.1.1.1.1.2.1 0 0 .1 0 .1.1.1.1.2.1.3.1.1 0 .2 0 .2-.1l.2-.2.2-.3zm1.7 0c.3-.3.7-.6 1.2-.8.5-.2 1-.3 1.6-.3.5 0 .9.1 1.4.2.4.2.8.4 1.1.7.3.3.5.7.7 1.1.2.5.3.9.3 1.5 0 .2 0 .4-.1.6-.1.1-.2.2-.3.1h-4.8c0 .4.1.7.2 1 .1.3.2.5.4.7.2.2.4.3.6.4.3.1.5.1.8.1.3 0 .5 0 .8-.1.2-.1.4-.1.6-.2.1 0 .2-.1.3-.1.1 0 .1-.1.2-.1.1-.1.2-.1.3-.1.1 0 .3.1.3.2l.5.7c-.2.2-.4.4-.7.6-.3.2-.5.3-.8.4-.3.1-.5.2-.8.2h-.9c-.5 0-1-.1-1.5-.3-.5-.2-.9-.4-1.2-.8-.3-.4-.6-.8-.8-1.3-.2-.6-.3-1.2-.3-1.8 0-.5.1-1 .3-1.5 0-.3.3-.7.6-1.1zm3.5.4c.2.1.4.2.5.4.1.2.2.3.3.5.1.2.1.5.1.7h-3.5c.1-.5.3-.9.6-1.3.3-.3.8-.5 1.3-.5.2.1.4.1.7.2zm8.6-.7h.4V385h-.6l-.9 2.1-.9-2.1h-.6v2.9h.4v-2.4l1 2.4h.1l1-2.4v2.4h.1zm-3.8-2.6h.8v-.3h-2v.3h.8v2.6h.4v-2.6z" fill="#fff"></path>
  </g>
  <defs>
    <clipPath id="clip0_4562_124804">
      <path fill="#fff" d="M0 0h791v414H0z"></path>
    </clipPath>
  </defs>
</svg>
