<?xml version="1.0" encoding="UTF-8"?>
<svg xmlns="http://www.w3.org/2000/svg" width="51" height="51" viewBox="0 0 51 51" fill="none">
  <circle cx="25.5" cy="25.5" r="24.5" fill="white" stroke="#0077FF" stroke-width="2"></circle>
  <path fill-rule="evenodd" clip-rule="evenodd" d="M29.2927 17.7823H29.2977C29.6806 17.7823 30.0592 17.812 30.4309 17.9839C30.4474 17.9915 30.4639 17.9994 30.4803 18.0076C30.5098 18.0223 30.5391 18.0378 30.5685 18.0544C29.2649 18.0772 28.8553 19.1064 28.3279 20.0003L28.2386 19.9511C28.2571 19.7961 28.2653 19.6394 28.2953 19.4864C28.3706 19.1015 28.4542 18.7178 28.5382 18.3344C28.6188 17.9695 28.8514 17.7852 29.2288 17.7826H29.2618H29.2927M29.1514 14C28.8853 14 28.6168 14.0154 28.3462 14.0407C27.1261 14.1545 26.0073 14.5058 25.0383 15.2606C24.5943 15.6065 24.2029 16.0043 23.9159 16.5359C24.6117 16.5007 25.3574 16.4639 26.0101 16.431H26.0731C25.9333 16.5089 25.7854 16.5716 25.632 16.6179C24.9011 16.7963 24.2044 16.9812 23.4616 17.0963C22.8827 17.1861 22.3779 17.3507 21.9809 17.809C21.0187 18.9203 20.0119 19.9943 19.0751 21.1258C18.5798 21.7238 18.1839 22.4036 17.7627 23.0593C17.5164 23.4427 17.5102 23.8525 17.7962 24.2248C18.2187 24.7752 18.658 25.3127 19.1103 25.8815C19.5798 25.3422 20.0564 24.7948 20.5332 24.2476L20.6057 24.2986C20.5843 24.3735 20.5585 24.4471 20.5283 24.5189C20.0848 25.4245 19.6399 26.3294 19.1936 27.2335C18.7866 28.0541 18.8148 28.1546 19.6045 28.6516C19.8824 28.8266 20.1612 28.9328 20.4479 28.9328C20.6816 28.9298 20.9099 28.8627 21.1073 28.7389C21.5114 28.4984 21.9404 28.298 22.3453 28.0592C23.1203 27.6015 23.9383 27.3204 24.839 27.3204C24.9135 27.3204 24.9885 27.3223 25.0642 27.3262C25.0662 27.3262 25.0682 27.3262 25.0702 27.3262C25.1576 27.3262 25.3019 27.23 25.3252 27.1522C25.6304 26.1333 25.838 25.117 25.5562 24.0388C25.2702 22.945 25.1827 21.8271 25.5905 20.7305C25.6777 20.496 25.804 20.2755 25.9124 20.0491L26.0107 20.0766C26.0191 20.2042 26.0183 20.3322 26.0083 20.4597C25.8689 21.4239 25.9906 22.3617 26.2908 23.281C26.5176 23.9756 26.7267 24.6821 26.635 25.4147C26.5233 26.3071 26.34 27.1902 26.1943 28.0783C26.1565 28.3073 26.0678 28.3989 25.8966 28.3989C25.8296 28.3971 25.7631 28.3876 25.6984 28.3704C25.4029 28.2969 25.0996 28.2588 24.7949 28.2569C24.2157 28.255 23.6478 28.4157 23.1573 28.7204C22.649 29.0303 22.1218 29.3108 21.5958 29.5908C21.1704 29.8173 20.7563 29.9348 20.3553 29.9348C19.8172 29.9348 19.3026 29.7232 18.8162 29.2794C18.5618 29.0471 18.3047 28.8168 18.0617 28.5734C17.5025 28.0114 17.5055 28.0082 17.9413 27.3657L17.9751 27.3129C18.4026 26.683 18.4001 26.6354 17.9011 26.0383L17.839 25.9679C17.4904 25.5016 17.1264 25.0454 16.7993 24.5649C16.5329 24.1734 16.4692 23.7103 16.6538 23.283C16.8947 22.726 17.1595 22.1636 17.5135 21.6741C17.9698 21.0434 18.5234 20.4817 19.0373 19.8921C19.2548 19.6421 19.4887 19.3584 19.7092 19.1111C18.6658 19.2535 17.6835 19.5613 16.7454 19.9564C15.7514 20.3751 14.8917 20.9573 14.231 21.8166C13.7989 22.3781 13.3582 22.9342 12.8935 23.4693C12.6302 23.7726 12.3453 24.083 12.0079 24.2921C11.8653 24.379 11.7009 24.4246 11.5334 24.4236C11.1578 24.4236 10.7875 24.2017 10.7076 23.7895C10.8589 23.5954 11.0662 23.4491 11.0857 23.281C11.1498 22.7368 11.1447 22.1843 11.1667 21.6355C10.7409 21.8629 10.2554 22.3436 10.093 22.734C9.96321 23.0457 9.9428 23.349 10.197 23.6349C10.2828 23.7315 10.3175 23.8922 10.3316 24.0285C10.4182 24.8619 10.8137 25.3028 11.6159 25.3887C11.6649 25.3938 11.7141 25.3963 11.7633 25.3962C11.9684 25.3962 12.1791 25.3588 12.3944 25.3444C12.4011 25.4024 12.4044 25.4609 12.4042 25.5193C12.3618 26.0769 12.298 26.6332 12.2782 27.1911C12.2486 28.0263 12.3641 28.8379 12.6874 29.622C13.214 30.8991 13.7353 31.7363 14.3916 32.7744C14.4615 32.8851 14.5476 33.0284 14.5277 33.1389C14.4242 33.7274 14.3352 34.3253 14.1535 34.8924C13.9052 35.6669 14.0523 36.1461 14.8266 36.3921C15.4346 36.5767 16.0597 36.7007 16.6926 36.7624C16.7832 36.7727 16.8743 36.7782 16.9656 36.7787C17.52 36.7787 17.7245 36.5278 17.7806 35.8855C17.8065 35.5925 17.8224 35.2541 17.9793 35.0232C18.6964 33.9659 18.6587 33.4699 18.5924 32.1342C18.5861 32.0102 18.5614 31.8876 18.5542 31.764C18.5479 31.6508 18.5527 31.5372 18.5527 31.3927C18.8031 31.7021 18.9834 32.0036 19.2365 32.224C19.717 32.6496 20.3422 32.8801 20.987 32.8694C21.2823 32.867 21.5763 32.8308 21.8632 32.7615C22.4259 32.6306 22.8546 32.3243 23.0389 31.7491C23.0678 31.6956 23.1042 31.6462 23.1468 31.6025C23.1621 31.6429 23.1734 31.6847 23.1804 31.7272C23.184 32.0802 23.1791 32.4333 23.1888 32.7863C23.1973 33.0906 23.0671 33.2991 22.7936 33.4345C22.4845 33.5883 22.1721 33.7383 21.8765 33.9159C21.2727 34.2775 21.1696 34.6528 21.5668 35.234C21.8888 35.695 22.241 36.1345 22.6213 36.5497C22.8935 36.8536 23.112 37.0001 23.3494 37.0001C23.5543 37.0001 23.7732 36.891 24.0532 36.6801C24.604 36.2652 25.1459 35.8382 25.6924 35.4177C26.7047 34.6377 27.4953 33.6896 27.9858 32.5053C28.3559 31.6126 28.7371 30.7248 29.1295 29.842C29.2279 29.6204 29.1824 29.5163 28.9978 29.3551C28.4676 28.8939 27.9018 28.4208 27.5624 27.7696C27.5142 27.6778 27.4839 27.5769 27.4183 27.4136C27.9193 27.7575 28.3123 28.1332 28.783 28.3266C29.5104 28.6258 30.0795 29.0932 30.6325 29.6193C31.0717 30.0493 31.6615 30.2952 32.2793 30.3061C32.2847 30.3061 32.2902 30.3061 32.2957 30.3061C33.1856 30.3061 34.1436 29.3353 34.2329 28.2995C34.0949 28.4217 34.0053 28.4815 33.9417 28.5616C33.7868 28.7575 33.6645 28.9806 33.4937 29.1607C33.1967 29.474 32.8489 29.6267 32.5123 29.6267C32.0669 29.6267 31.641 29.3593 31.3785 28.8427C30.9305 27.9611 30.9023 27.0076 30.9767 26.0465C30.9931 25.8313 31.0238 25.6176 31.0479 25.403L31.1725 25.3514C31.2011 25.4187 31.2366 25.4829 31.2786 25.543C32.3321 26.7595 33.653 27.5382 35.2366 27.8603C35.7486 27.9738 36.2709 28.0358 36.7955 28.0453C37.2154 28.0493 37.6334 27.9885 38.0345 27.8653C39.6119 27.3687 40.5592 26.2098 41.2093 24.7775C41.8424 23.3813 42.0771 21.9052 41.978 20.3832C41.9165 19.4439 41.8422 18.502 41.7012 17.5717C41.5741 16.7303 41.3321 15.9067 40.7968 15.2098C40.6297 14.9923 40.4909 14.8813 40.3563 14.8813C40.2197 14.8813 40.0875 14.9957 39.9346 15.2295C39.5497 15.8187 39.0175 16.1765 38.3619 16.4013C37.7965 16.5949 37.7169 16.7553 37.8057 17.3389C37.92 18.0953 38.0716 18.849 38.1342 19.6094C38.2321 20.8037 38.0594 21.9548 37.2972 22.9416C37.0833 23.2184 36.8086 23.4493 36.5614 23.7012L36.4651 23.6202C36.5159 23.5244 36.5718 23.431 36.6169 23.3323C36.8143 22.8992 37.0224 22.4701 37.1993 22.0289C37.3223 21.722 37.2126 21.4741 36.9423 21.2698C36.8406 21.1856 36.713 21.1378 36.5804 21.1342C36.4291 21.142 36.2841 21.1965 36.1658 21.29C35.9484 21.4429 35.7449 21.6156 35.5357 21.7794C35.6167 21.6044 35.7228 21.4419 35.8507 21.2969C36.0189 21.0825 36.1399 20.8531 35.987 20.583C35.8848 20.4017 35.6304 20.2932 35.3666 20.2932C35.3022 20.2931 35.238 20.2997 35.175 20.3129C35.0264 20.3441 34.8812 20.421 34.6871 20.4134C35.284 19.8997 35.1971 19.2519 34.1118 19.1273C34.297 18.9908 34.5419 18.9577 34.7675 18.9234C34.8332 18.9143 34.8995 18.9101 34.9658 18.911C35.0036 18.911 35.0421 18.9118 35.0804 18.9128C35.1186 18.9137 35.1565 18.9145 35.1945 18.9145C35.2512 18.915 35.3078 18.9121 35.3642 18.9058C35.6351 18.8733 35.7396 18.7384 35.6503 18.4876C35.4151 17.823 34.5914 17.1317 33.8861 17.1163C33.7894 17.1142 33.5417 17.1163 33.445 17.1163H33.004C33.251 17.0041 33.4552 16.8291 33.7259 16.7066C33.0031 15.7133 32.1915 14.8335 31.0283 14.3451C30.4189 14.0893 29.7923 14 29.1514 14ZM29.4476 31.7553C29.1476 33.3802 28.1469 34.9804 27.0499 35.7488C26.8777 35.8701 26.9012 36.0091 27.033 36.1014C27.1605 36.1861 27.3096 36.2337 27.4631 36.2385C27.817 36.2447 28.1708 36.2465 28.5246 36.2465C28.9042 36.2465 29.2839 36.2445 29.6634 36.244C30.3098 36.2435 30.6337 35.8109 30.3415 35.2357C30.1293 34.8181 30.0895 34.4054 30.1309 33.9767C30.2093 33.1525 29.8971 32.4577 29.4476 31.7553ZM11.8689 29.9079C11.4127 30.4846 10.9983 30.9898 10.6066 31.5117C10.4152 31.7672 10.3534 32.0894 10.519 32.3653C10.9272 33.0475 11.4225 33.6683 12.122 34.0842C12.3404 34.2141 12.5348 34.2782 12.7146 34.2782C12.9975 34.2782 13.2438 34.1193 13.4886 33.8083C13.5976 33.6699 13.5778 33.5755 13.4978 33.4243C13.0869 32.6468 12.6854 31.8631 12.305 31.0704C12.1403 30.727 12.0348 30.3568 11.8689 29.9079ZM32.2596 19.578C31.0498 19.5894 29.5692 20.687 29.4252 21.6349C29.615 21.4784 29.8502 21.2738 30.0224 21.1319C29.9891 21.1813 30.3278 21.4928 30.2945 21.5422C30.5421 21.7435 30.4803 21.6829 30.7395 21.8939C30.6406 22.0865 30.3905 22.3914 30.266 22.634L30.345 22.699C31.1672 21.8353 32.0771 21.0932 33.2217 20.678L33.1798 20.5774C32.9461 20.6279 32.7118 20.6783 32.5072 20.7225C32.2694 20.4247 32.0546 20.1553 31.8321 19.8765C31.9335 19.8057 32.0653 19.7139 32.2596 19.5782M29.2927 17.7823H29.2619H29.2289C28.8516 17.785 28.6189 17.9693 28.5384 18.3342C28.4544 18.7176 28.3707 19.1013 28.2954 19.4862C28.2652 19.6389 28.257 19.7959 28.2387 19.9508L28.328 20C28.8554 19.1061 29.265 18.077 30.5687 18.0542C30.5393 18.0376 30.51 18.022 30.4804 18.0074C30.464 17.9992 30.4475 17.9912 30.431 17.9837C30.0592 17.8117 29.6807 17.7823 29.2979 17.7821H29.2927M38.1395 17.0916C38.2246 16.9952 38.2907 16.8519 38.3978 16.8103C39.0493 16.57 39.611 16.1383 40.0075 15.5732C40.0916 15.4529 40.2812 15.4053 40.4223 15.3239C40.4254 15.4358 40.4496 15.5545 40.4495 15.6654C40.4505 15.7163 40.4434 15.767 40.4284 15.8157C40.1849 16.558 39.2258 17.2876 38.4102 17.2918C38.3687 17.2611 38.2544 17.1763 38.1393 17.0913M40.4221 15.324C40.281 15.405 40.0914 15.4527 40.0073 15.5733C39.6108 16.1384 39.0492 16.57 38.3977 16.8103C38.2906 16.8519 38.2244 16.9952 38.1393 17.0916C38.2543 17.1766 38.3686 17.2614 38.4103 17.2921C39.2259 17.2878 40.1849 16.5582 40.4285 15.8159C40.4434 15.7673 40.4506 15.7165 40.4496 15.6657C40.4496 15.5547 40.4254 15.436 40.4224 15.3242" fill="#0077FF"></path>
</svg>
