<?xml version="1.0" encoding="UTF-8"?>
<svg xmlns="http://www.w3.org/2000/svg" width="51" height="51" viewBox="0 0 51 51" fill="none">
  <circle cx="25.5" cy="25.5" r="24.5" fill="white" stroke="#0077FF" stroke-width="2"></circle>
  <path d="M14.2557 21.3671C15.3871 21.3671 16.1411 21.5962 16.5181 22.0546C16.8947 22.5129 16.9845 23.2996 16.7874 24.4144C16.5815 25.5753 16.1851 26.4039 15.5974 26.9004C15.0097 27.3969 14.1154 27.6449 12.9148 27.6449H11.1034L12.2153 21.3671H14.2557ZM7 34H9.97794L10.6843 30.0121H13.235C14.3605 30.0121 15.2864 29.8826 16.0132 29.6229C16.7401 29.3635 17.4007 28.9286 17.9953 28.318C18.4943 27.8146 18.898 27.2594 19.2073 26.6523C19.5161 26.0457 19.7356 25.3759 19.8653 24.6435C20.1804 22.8654 19.9426 21.4805 19.1527 20.4883C18.3628 19.4961 17.1061 19 15.3834 19H9.65693L7 34Z" fill="#0077FF"></path>
  <path d="M22.9681 15H26.2683L25.4793 19.2538H28.4194C30.2693 19.2538 31.5454 19.5921 32.2478 20.268C32.95 20.9442 33.1604 22.0399 32.8796 23.5545L31.4988 31H28.1461L29.459 23.9206C29.6084 23.1153 29.5536 22.566 29.2942 22.2731C29.0347 21.9802 28.4826 21.8336 27.6383 21.8336H25.0005L23.3004 30.9999H20L22.9681 15Z" fill="#0077FF"></path>
  <path d="M39.2556 21.3671C40.387 21.3671 41.141 21.5962 41.5181 22.0546C41.8948 22.5129 41.9845 23.2996 41.7874 24.4144C41.5815 25.5753 41.1852 26.4039 40.5973 26.9004C40.0097 27.3969 39.1153 27.6449 37.9147 27.6449H36.1034L37.2153 21.3671H39.2556ZM32 34H34.978L35.6842 30.0121H38.235C39.3605 30.0121 40.2863 29.8826 41.0133 29.6229C41.7401 29.3635 42.4006 28.9286 42.9953 28.318C43.4944 27.8146 43.8981 27.2594 44.2073 26.6523C44.5161 26.0457 44.7356 25.3759 44.8653 24.6435C45.1804 22.8654 44.9427 21.4805 44.1527 20.4883C43.3628 19.4961 42.1061 19 40.3834 19H34.657L32 34Z" fill="#0077FF"></path>
</svg>
