<?xml version="1.0" encoding="UTF-8"?>
<svg xmlns="http://www.w3.org/2000/svg" width="51" height="51" viewBox="0 0 51 51" fill="none">
  <circle cx="25.5" cy="25.5" r="24.5" fill="white" stroke="#0077FF" stroke-width="2"></circle>
  <path d="M13.2869 35.053L25.487 41.7585L37.75 34.9622L40.036 16.0027L25.4716 11L11 16.0929L13.2869 35.053Z" fill="#CCE4FF"></path>
  <path d="M25.438 40.1564L36.4622 34.0551L38.5926 17.0985L25.438 12.6125V40.1564Z" fill="#0077FF"></path>
  <path d="M25.4378 40.1564V12.6121L12.624 17.1794L14.5836 34.1362L25.4378 40.1564Z" fill="#4DA0FF"></path>
  <path d="M29.0588 27.2755L25.4378 28.9688H21.6213L19.8272 33.4561L16.4902 33.5179L25.4378 13.6128L29.0588 27.2755ZM28.7087 26.423L25.4617 19.995L22.7984 26.3124H25.4376L28.7087 26.423Z" fill="#CCE4FF"></path>
  <path d="M28.4836 26.3173H25.4443L25.4375 28.9647L29.6401 28.9688L31.6042 33.5186L34.7972 33.5777L25.4375 13.6128L25.4615 19.995L28.4836 26.3173Z" fill="#80BBFF"></path>
</svg>
