<svg width="72" height="72" viewBox="0 0 72 72" fill="none" xmlns="http://www.w3.org/2000/svg"><path d="M27.68 48h15.846a1 1 0 00.939-.654l1.724-4.678a1 1 0 01.12-.23L49.433 38l3.093-4.837a1 1 0 00.14-.353l1.294-6.867a1 1 0 00-.013-.429l-1.73-6.89a1 1 0 00-.14-.314l-2.567-3.832a.996.996 0 00-.182-.204l-6.07-5.177a1 1 0 00-.507-.229l-5.956-.846a1 1 0 00-.304.003l-7.814 1.296a1 1 0 00-.46.204l-6.485 5.163a1 1 0 00-.26.315l-4.31 8.148a1 1 0 00-.101.642l1.281 7.223c.02.11.057.216.111.313l4.486 8.035 3.84 8.066a1 1 0 00.903.57z" fill="#FFBC66"/><path d="M56 25.625a19.422 19.422 0 00-1.984-8.478 19.752 19.752 0 00-5.505-6.81 20.167 20.167 0 00-7.953-3.814 20.357 20.357 0 00-8.847-.072 20.138 20.138 0 00-9.117 4.621A19.655 19.655 0 0017 19.527a19.37 19.37 0 00-.6 10.07 19.558 19.558 0 004.552 9.039 18.271 18.271 0 014.82 9.043 4.208 4.208 0 00-1.288 1.226 4.105 4.105 0 00-.568 3.401c.157.574.438 1.109.822 1.567-.374.448-.65.966-.81 1.523a4.124 4.124 0 00.47 3.332 4.22 4.22 0 001.199 1.249c1.334.895 2.917.732 4.448.732a5.856 5.856 0 001.944 3.772A6.047 6.047 0 0036.004 66a6.047 6.047 0 004.014-1.519 5.856 5.856 0 001.945-3.772c1.53 0 3.103.163 4.448-.732a4.22 4.22 0 001.2-1.25 4.145 4.145 0 00.468-3.331 4.166 4.166 0 00-.81-1.523 4.103 4.103 0 00.254-4.969 4.21 4.21 0 00-1.288-1.225 16.745 16.745 0 012.172-5.626c1.097-1.82 2.638-3.265 3.88-4.974A19.449 19.449 0 0056 25.625zM32.022 35.32h7.944a43.182 43.182 0 00-2.803 11.677h-2.338c-.39-4-1.333-7.928-2.803-11.677zm1.293 14.729h6.558a39.494 39.494 0 014.138 0c.236.01.464.093.651.236s.325.34.394.562c.069.223.066.462-.008.683a1.13 1.13 0 01-.406.553 1.69 1.69 0 01-.942.183c-2.72.061-5.461 0-8.192 0-2.431 0-4.997.224-7.417 0-.87-.081-1.573-.885-1.035-1.719.414-.64 1.18-.529 1.831-.529l4.428.03zm2.679 12.847a2.927 2.927 0 01-1.815-.634 2.842 2.842 0 01-1.01-1.614h5.649a2.842 2.842 0 01-1.009 1.614 2.927 2.927 0 01-1.815.634zm8.007-5.3H30.18c-.704 0-1.439.062-2.132 0-.962-.091-1.665-1.129-.869-1.912.528-.519 1.614-.336 2.297-.336h13.758a5.83 5.83 0 01.724 0c1.469.153 1.541 2.248.041 2.248zm-.838-10.599h-2.886c.32-4.272 1.872-8.138 3.103-12.206.372-1.19.134-2.452-1.386-2.564-.631-.05-1.273 0-1.904 0h-7.417c-1.417 0-4.427-.518-4.334 1.689a9.25 9.25 0 00.776 2.43c.331.906.641 1.801.93 2.717a34.388 34.388 0 011.656 7.893h-2.876a19.818 19.818 0 00-4.479-9.266c-2.286-2.655-4.138-5.219-4.913-8.718-.62-2.975-.4-6.061.637-8.922a16.637 16.637 0 015.244-7.308 17.056 17.056 0 018.336-3.58 17.175 17.175 0 019.016 1.185 16.873 16.873 0 016.318 4.633 16.504 16.504 0 013.493 6.946c.59 2.554.56 5.21-.092 7.75a16.52 16.52 0 01-3.657 6.864 22.084 22.084 0 00-5.565 10.457z" fill="#fff"/></svg>