<svg width="72" height="72" viewBox="0 0 72 72" fill="none" xmlns="http://www.w3.org/2000/svg"><path d="M16 63v2.5l.5 1 38-.5 1.5-1v-2l-1-1.5 1.5-2v-19L54 37H19l-3 2.5v20l1.5 2L16 63z" fill="#99C9FF"/><path d="M46.025 15.71h-.004a2.13 2.13 0 01-2.13-2.131v-.556a2.254 2.254 0 00-1.782-2.205L30.836 8.403a2.255 2.255 0 00-2.727 2.204v2.972a2.13 2.13 0 01-2.13 2.13h-.004c-1.123 0-2.164.768-2.344 1.876a2.256 2.256 0 002.224 2.633h1.205c.556 4.448 4.342 7.891 8.94 7.891s8.384-3.443 8.94-7.89h1.205a2.256 2.256 0 002.224-2.634c-.18-1.108-1.221-1.876-2.344-1.876z" stroke="#99C9FF" stroke-width="2.109" stroke-miterlimit="10" stroke-linecap="round" stroke-linejoin="round"/><path d="M48.4 17.585v-7.512a9.018 9.018 0 00-9.018-9.018H31.49c-1.47 0-2.709.944-3.175 2.254h-.207A4.509 4.509 0 0023.6 7.82v9.816m6.764 8.664v3.514c0 .995-.653 1.873-1.607 2.16l-7.256 2.176a3.382 3.382 0 00-2.4 2.977M41.636 26.3v3.514c0 .995.653 1.873 1.607 2.16l7.256 2.176a3.382 3.382 0 012.4 2.977" stroke="#99C9FF" stroke-width="2.109" stroke-miterlimit="10" stroke-linecap="round" stroke-linejoin="round"/><path d="M44.413 32.654A10.135 10.135 0 0136 37.127c-3.502 0-6.59-1.774-8.413-4.472" stroke="#99C9FF" stroke-width="2.109" stroke-miterlimit="10" stroke-linecap="round" stroke-linejoin="round"/><path d="M19.09 61.927a3.382 3.382 0 01-3.381-3.382V40.51a3.382 3.382 0 013.382-3.382h33.818a3.382 3.382 0 013.382 3.382v18.036a3.382 3.382 0 01-3.382 3.382" stroke="#07F" stroke-width="2.109" stroke-miterlimit="10" stroke-linecap="round" stroke-linejoin="round"/><path d="M54.036 61.927a2.255 2.255 0 010 4.51H17.964a2.254 2.254 0 110-4.51m20.291-18.036l-4.509 11.273m-4.51-9.019l-3.381 3.382 3.381 3.382m13.528.001l3.381-3.383-3.381-3.382" stroke="#07F" stroke-width="2.109" stroke-miterlimit="10" stroke-linecap="round" stroke-linejoin="round"/></svg>