<svg class="svg-icon" style="width: 1em; height: 1em;vertical-align: middle;fill: currentColor;overflow: hidden;" viewBox="0 0 1024 1024" version="1.1" xmlns="http://www.w3.org/2000/svg"><path d="M938.3 372L699.2 141c-28.9-28-75.9-28-104.8 0L490 241.8c-0.2 0.2-0.3 0.4-0.5 0.5l-58.4-56.5c-30.9-29.8-81-29.8-111.9 0L87.2 410c-30.9 29.9-30.9 78.3 0 108.2l376.1 363.4c30.9 29.8 81 29.8 111.9 0l232-224.2c21.1-20.5 28.5-50.7 19.1-78.2 2.9-1.2 5.5-3 7.7-5.1l104.4-100.9c28.8-27.9 28.8-73.2-0.1-101.2zM769.8 621.4l-33 31.9-156.5-151.2c-7.7-7.5-20.3-7.5-28 0-7.7 7.5-7.7 19.6 0 27.1l156.5 151.2-43.9 42.5-156.5-151.3c-5-5-12.3-7-19.2-5.2-6.9 1.8-12.3 7-14.1 13.7-1.8 6.7 0.3 13.8 5.4 18.6L637 749.9l-44 42.4-156.5-151.2c-5-5-12.3-7-19.2-5.2-6.9 1.7-12.3 7-14.1 13.6-1.8 6.7 0.2 13.8 5.4 18.6L565 819.3l-27.1 26.2c-4.9 4.8-11.7 7.5-18.7 7.5s-13.7-2.7-18.7-7.5l-376-363.3c-5-4.8-7.7-11.3-7.7-18 0-6.8 2.8-13.2 7.7-18l232-224.1c4.9-4.8 11.7-7.5 18.7-7.5s13.7 2.7 18.7 7.5l376 363.4c10.2 9.8 10.2 26-0.1 35.9z m128-181.4L798 539.9c-0.2 0.2-0.3 0.4-0.5 0.5L539.9 282.6c0.2-0.2 0.4-0.3 0.5-0.5l99.8-99.9c3.8-3.8 9-6 14.4-6s10.6 2.2 14.4 6l228.7 228.9c8.1 8 8.1 20.9 0.1 28.9z" fill="#ffffff" /></svg>